<?xml version="1.0" encoding="iso-8859-1"?>
<!-- Generator: Adobe Illustrator 17.1.0, SVG Export Plug-In . SVG Version: 6.00 Build 0)  -->
<!DOCTYPE svg PUBLIC "-//W3C//DTD SVG 1.1//EN" "http://www.w3.org/Graphics/SVG/1.1/DTD/svg11.dtd">
<svg version="1.1" id="Capa_1" xmlns="http://www.w3.org/2000/svg" xmlns:xlink="http://www.w3.org/1999/xlink" x="0px" y="0px"
	 viewBox="0 0 207.976 207.976" style="enable-background:new 0 0 207.976 207.976;" xml:space="preserve">
<path d="M205.976,194.321H2c-1.104,0-2-0.896-2-2s0.896-2,2-2h10.395V15.655c0-1.104,0.896-2,2-2h41.323c1.104,0,2,0.896,2,2
	c0,25.305,20.587,45.893,45.893,45.893s45.894-20.587,45.894-45.893c0-1.104,0.896-2,2-2c0.129,0,0.255,0.012,0.377,0.036
	c0.122-0.023,0.248-0.036,0.377-0.036h41.322c1.104,0,2,0.896,2,2v174.667h10.396c1.104,0,2,0.896,2,2
	S207.08,194.321,205.976,194.321z M145.955,190.321h45.625v-97.23c-1.638,0.074-4.111,0.146-7.155,0.104
	c0.152,7.854,0.637,36.267-0.044,49.417c-0.786,15.2-2.106,37.287-2.12,37.509c-0.066,1.102-1.033,1.948-2.115,1.877
	c-1.103-0.066-1.943-1.014-1.877-2.116c0.013-0.221,1.332-22.292,2.118-37.477c0.679-13.132,0.183-41.783,0.035-49.321
	c-3.08-0.132-6.517-0.386-10.116-0.839c0.512,8.985,2.317,44.699-0.133,63.375c-2.736,20.85-3.31,24.545-3.333,24.692
	c-0.171,1.092-1.205,1.84-2.285,1.666c-1.091-0.171-1.837-1.194-1.666-2.285c0.005-0.036,0.598-3.862,3.317-24.593
	c2.455-18.709,0.47-56.271,0.058-63.441c-2.391-0.395-4.817-0.884-7.23-1.489c0.415,8.37,1.485,34.11,0.177,55.377
	C157.943,166.125,149.648,183.505,145.955,190.321z M66.608,190.321h74.757c2.483-4.333,12.5-23.039,13.853-45.022
	c1.378-22.394,0.091-49.837-0.248-56.271c-0.945-0.295-1.883-0.61-2.81-0.946c-18.645-6.762-27.202-24.519-27.558-25.271
	c-0.312-0.659-0.23-1.402,0.146-1.966c-6.422,3.016-13.588,4.702-21.139,4.702c-7.17,0-13.992-1.521-20.16-4.256
	c0.17,0.479,0.157,1.024-0.077,1.52c-0.355,0.752-8.913,18.509-27.558,25.271c-0.927,0.336-1.864,0.651-2.81,0.946
	c-0.339,6.435-1.626,33.883-0.248,56.271C54.113,167.316,64.124,185.992,66.608,190.321z M16.395,190.321H62.02
	c-3.692-6.816-11.987-24.196-13.254-44.776c-1.309-21.268-0.238-47.007,0.177-55.377c-2.413,0.605-4.84,1.094-7.23,1.489
	c-0.412,7.17-2.397,44.735,0.058,63.441c2.72,20.732,3.312,24.557,3.316,24.593c0.171,1.091-0.575,2.114-1.666,2.285
	c-1.089,0.175-2.114-0.574-2.285-1.666c-0.023-0.147-0.596-3.841-3.332-24.691c-2.45-18.676-0.645-54.39-0.133-63.375
	c-3.599,0.453-7.037,0.708-10.116,0.839c-0.147,7.539-0.644,36.19,0.035,49.321c0.786,15.185,2.105,37.255,2.118,37.477
	c0.066,1.103-0.774,2.05-1.877,2.116c-1.097,0.069-2.049-0.775-2.115-1.877c-0.014-0.222-1.334-22.309-2.12-37.509
	c-0.681-13.149-0.196-41.563-0.044-49.417c-3.039,0.041-5.518-0.031-7.156-0.104V190.321z M128.22,61.104
	c0.127,0.264,8.293,17.049,25.304,23.217c14.525,5.267,32.356,5.004,38.057,4.758V17.655h-38.116
	c-0.194,4.928-1.108,9.675-2.638,14.138c0.072,0.092,0.137,0.191,0.194,0.297c0.059,0.11,5.991,11.03,14.738,14.898
	c8.808,3.894,14.255,3.448,14.312,3.442c1.098-0.09,2.072,0.702,2.179,1.797c0.107,1.095-0.685,2.07-1.778,2.183
	c-0.261,0.024-6.449,0.605-16.329-3.764c-7.342-3.246-12.718-10.414-15.174-14.212c-1.974,4.292-4.539,8.257-7.592,11.792
	c1.73,2.965,9.108,14.758,19.429,19.322c11.845,5.237,19.188,4.616,19.263,4.608c1.102-0.096,2.075,0.698,2.184,1.793
	s-0.686,2.073-1.78,2.186c-0.336,0.036-8.362,0.785-21.283-4.929c-10.551-4.665-18.003-15.573-20.664-19.941
	c-3.527,3.459-7.563,6.399-11.987,8.697C127.239,60.006,127.897,60.422,128.22,61.104L128.22,61.104z M16.395,89.079
	c5.699,0.247,23.532,0.51,38.058-4.758c17.111-6.205,25.224-23.048,25.304-23.217c0.237-0.503,0.657-0.861,1.143-1.032
	c-4.31-2.213-8.257-5.034-11.728-8.35c-2.879,4.63-10.184,14.974-20.383,19.484c-12.92,5.713-20.947,4.965-21.283,4.929
	c-1.099-0.113-1.897-1.096-1.783-2.195c0.113-1.096,1.078-1.895,2.188-1.785c0.144,0.013,7.477,0.602,19.261-4.608
	c9.823-4.344,16.954-15.188,19.125-18.807c-3.089-3.48-5.7-7.394-7.729-11.637c-2.624,3.92-7.803,10.479-14.733,13.543
	c-9.884,4.37-16.07,3.789-16.329,3.764c-1.099-0.113-1.897-1.096-1.783-2.195c0.113-1.094,1.072-1.902,2.185-1.785
	c0.093,0.007,5.535,0.437,14.311-3.442C49.893,43.594,55.4,34.77,56.675,32.584c-1.698-4.692-2.711-9.708-2.917-14.93H16.395V89.079
	z M103.61,50.486c-19.206,0-34.831-15.625-34.831-34.832c0-1.104,0.896-2,2-2s2,0.896,2,2c0,17,13.831,30.832,30.831,30.832
	c17.001,0,30.832-13.831,30.832-30.832c0-1.104,0.896-2,2-2s2,0.896,2,2C138.442,34.861,122.816,50.486,103.61,50.486z
	 M103.61,37.37c-11.975,0-21.716-9.742-21.716-21.716c0-1.104,0.896-2,2-2s2,0.896,2,2c0,9.769,7.947,17.716,17.716,17.716
	s17.716-7.947,17.716-17.716c0-1.104,0.896-2,2-2s2,0.896,2,2C125.326,27.629,115.585,37.37,103.61,37.37z"/>
<g>
</g>
<g>
</g>
<g>
</g>
<g>
</g>
<g>
</g>
<g>
</g>
<g>
</g>
<g>
</g>
<g>
</g>
<g>
</g>
<g>
</g>
<g>
</g>
<g>
</g>
<g>
</g>
<g>
</g>
</svg>
