<?xml version="1.0" encoding="UTF-8"?>
<!-- Generator: Adobe Illustrator 17.0.0, SVG Export Plug-In . SVG Version: 6.00 Build 0)  -->
<!DOCTYPE svg PUBLIC "-//W3C//DTD SVG 1.1//EN" "http://www.w3.org/Graphics/SVG/1.1/DTD/svg11.dtd">
<svg version="1.1" id="Layer_1" xmlns="http://www.w3.org/2000/svg" xmlns:xlink="http://www.w3.org/1999/xlink" x="0px" y="0px" width="221.327px" height="325.941px" viewBox="0 0 221.327 325.941" enable-background="new 0 0 221.327 325.941" xml:space="preserve">
<path fill-rule="evenodd" clip-rule="evenodd" fill="#2B2A29" d="M110.659,10.875c-16.271-0.089-31.705,0.214-46.301,0.909  c0.428,30.885,4.137,54.487,11.127,70.807c7.713,18.007,19.439,27.062,35.178,27.161c15.739-0.099,27.466-9.153,35.178-27.161  c6.989-16.319,10.699-39.922,11.127-70.807c-14.596-0.695-30.03-0.997-46.301-0.909H110.659z M62.22,1.312  c-3.947,0.199-7.832,0.427-11.655,0.685C32.376,3.221,15.615,5.102,0.283,7.638v8.426c15.309-2.52,32.023-4.389,50.14-5.609  c3.866-0.26,7.798-0.491,11.795-0.692C62.193,7.003,62.194,4.186,62.22,1.312z M156.989,1.208  c-14.602-0.695-30.043-0.999-46.321-0.91h-0.008C94.381,0.21,78.94,0.513,64.338,1.208c-0.027,2.875-0.028,5.692-0.003,8.453  c14.585-0.691,30.028-0.992,46.328-0.904c16.3-0.089,31.744,0.213,46.329,0.904C157.017,6.9,157.016,4.083,156.989,1.208z   M221.044,16.065V7.638c-15.332-2.537-32.092-4.417-50.282-5.641c-3.823-0.257-7.708-0.486-11.655-0.685  c0.026,2.873,0.026,5.691,0.001,8.452c3.997,0.201,7.929,0.431,11.795,0.692C189.021,11.675,205.735,13.545,221.044,16.065z   M158.555,280.76c0.013-0.165,0.021-0.359,0.027-0.588v-0.004c0.221-9.35,0.487-21.124,0.788-35.3  c0.246-11.609,0.517-24.818,0.804-39.614c-0.127-3.958,0.398-7.398,1.575-10.32c1.192-2.959,3.045-5.38,5.558-7.261l-0.001-0.001  c9.9-8.19,17.81-17.416,23.727-27.677c7.129-14.675,12.404-33.695,15.825-57.059c3.431-23.433,4.995-51.205,4.691-83.312  l1.059-0.008l-0.025-1.059c1.544-0.04,3.073-0.244,4.585-0.61c0.282-0.068,0.563-0.142,0.843-0.221  c-14.501-2.29-30.252-4.007-47.248-5.151c-3.83-0.258-7.723-0.487-11.678-0.686c-0.438,31.136-4.203,54.981-11.292,71.533  c-8.078,18.861-20.454,28.344-37.125,28.447h-0.008c-16.671-0.103-29.047-9.587-37.125-28.447  c-7.089-16.553-10.853-40.397-11.291-71.533c-3.955,0.199-7.847,0.428-11.678,0.686c-16.997,1.144-32.747,2.861-47.249,5.151  c0.28,0.079,0.562,0.153,0.843,0.221c1.512,0.366,3.04,0.569,4.585,0.61l-0.025,1.059l1.059,0.008  c-0.304,32.107,1.26,59.879,4.691,83.312c3.421,23.364,8.696,42.384,15.825,57.059c5.917,10.261,13.826,19.488,23.727,27.677  l-0.001,0.001c2.513,1.882,4.365,4.302,5.558,7.261c1.177,2.922,1.703,6.363,1.575,10.32c0.287,14.795,0.557,28.004,0.804,39.614  c0.301,14.177,0.568,25.951,0.788,35.3c0.005,0.231,0.014,0.426,0.027,0.593c3.718,0.956,9.602,1.621,17.33,2.057  c8.263,0.467,18.575,0.67,30.561,0.685c11.986-0.015,22.299-0.219,30.562-0.685C148.953,282.382,154.837,281.716,158.555,280.76z   M86.755,57.251c0,1.37-0.663,2.298-2.341,2.298h-0.53v-4.364c0.188-0.01,0.365-0.01,0.53-0.01  C86.003,55.175,86.755,55.926,86.755,57.251z M85.033,61.449c3.003,0,4.901-1.547,4.901-4.242c0-2.961-2.031-4.021-5.342-4.021  c-1.281,0-2.826,0.088-3.93,0.22v10.561h3.223v-2.519H85.033z M128.214,57.251c0,1.37-0.662,2.298-2.34,2.298h-0.529v-4.364  c0.187-0.01,0.363-0.01,0.529-0.01C127.463,55.175,128.214,55.926,128.214,57.251z M126.494,61.449c3,0,4.899-1.547,4.899-4.242  c0-2.961-2.031-4.021-5.342-4.021c-1.28,0-2.827,0.088-3.93,0.22v10.561h3.224v-2.519H126.494z M135.588,56.103  c0-0.574,0.575-0.84,1.501-0.84c1.016,0,2.121,0.221,2.871,0.532l-0.264-2.299c-0.84-0.177-1.59-0.309-2.959-0.309  c-2.605,0-4.371,1.027-4.371,3.182c0,3.711,5.034,2.96,5.034,4.683c0,0.662-0.487,1.015-1.68,1.015  c-1.058,0-2.693-0.353-3.664-0.839l0.354,2.431c0.97,0.353,2.295,0.53,3.355,0.53c2.693,0,4.901-0.884,4.901-3.536  C140.666,57.12,135.588,57.782,135.588,56.103z M119.693,53.407h-3.223v10.561h3.223V53.407z M106.624,53.407H103.4v10.561h3.223  V53.407z M112.231,61.847v-8.44h-3.223v10.561h5.829l0.485-2.122H112.231z M101.016,53.407h-3.223v4.198h-3.356v-4.198h-3.224  v10.561h3.224v-4.154h3.356v4.154h3.223V53.407z M139.606,297.397c1.329,0,3.749-1.608,6.445-3.819  c3.794-3.112,8.008-7.381,10.706-10.248c-3.79,0.719-8.987,1.243-15.415,1.605c-8.261,0.466-18.617,0.67-30.678,0.685  c-12.061-0.016-22.417-0.219-30.678-0.685c-6.429-0.363-11.625-0.886-15.416-1.605c2.698,2.867,6.913,7.137,10.707,10.248  c2.695,2.211,5.116,3.819,6.445,3.819H139.606z"/>
<path fill="none" stroke="#2B2A29" stroke-width="0.5669" stroke-miterlimit="22.9256" d="M110.659,10.875  c-16.271-0.089-31.705,0.214-46.301,0.909c0.428,30.885,4.137,54.487,11.127,70.807c7.713,18.007,19.439,27.062,35.178,27.161  c15.739-0.099,27.466-9.153,35.178-27.161c6.989-16.319,10.699-39.922,11.127-70.807c-14.596-0.695-30.03-0.997-46.301-0.909  H110.659z M62.22,1.312c-3.947,0.199-7.832,0.427-11.655,0.685C32.376,3.221,15.615,5.102,0.283,7.638v8.426  c15.309-2.52,32.023-4.389,50.14-5.609c3.866-0.26,7.798-0.491,11.795-0.692C62.193,7.003,62.194,4.186,62.22,1.312z M156.989,1.208  c-14.602-0.695-30.043-0.999-46.321-0.91h-0.008C94.381,0.21,78.94,0.513,64.338,1.208c-0.027,2.875-0.028,5.692-0.003,8.453  c14.585-0.691,30.028-0.992,46.328-0.904c16.3-0.089,31.744,0.213,46.329,0.904C157.017,6.9,157.016,4.083,156.989,1.208z   M221.044,16.065V7.638c-15.332-2.537-32.092-4.417-50.282-5.641c-3.823-0.257-7.708-0.486-11.655-0.685  c0.026,2.873,0.026,5.691,0.001,8.452c3.997,0.201,7.929,0.431,11.795,0.692C189.021,11.675,205.735,13.545,221.044,16.065z   M158.555,280.76c0.013-0.165,0.021-0.359,0.027-0.588v-0.004c0.221-9.35,0.487-21.124,0.788-35.3  c0.246-11.609,0.517-24.818,0.804-39.614c-0.127-3.958,0.398-7.398,1.575-10.32c1.192-2.959,3.045-5.38,5.558-7.261l-0.001-0.001  c9.9-8.19,17.81-17.416,23.727-27.677c7.129-14.675,12.404-33.695,15.825-57.059c3.431-23.433,4.995-51.205,4.691-83.312  l1.059-0.008l-0.025-1.059c1.544-0.04,3.073-0.244,4.585-0.61c0.282-0.068,0.563-0.142,0.843-0.221  c-14.501-2.29-30.252-4.007-47.248-5.151c-3.83-0.258-7.723-0.487-11.678-0.686c-0.438,31.136-4.203,54.981-11.292,71.533  c-8.078,18.861-20.454,28.344-37.125,28.447h-0.008c-16.671-0.103-29.047-9.587-37.125-28.447  c-7.089-16.553-10.853-40.397-11.291-71.533c-3.955,0.199-7.847,0.428-11.678,0.686c-16.997,1.144-32.747,2.861-47.249,5.151  c0.28,0.079,0.562,0.153,0.843,0.221c1.512,0.366,3.04,0.569,4.585,0.61l-0.025,1.059l1.059,0.008  c-0.304,32.107,1.26,59.879,4.691,83.312c3.421,23.364,8.696,42.384,15.825,57.059c5.917,10.261,13.826,19.488,23.727,27.677  l-0.001,0.001c2.513,1.882,4.365,4.302,5.558,7.261c1.177,2.922,1.703,6.363,1.575,10.32c0.287,14.795,0.557,28.004,0.804,39.614  c0.301,14.177,0.568,25.951,0.788,35.3c0.005,0.231,0.014,0.426,0.027,0.593c3.718,0.956,9.602,1.621,17.33,2.057  c8.263,0.467,18.575,0.67,30.561,0.685c11.986-0.015,22.299-0.219,30.562-0.685C148.953,282.382,154.837,281.716,158.555,280.76z   M139.606,297.397c1.329,0,3.749-1.608,6.445-3.819c3.794-3.112,8.008-7.381,10.706-10.248c-3.79,0.719-8.987,1.243-15.415,1.605  c-8.261,0.466-18.617,0.67-30.678,0.685c-12.061-0.016-22.417-0.219-30.678-0.685c-6.429-0.363-11.625-0.886-15.416-1.605  c2.698,2.867,6.913,7.137,10.707,10.248c2.695,2.211,5.116,3.819,6.445,3.819H139.606z"/>
<g>
	<path fill="#2B2A29" d="M97.972,312.524v-0.284v-0.284h-4.75v-12.434h-7.121v12.434h-2.875v-12.434h-1.504v12.434h-1.746h-3.004   v0.284v0.284v11.717l-0.06,0.277c3.52,0.76,7.04,1.14,10.56,1.14c3.52,0,7.04-0.38,10.56-1.14l-0.06-0.277V312.524z M84.631,324.24   v0.766c-1.55-0.091-3.099-0.257-4.649-0.496l-0.007-0.001v-0.269v-11.717h4.655V324.24z"/>
	<path fill="#2B2A29" d="M144.356,324.24v-11.717v-0.284v-0.284h-4.75v-12.434h-7.121v12.434h-2.875v-12.434h-1.504v12.434h-4.75   v0.284v0.284v11.717l-0.06,0.277c3.52,0.76,7.04,1.14,10.56,1.14c3.519,0,7.04-0.38,10.56-1.14L144.356,324.24z M131.015,324.24   v0.766c-1.552-0.091-3.104-0.257-4.655-0.497v-0.269v-11.717h4.655V324.24z"/>
</g>
<path fill="none" stroke="#2B2A29" stroke-width="0.5669" stroke-miterlimit="22.9256" d="M93.222,311.956v-12.434h-7.121v12.434  h-2.875v-12.434h-1.504v12.434h-1.746h-3.004v0.284v0.284v11.717l-0.06,0.277c3.52,0.76,7.04,1.14,10.56,1.14  c3.52,0,7.04-0.38,10.56-1.14l-0.06-0.277v-11.717v-0.284v-0.284H93.222z M123.356,312.24v0.284v11.717l-0.06,0.277  c3.52,0.76,7.04,1.14,10.56,1.14c3.519,0,7.04-0.38,10.56-1.14l-0.06-0.277v-11.717v-0.284v-0.284h-4.75v-12.434h-7.121v12.434  h-2.875v-12.434h-1.504v12.434h-4.75V312.24z M126.36,324.24v-11.717h4.655v11.717v0.766c-1.552-0.091-3.104-0.257-4.655-0.497  V324.24z"/>
</svg>