<?xml version="1.0" encoding="utf-8"?>
<!-- Generator: Adobe Illustrator 17.0.0, SVG Export Plug-In . SVG Version: 6.00 Build 0)  -->
<!DOCTYPE svg PUBLIC "-//W3C//DTD SVG 1.1//EN" "http://www.w3.org/Graphics/SVG/1.1/DTD/svg11.dtd">
<svg version="1.1" id="Layer_1" xmlns="http://www.w3.org/2000/svg" xmlns:xlink="http://www.w3.org/1999/xlink" x="0px" y="0px"
	 width="416.752px" height="553.208px" viewBox="0 0 416.752 553.208" enable-background="new 0 0 416.752 553.208"
	 xml:space="preserve">
<g>
	<path fill-rule="evenodd" clip-rule="evenodd" fill="#070504" d="M262.468,447.332c-2.76,0.272-5.771,0.517-8.939,0.733
		c-6.147,0.435-12.764,0.733-19.382,0.951c-7.653,0.245-15.368,0.354-22.486,0.407c-7.12-0.055-14.866-0.163-22.519-0.407
		c-6.618-0.218-13.235-0.516-19.352-0.951c-3.137-0.218-6.083-0.435-8.75-0.706c-2.604-0.271-4.987-0.543-7.12-0.843l-6.271-0.923
		l4.077,4.238c0.346,0.326,0.627,0.625,0.879,0.896v0.027c0.313,0.354,0.564,0.652,0.784,0.896c1.004,1.223,1.913,2.554,2.635,3.885
		c0.627,1.169,1.098,2.364,1.349,3.505l0.031,0.136l0.031,0.108c0.846,2.363,1.6,5.433,2.195,9.02
		c0.691,3.967,1.224,8.503,1.631,13.34c0.408,5.298,0.691,10.84,0.846,16.275c0.158,6.058,0.188,12.035,0.063,17.388l-0.031,1.875
		l0.251,0.027l14.584,15.785h-0.126l4.956,4.32l12.795,11.166l0.031,0.027l0.313,0.244c2.321,2.011,4.673,4.021,16.748,4.456h0.188
		c12.074-0.435,14.426-2.445,16.748-4.456l0.314-0.244l0.031-0.027l12.796-11.166l4.956-4.32h-0.063l14.959-15.813
		c-0.063,0-0.125,0-0.188,0l-0.031-1.875c-0.125-5.352-0.125-11.329,0.063-17.388c0.125-5.434,0.407-10.976,0.846-16.275
		c0.408-4.836,0.94-9.372,1.631-13.34c0.596-3.586,1.318-6.656,2.195-9.02l0.031-0.108l0.031-0.136
		c0.251-1.142,0.721-2.337,1.318-3.505c0.721-1.332,1.661-2.663,2.665-3.885c0.219-0.245,0.47-0.57,0.815-0.924
		c0.377-0.435,0.658-0.761,0.879-0.951l4.108-4.238l-6.301,0.926C267.517,446.788,265.102,447.06,262.468,447.332z M225.648,545.602
		l-0.314,0.271c-1.694,1.44-3.356,2.907-13.549,3.288c-10.193-0.38-11.855-1.848-13.549-3.288l-0.313-0.271l-8.249-7.173
		c1.285,0.055,2.665,0.108,4.14,0.163c2.604,0.081,5.489,0.136,8.562,0.163c3.01,0.027,6.178,0.055,9.409,0.055
		c3.231,0,6.399-0.027,9.409-0.055c3.073-0.027,5.959-0.082,8.562-0.163c1.474-0.055,2.854-0.108,4.108-0.163L225.648,545.602z
		 M262.28,454.396c-0.721,1.386-1.286,2.799-1.631,4.238c-0.879,2.526-1.662,5.706-2.289,9.373c-0.658,3.994-1.191,8.558-1.6,13.395
		c-0.439,5.108-0.69,10.622-0.847,16.139c-0.157,5.298-0.188,10.541-0.094,15.377l-1.945,0.136c-1.568,0.108-3.01,0.217-4.391,0.299
		c-1.913,0.109-3.764,0.218-5.55,0.299c-2.007,0.108-3.952,0.19-5.833,0.271c-2.195,0.081-4.296,0.136-6.335,0.218
		c-2.227,0.054-4.422,0.108-6.524,0.163c-2.321,0.054-4.579,0.081-6.742,0.108c-2.289,0.027-4.547,0.055-6.712,0.055
		c-2.164,0-4.422-0.027-6.711-0.055c-2.164-0.027-4.422-0.054-6.743-0.108c-2.133-0.055-4.296-0.109-6.523-0.163
		c-2.038-0.082-4.171-0.137-6.335-0.218c-1.883-0.082-3.826-0.163-5.833-0.271c-1.788-0.081-3.638-0.19-5.583-0.299
		c-1.349-0.082-2.823-0.19-4.36-0.299l-1.944-0.136c0.044-3.352,0.058-6.901,0.009-10.527c5.24,0.451,10.982,0.804,16.892,1.072
		c10.807,0.49,22.059,0.694,31.78,0.694v-3.135c-9.805,0-21.034-0.201-31.645-0.682c-5.969-0.271-11.781-0.632-17.084-1.097
		c-0.014-0.567-0.029-1.135-0.046-1.704c-0.074-2.589-0.175-5.178-0.304-7.725c5.348,0.468,11.235,0.833,17.299,1.108
		c10.807,0.49,22.059,0.694,31.78,0.694v-3.135c-9.805,0-21.034-0.201-31.645-0.682c-6.167-0.28-12.165-0.656-17.609-1.143
		c-0.108-1.787-0.231-3.544-0.367-5.255c-0.121-1.43-0.252-2.836-0.395-4.211c5.594,0.508,11.816,0.9,18.236,1.192
		c10.807,0.49,22.059,0.694,31.78,0.694v-3.135c-9.805,0-21.034-0.201-31.645-0.682c-6.593-0.299-12.995-0.708-18.731-1.246
		c-0.259-2.108-0.55-4.121-0.876-6.007c-0.212-1.237-0.437-2.418-0.678-3.538c6.073,0.598,12.988,1.048,20.15,1.373
		c10.807,0.49,22.059,0.695,31.78,0.695v-3.135c-9.805,0-21.034-0.201-31.645-0.682c-7.506-0.341-14.763-0.824-21.074-1.477
		c-0.259-0.932-0.533-1.803-0.822-2.608c-0.313-1.44-0.878-2.852-1.6-4.238c-0.47-0.869-1.035-1.739-1.6-2.581l1.788,0.19
		c2.791,0.271,5.708,0.517,8.75,0.706c5.896,0.407,12.451,0.706,19.194,0.924c7.496,0.245,15.117,0.38,22.204,0.407h0.032
		c7.087-0.027,14.74-0.163,22.236-0.407c6.711-0.218,13.298-0.516,19.194-0.924c3.104-0.19,6.116-0.435,8.906-0.733l1.913-0.19
		C263.315,452.63,262.75,453.499,262.28,454.396z"/>
	<path fill-rule="evenodd" clip-rule="evenodd" fill="#070504" d="M413.981,89.584v-1.047h-55.677V71.632
		c17.876-0.103,37.35-0.224,58.448-0.367l-0.011-2.823c-0.079,0.001-0.155,0.001-0.234,0.002c-2.022-7.1-5.125-13.763-9.328-19.981
		c-4.324-6.396-9.799-12.337-16.424-17.82l-0.324-0.268l-0.44-0.175c-21.796-8.668-47.839-15.518-78.128-20.55
		C281.663,4.632,247.2,1.415,208.476,0l-0.1,2.824L208.276,0c-38.725,1.415-73.188,4.632-103.387,9.649
		c-30.289,5.032-56.332,11.882-78.128,20.55l-0.44,0.175l-0.324,0.268c-6.625,5.483-12.101,11.424-16.425,17.82
		C5.37,54.681,2.268,61.344,0.245,68.444c-0.079-0.001-0.155-0.001-0.234-0.002L0,71.266c21.098,0.143,40.572,0.264,58.448,0.367
		v16.904H2.771v1.048l-0.077-0.002c-0.135,4.716,0.157,8.892,0.421,12.669c0.132,1.888,0.257,3.679,0.312,5.131
		c0.183,4.84,0.918,6.617,2.183,9.677l0.201,0.488c6.403,15.554,13.056,29.546,20.033,42.042
		c7.007,12.548,14.339,23.59,22.072,33.19l2.203-1.772l-1.185,2.569c21.374,9.883,55.616,9.883,158.031,9.883v0.011h1.409v0.562
		h1.409v-0.001c101.987,0,136.086,0,156.965-9.654l-0.124-0.269c0.401-0.175,0.798-0.351,1.19-0.533l-1.185-2.569l2.203,1.772
		c7.733-9.6,15.065-20.641,22.072-33.19c6.977-12.496,13.63-26.488,20.033-42.042l0.201-0.488c1.265-3.06,2-4.837,2.183-9.677
		c0.055-1.453,0.18-3.243,0.312-5.131c0.264-3.777,0.556-7.952,0.421-12.669L413.981,89.584z M105.798,15.23
		c29.965-4.978,64.159-8.171,102.578-9.579c38.419,1.407,72.613,4.601,102.578,9.579c22.794,3.787,43.107,8.607,60.96,14.453
		c-17.8-1.637-37.971-3.041-60.513-4.212c-30.076-1.561-64.411-2.706-103.004-3.434l-0.022,1.412l-0.022-1.412
		c-38.593,0.728-72.927,1.873-103.004,3.434c-22.542,1.17-42.713,2.574-60.513,4.212C62.691,23.837,83.004,19.017,105.798,15.23z
		 M14.268,51.63c3.95-5.842,8.956-11.295,15.016-16.356c1.404-0.555,2.83-1.102,4.27-1.642c20.458-2.129,44.431-3.908,71.94-5.337
		c30.108-1.563,64.403-2.708,102.882-3.434c38.479,0.726,72.774,1.871,102.882,3.434c27.509,1.428,51.482,3.208,71.94,5.337
		c1.441,0.54,2.866,1.087,4.27,1.642c6.06,5.061,11.067,10.513,15.016,16.356c3.585,5.303,6.296,10.923,8.147,16.853
		c-133.523,0.891-202.051,0.891-202.255,0.891s-68.732,0-202.255-0.891C7.972,62.553,10.683,56.933,14.268,51.63z M61.283,71.649
		c98.184,0.56,146.923,0.56,147.093,0.56s48.909,0,147.093-0.56v16.888H208.376H61.283V71.649z M209.785,203.465v-0.007
		c63.82,0,101.165,0,125.422-2.392c-23.988,2.399-61.251,2.4-125.422,2.4V203.465z M336.11,200.975
		c0.143-0.015,0.285-0.029,0.427-0.044C336.396,200.946,336.252,200.96,336.11,200.975z M407.99,101.874
		c-0.124,1.78-0.243,3.471-0.312,5.308c-0.144,3.815-0.739,5.253-1.762,7.728l-0.201,0.488
		c-6.317,15.347-12.875,29.14-19.745,41.444c-6.716,12.027-13.737,22.624-21.129,31.869c-20.345,9.099-54.592,9.101-155.055,9.101
		V197.8h-1.409h-1.409v0.011c-100.463,0-134.71-0.002-155.055-9.101c-7.392-9.244-14.413-19.841-21.129-31.869
		c-6.87-12.304-13.428-26.097-19.745-41.444l-0.201-0.488c-1.023-2.475-1.618-3.913-1.762-7.728
		c-0.069-1.837-0.188-3.528-0.312-5.308c-0.226-3.232-0.456-6.773-0.432-10.503h200.046h200.046
		C408.446,95.101,408.216,98.642,407.99,101.874z"/>
	<path fill-rule="evenodd" clip-rule="evenodd" fill="#070504" d="M333.911,205.438c-23.818,2.275-60.94,2.275-124.166,2.275h-2.74
		c-63.226,0-100.347,0-124.166-2.275c-0.458-0.044-4.125-0.458-6.645-0.742c-0.884-0.099-1.534-0.173-2.223-0.248l-9.519-1.037
		l7.438,6.042c12.174,9.889,27.157,31.602,38.607,58.023c15.647,36.107,24.718,70.954,29.29,109.47
		c2.317,20.233,3.814,41.31,3.814,62.463c5.606,5.932,56.821,6.916,66.028,7.016h3.815c11.726-0.128,56.703-0.989,66.178-6.342
		c0.244-0.208,0.352-0.333,0.41-0.648l-0.001-1.684c0.12-23.208-0.842-51.171,0.582-75.398c0.238-2.551,0.528-4.402,0.763-5.807
		c4.925-29.486,14.819-61.757,26.66-89.079c11.45-26.421,24.651-48.125,36.825-58.015l7.438-6.042l-9.52,1.037
		C339.826,204.768,336.865,205.156,333.911,205.438z"/>
</g>
</svg>
