<?xml version="1.0" encoding="UTF-8"?>
<!DOCTYPE svg PUBLIC "-//W3C//DTD SVG 1.1//EN" "http://www.w3.org/Graphics/SVG/1.1/DTD/svg11.dtd">
<!-- Creator: CorelDRAW X7 -->
<svg xmlns="http://www.w3.org/2000/svg" xml:space="preserve" width="1555px" height="2738px" version="1.1" style="shape-rendering:geometricPrecision; text-rendering:geometricPrecision; image-rendering:optimizeQuality; fill-rule:evenodd; clip-rule:evenodd"
viewBox="0 0 1556 2739"
 xmlns:xlink="http://www.w3.org/1999/xlink">
 <defs>
  <style type="text/css">
   <![CDATA[
    .str0 {stroke:#2B2A29;stroke-width:11.8173}
    .fil0 {fill:none;fill-rule:nonzero}
    .fil1 {fill:#2B2A29}
    .fil2 {fill:#2B2A29;fill-rule:nonzero}
   ]]>
  </style>
 </defs>
 <g id="Layer_x0020_1">
  <metadata id="CorelCorpID_0Corel-Layer"/>
  <path class="fil0 str0" d="M797 2539c-95,0 -214,-4 -305,-12"/>
  <path class="fil1" d="M385 2067c60,21 230,29 371,31l0 0 11 0 12 0 0 0c102,-1 303,-2 397,-38 2,-1 2,-2 3,-4l0 -10c1,-182 20,-367 45,-533 50,-329 125,-584 129,-601 2,-6 4,-10 6,-13 5,-12 9,-21 7,-64l-14 1 -951 0 0 28c1,9 1,17 3,24 3,16 134,615 139,1169l0 29c-3,-1 -76,-6 -87,-8 0,0 0,0 0,0l0 -29c-8,-551 -172,-1114 -180,-1139 -6,-20 -12,-20 -13,-46l0 -28 -77 0 0 0 -14 -1c-2,43 2,52 7,64 2,3 4,7 6,13 5,17 79,272 129,601 26,170 46,356 46,543 8,5 16,8 25,11z"/>
  <path class="fil2" d="M1375 811l-597 0 -597 0 -9 0 -4 -8c-15,-35 -35,-70 -57,-108 -50,-89 -106,-187 -110,-299 -2,-80 -4,-132 22,-176 26,-43 77,-75 178,-114 93,-35 189,-61 282,-78 105,-19 207,-28 295,-28 89,0 190,9 295,28 93,17 189,43 282,78 101,39 152,71 178,114 26,44 24,96 22,176 -4,112 -60,210 -110,299 -22,38 -42,73 -57,108l-4 8 -9 0z"/>
  <path class="fil1" d="M1116 2098c-13,2 -27,4 -43,5 -16,2 -34,4 -54,5 -36,2 -76,4 -116,6 -46,1 -92,2 -135,2 -43,0 -89,-1 -135,-2 -40,-2 -80,-4 -116,-6 -19,-1 -37,-3 -53,-4 -15,-2 -30,-4 -43,-5l-37 -6 24 25c2,2 4,4 6,6l0 0c1,2 3,4 4,5 6,8 12,16 16,24 4,7 7,14 8,21l0 1 1 0c5,14 9,33 13,54 4,24 7,51 10,80 2,32 4,66 5,98 1,37 1,72 0,105l0 11 1 0 88 95 -1 0 30 26 77 67 0 0 2 1c14,12 28,24 100,27l1 0c73,-3 87,-15 101,-27l2 -1 0 0 77 -67 30 -26 -1 0 90 -95c0,0 -1,0 -1,0l0 -11c-1,-33 -1,-68 0,-105 1,-32 3,-66 5,-98 3,-29 6,-56 10,-80 4,-21 8,-40 13,-54l0 0 1 -1c1,-7 4,-14 7,-21 5,-8 10,-16 16,-24 2,-1 3,-3 5,-5 3,-3 4,-5 6,-6l24 -25 -38 5zm-319 121c-59,0 -126,-1 -191,-4 -43,-2 -85,-5 -121,-9 1,7 3,14 4,22 2,11 4,23 5,36 35,3 73,5 113,7 64,3 131,4 190,4l0 19c-59,0 -126,-1 -191,-4 -39,-2 -76,-4 -109,-7 0,8 1,16 2,25 1,10 1,21 2,32 33,2 69,5 106,6 64,3 131,5 190,5l0 18c-59,0 -126,-1 -191,-4 -36,-1 -72,-4 -104,-6 1,15 2,30 2,46 0,3 0,7 0,10 32,3 67,5 103,7 64,3 131,4 190,4l0 19c-59,0 -126,-2 -191,-5 -35,-1 -70,-3 -101,-6 0,22 0,43 0,63l11 1c9,1 18,1 26,2 12,0 23,1 34,2 12,0 24,1 35,1 13,1 26,1 38,2 13,0 26,0 39,1 14,0 28,0 41,0 13,0 27,1 40,1 13,0 26,-1 40,-1 13,0 27,0 41,0 12,-1 25,-1 39,-1 12,-1 25,-1 38,-2 11,0 23,-1 35,-1 11,-1 22,-2 33,-2 8,-1 17,-1 27,-2l11 -1c0,-29 0,-60 1,-92 1,-33 2,-66 5,-97 2,-29 6,-56 9,-80 4,-22 9,-42 14,-57 2,-8 6,-17 10,-25 3,-6 6,-11 10,-16l-12 1c-16,2 -34,4 -53,5 -36,2 -75,4 -115,5 -45,2 -91,3 -134,3l0 0c-43,0 -88,-1 -133,-3 -41,-1 -80,-3 -116,-5 -18,-1 -35,-3 -52,-4l-11 -2c4,5 7,11 10,16 4,8 7,17 9,25 2,5 4,10 5,16 38,4 82,7 127,9 64,3 131,4 190,4l0 19zm55 474l-2 2c-10,9 -20,18 -81,20 -61,-2 -71,-11 -81,-20l-2 -2 -50 -43c8,1 16,1 25,1 16,1 33,1 51,1 18,0 37,1 57,1 19,0 38,-1 56,-1 19,0 36,0 52,-1 9,0 17,0 24,-1l-49 43z"/>
 </g>
</svg>
