<?xml version="1.0" encoding="utf-8"?>
<!-- Generator: Adobe Illustrator 21.0.0, SVG Export Plug-In . SVG Version: 6.00 Build 0)  -->
<svg version="1.1" id="Layer_1" xmlns="http://www.w3.org/2000/svg" xmlns:xlink="http://www.w3.org/1999/xlink" x="0px" y="0px"
	 viewBox="0 0 506.7 1417.3" style="enable-background:new 0 0 506.7 1417.3;" xml:space="preserve">
<style type="text/css">
	.st0{fill:#231F20;}
</style>
<g>
	<path class="st0" d="M493.7,564.5c-9.5-137.3-48.3-278.9-103.9-378.9c-41-73.8-72.1-121.9-95-147.2c-19.9-22-30.9-23.8-41.4-23.8
		v17c5.5,0,12.3,0,28.8,18.2c21.7,23.9,52.9,72.4,92.8,144c54.4,97.9,92.5,236.9,101.8,371.8c3,43.8,3.1,87.2,0.2,129.7
		c-29.2-4.4-112.8-15.5-223.6-15.5c-95.3,0-191.5,11.5-223.6,15.8c-2.9-42.6-2.8-86,0.2-130c9.3-134.9,47.3-273.9,101.8-371.8
		c39.8-71.6,71-120.1,92.8-144c16.5-18.2,23.3-18.2,28.8-18.2v-17c-10.4,0-21.4,1.8-41.4,23.8c-22.9,25.3-54,73.4-95,147.2
		c-55.6,100-94.4,241.7-103.9,378.9c-5.9,85.2-0.8,168.7,15,248.1c18.1,90.7,50.3,176.1,95.8,253.7c3.1,5.2,8,12.7,13.7,17.3
		l4.6,58.3c2.1,4.7,3.8,9.4,6.5,13.4v0.1c0.6,0.9,1,1.6,1.4,2.2c1.8,3,3.4,6.2,4.7,9.4c1.1,2.8,1.9,5.7,2.4,8.5l0.1,0.3l0.1,0.3
		c1.5,5.7,2.8,13.2,3.9,21.8c1.2,9.6,2.2,20.6,2.9,32.3c0.7,12.8,1.2,26.3,1.5,39.4c0.3,14.7,0.3,29.1,0.1,42.1l-0.1,4.5l0.4,0.1
		l25.8,38.2h-0.2l8.8,10.5l22.6,27l0.1,0.1l0.6,0.6c4.1,4.9,8.3,9.7,29.6,10.8h0.3c21.4-1.1,25.5-5.9,29.6-10.8l0.6-0.6l0.1-0.1
		l22.6-27l8.8-10.5h-0.1l26.5-38.3h-0.3l-0.1-4.5c-0.2-13-0.2-27.4,0.1-42.1c0.2-13.2,0.7-26.6,1.5-39.4c0.7-11.7,1.7-22.7,2.9-32.3
		c1.1-8.7,2.3-16.1,3.9-21.8l0.1-0.3l0.1-0.3c0.4-2.8,1.3-5.7,2.3-8.5c1.3-3.2,2.9-6.4,4.7-9.4c0.4-0.6,0.8-1.4,1.4-2.2
		c2.4-3.9,4.2-7.7,6.3-11.9l0,0l0,0c0-0.1,0.1-0.1,0.1-0.2l5.2-60.1c5.4-4.6,10.2-11.8,13.1-16.8c45.5-77.6,77.7-163,95.8-253.7
		C494.6,733.2,499.6,649.7,493.7,564.5z M278,1385.1l-0.6,0.7c-3,3.5-5.9,7-24,8c-18-0.9-21-4.5-24-8l-0.6-0.7l-14.6-17.4
		c2.3,0.1,4.7,0.3,7.3,0.4c4.6,0.2,9.7,0.3,15.2,0.4c5.3,0.1,10.9,0.1,16.7,0.1c5.7,0,11.3-0.1,16.7-0.1c5.4-0.1,10.5-0.2,15.2-0.4
		c2.6-0.1,5.1-0.3,7.3-0.4L278,1385.1z M342.8,1164.2c-1.3,3.4-2.3,6.8-2.9,10.3c-1.6,6.1-2.9,13.8-4,22.7
		c-1.2,9.7-2.1,20.7-2.8,32.4c-0.8,12.4-1.2,25.7-1.5,39.1c-0.3,12.8-0.3,25.5-0.2,37.2l-3.4,0.3c-2.8,0.3-5.3,0.5-7.8,0.7
		c-3.4,0.3-6.7,0.5-9.8,0.7c-3.6,0.3-7,0.5-10.3,0.7c-3.9,0.2-7.6,0.3-11.2,0.5c-3.9,0.1-7.8,0.3-11.5,0.4
		c-4.1,0.1-8.1,0.2-11.9,0.3c-4.1,0.1-8,0.1-11.9,0.1c-3.8,0-7.8-0.1-11.9-0.1c-3.8-0.1-7.8-0.1-11.9-0.3c-3.8-0.1-7.6-0.3-11.5-0.4
		c-3.6-0.2-7.4-0.3-11.2-0.5c-3.3-0.2-6.8-0.4-10.3-0.7c-3.2-0.2-6.4-0.5-9.9-0.7c-2.4-0.2-5-0.5-7.7-0.7l-3.4-0.3
		c0.1-8.1,0.1-16.7,0-25.5c9.3,1.1,19.4,1.9,29.9,2.6c19.1,1.2,39,1.7,56.2,1.7v-7.6c-17.4,0-37.2-0.5-56-1.7
		c-10.6-0.7-20.8-1.5-30.2-2.7c0-1.4-0.1-2.7-0.1-4.1c-0.1-6.3-0.3-12.5-0.5-18.7c9.5,1.1,19.9,2,30.6,2.7c19.1,1.2,39,1.7,56.2,1.7
		v-7.6c-17.4,0-37.2-0.5-56-1.7c-10.9-0.7-21.5-1.6-31.2-2.8c-0.2-4.3-0.4-8.6-0.6-12.7c-0.2-3.5-0.4-6.9-0.7-10.2
		c9.9,1.2,20.9,2.2,32.3,2.9c19.1,1.2,39,1.7,56.2,1.7v-7.6c-17.4,0-37.2-0.5-56-1.7c-11.7-0.7-23-1.7-33.2-3
		c-0.5-5.1-1-10-1.5-14.5c-0.4-3-0.8-5.9-1.2-8.6c10.7,1.4,23,2.5,35.7,3.3c19.1,1.2,39,1.7,56.2,1.7v-7.6c-17.4,0-37.2-0.5-56-1.7
		c-13.3-0.8-26.1-2-37.3-3.6c-0.5-2.3-0.9-4.4-1.5-6.3c-0.6-3.5-1.6-6.9-2.8-10.3c-0.8-2.1-1.8-4.2-2.8-6.3l3.2,0.5
		c4.9,0.7,10.1,1.3,15.5,1.7c10.4,1,22,1.7,34,2.2c13.3,0.6,26.8,0.9,39.3,1h0.1c12.5-0.1,26.1-0.4,39.4-1c11.9-0.5,23.5-1.3,34-2.2
		c5.5-0.5,10.8-1.1,15.8-1.8l3.4-0.5C344.6,1160,343.6,1162.1,342.8,1164.2z M343.1,1147.1c-4.9,0.7-10.2,1.3-15.8,1.8
		c-10.9,1.1-22.6,1.8-34.3,2.3c-13.5,0.6-27.2,0.9-39.8,1c-12.6-0.1-26.3-0.4-39.9-1c-11.7-0.5-23.4-1.3-34.2-2.3
		c-5.5-0.5-10.8-1.1-15.5-1.7c-1.2-0.2-2.3-0.3-3.4-0.5l-5.3-61.8c16.1,2.6,52,7.4,99.6,7.4c46.3,0,81.3-4.5,98.1-7.1l-4.9,56.8
		l0.1,0l-0.4,4.5C345.9,1146.7,344.6,1146.9,343.1,1147.1z M368.3,1057.7c-1.7,2.9-3.8,5.9-5.8,8.4l-2.6,0.5
		c-0.4,0.1-42.8,8.7-105.5,8.7c-62.3,0-105.1-8.6-105.5-8.7l-5-1c-1.9-2.4-3.8-5.2-5.4-7.9c-44.5-76-76.1-159.6-93.8-248.4
		c-6.9-34.8-11.7-70.4-14.4-106.6c31.4-4.1,127.7-15.7,223.1-15.7c111.1,0,194.8,11.1,223.1,15.5c-2.7,36.3-7.5,72-14.5,106.9
		C444.4,898.1,412.8,981.7,368.3,1057.7z"/>
	<path class="st0" d="M189.9,833.3c0-9.2-6.3-12.5-16.6-12.5c-4,0-8.8,0.3-12.2,0.7v32.9h10v-7.8h3.6
		C184,846.5,189.9,841.7,189.9,833.3z M172.7,840.6H171V827c0.6,0,1.1,0,1.7,0c4.9,0,7.3,2.3,7.3,6.5
		C180,837.7,177.9,840.6,172.7,840.6z"/>
	<rect x="272.5" y="821.4" class="st0" width="10" height="32.9"/>
	<path class="st0" d="M302.4,820.8c-4,0-8.8,0.3-12.2,0.7v32.9h10v-7.8h3.6c9.3,0,15.3-4.8,15.3-13.2
		C319,824.1,312.7,820.8,302.4,820.8z M301.8,840.6h-1.6V827c0.6,0,1.1,0,1.6,0c4.9,0,7.3,2.3,7.3,6.5
		C309.1,837.7,307.1,840.6,301.8,840.6z"/>
	<polygon class="st0" points="203.9,841.4 214.4,841.4 214.4,854.3 224.4,854.3 224.4,821.4 214.4,821.4 214.4,834.5 203.9,834.5 
		203.9,821.4 193.9,821.4 193.9,854.3 203.9,854.3 	"/>
	<polygon class="st0" points="269,847.7 259.3,847.7 259.3,821.4 249.3,821.4 249.3,854.3 267.4,854.3 	"/>
	<rect x="231.8" y="821.4" class="st0" width="10" height="32.9"/>
	<path class="st0" d="M332.1,829.8c0-1.8,1.8-2.6,4.7-2.6c3.2,0,6.6,0.7,8.9,1.7l-0.8-7.2c-2.6-0.6-5-1-9.2-1
		c-8.1,0-13.6,3.2-13.6,9.9c0,11.6,15.7,9.2,15.7,14.6c0,2.1-1.5,3.2-5.2,3.2c-3.3,0-8.4-1.1-11.4-2.6l1.1,7.6
		c3,1.1,7.1,1.7,10.5,1.7c8.4,0,15.3-2.8,15.3-11C347.9,833,332.1,835.1,332.1,829.8z"/>
	<polygon class="st0" points="194.3,901 197,901 197,875.3 194.3,875.3 194.3,886.5 180.3,886.5 180.3,875.3 177.6,875.3 177.6,901 
		180.3,901 180.3,888.9 194.3,888.9 	"/>
	<path class="st0" d="M215.6,893.3c0,0.6-0.2,1.2-0.5,1.8c-0.3,0.6-0.7,1.2-1.3,1.7c-0.5,0.5-1.2,0.9-1.9,1.3
		c-0.7,0.3-1.5,0.5-2.3,0.5c-0.5,0-1-0.1-1.4-0.2c-0.4-0.1-0.8-0.3-1.1-0.6c-0.3-0.3-0.5-0.6-0.7-1.1c-0.2-0.4-0.2-1-0.2-1.6v-12.9
		h-2.7v13.3c0,0.8,0.1,1.6,0.4,2.3c0.3,0.7,0.6,1.3,1.1,1.7c0.5,0.5,1.1,0.8,1.7,1.1c0.7,0.3,1.5,0.4,2.3,0.4c0.6,0,1.2-0.1,1.7-0.2
		c0.6-0.1,1.1-0.3,1.7-0.6c0.6-0.3,1.1-0.6,1.6-1c0.5-0.4,1-1,1.5-1.6v3.4h2.7v-18.8h-2.7V893.3z"/>
	<path class="st0" d="M237,884.5c-0.7-0.8-1.6-1.5-2.6-1.9c-1-0.5-2.1-0.7-3.4-0.7c-1.3,0-2.5,0.3-3.5,0.8c-1,0.5-1.9,1.2-2.7,2.1
		c-0.7,0.9-1.3,1.9-1.7,3c-0.4,1.1-0.6,2.3-0.6,3.6c0,1.3,0.2,2.6,0.6,3.8c0.4,1.2,1,2.3,1.7,3.2c0.7,0.9,1.6,1.7,2.7,2.2
		c1,0.6,2.2,0.8,3.5,0.8c0.9,0,1.8-0.1,2.6-0.4c0.9-0.3,1.6-0.7,2.3-1.2c0.7-0.5,1.3-1.2,1.8-1.9c0.5-0.8,0.8-1.6,1.1-2.6h-2.5
		c-0.9,2.5-2.6,3.7-5.3,3.7c-0.8,0-1.5-0.2-2.2-0.6c-0.7-0.4-1.3-0.9-1.8-1.6c-0.5-0.6-0.9-1.4-1.2-2.2c-0.3-0.8-0.4-1.7-0.5-2.5
		h13.8V891c0-1.3-0.2-2.5-0.6-3.6S237.7,885.3,237,884.5z M225.5,890c0-0.7,0.2-1.4,0.4-2.1c0.3-0.7,0.7-1.3,1.1-1.8
		c0.5-0.5,1-1,1.7-1.3c0.7-0.3,1.4-0.5,2.1-0.5c0.8,0,1.6,0.1,2.3,0.4c0.7,0.3,1.3,0.7,1.7,1.2c0.5,0.5,0.8,1.1,1.1,1.8
		c0.3,0.7,0.4,1.4,0.4,2.2H225.5z"/>
	<polygon class="st0" points="274.8,882.2 272,882.2 267.9,897.7 263.9,882.2 260.8,882.2 256.7,897.7 252.7,882.2 249.9,882.2 
		255.2,901 258.1,901 262.3,885.6 266.6,901 269.5,901 	"/>
	<path class="st0" d="M291.3,883.5c-0.5-0.5-1.2-0.9-1.9-1.2c-0.7-0.3-1.6-0.4-2.4-0.4c-0.6,0-1.2,0-1.7,0.1
		c-0.6,0.1-1.1,0.3-1.6,0.5c-0.5,0.2-1,0.5-1.4,0.9c-0.5,0.4-0.9,0.8-1.3,1.4v-9.7h-2.7V901h2.7v-11.6c0-0.7,0.2-1.4,0.5-2
		c0.3-0.6,0.7-1.2,1.3-1.6c0.5-0.5,1.1-0.8,1.7-1.1c0.6-0.3,1.3-0.4,1.9-0.4c0.5,0,1,0.1,1.5,0.2c0.5,0.1,0.9,0.3,1.3,0.6
		c0.4,0.3,0.7,0.7,0.9,1.1c0.2,0.5,0.3,1,0.3,1.6V901h2.7v-13.6c0-0.8-0.1-1.5-0.5-2.2C292.2,884.5,291.8,883.9,291.3,883.5z"/>
	<rect x="298.5" y="882.2" class="st0" width="2.7" height="18.8"/>
	<rect x="298.5" y="875.1" class="st0" width="2.7" height="3.2"/>
	<path class="st0" d="M312.4,899c-0.3,0-0.5,0-0.8-0.1c-0.2-0.1-0.5-0.2-0.6-0.3c-0.2-0.2-0.3-0.4-0.4-0.7c-0.1-0.3-0.2-0.6-0.2-1
		v-12.3h3.3v-2.3h-3.3V877h-2.7v5.2h-2.9v2.3h2.9v13.3c0,0.7,0.1,1.2,0.4,1.7c0.2,0.4,0.5,0.8,0.9,1.1c0.4,0.3,0.8,0.5,1.3,0.6
		c0.5,0.1,0.9,0.2,1.4,0.2c0.5,0,1.1,0,1.6-0.1c0.5-0.1,0.9-0.2,1.2-0.3v-2.2c-0.3,0.1-0.6,0.1-1,0.2C313.1,899,312.8,899,312.4,899
		z"/>
	<path class="st0" d="M331.4,884.5c-0.7-0.8-1.6-1.5-2.6-1.9c-1-0.5-2.1-0.7-3.4-0.7c-1.3,0-2.5,0.3-3.5,0.8c-1,0.5-1.9,1.2-2.7,2.1
		c-0.7,0.9-1.3,1.9-1.7,3c-0.4,1.1-0.6,2.3-0.6,3.6c0,1.3,0.2,2.6,0.6,3.8c0.4,1.2,1,2.3,1.7,3.2c0.7,0.9,1.6,1.7,2.7,2.2
		c1,0.6,2.2,0.8,3.5,0.8c0.9,0,1.8-0.1,2.6-0.4c0.8-0.3,1.6-0.7,2.3-1.2c0.7-0.5,1.3-1.2,1.8-1.9c0.5-0.8,0.8-1.6,1.1-2.6h-2.5
		c-0.9,2.5-2.6,3.7-5.3,3.7c-0.8,0-1.5-0.2-2.2-0.6c-0.7-0.4-1.3-0.9-1.8-1.6c-0.5-0.6-0.9-1.4-1.2-2.2c-0.3-0.8-0.4-1.7-0.5-2.5
		h13.8V891c0-1.3-0.2-2.5-0.6-3.6S332.1,885.3,331.4,884.5z M319.8,890c0-0.7,0.2-1.4,0.4-2.1c0.3-0.7,0.7-1.3,1.1-1.8s1-1,1.7-1.3
		c0.7-0.3,1.4-0.5,2.1-0.5c0.8,0,1.6,0.1,2.3,0.4c0.7,0.3,1.3,0.7,1.7,1.2c0.5,0.5,0.8,1.1,1.1,1.8c0.3,0.7,0.4,1.4,0.4,2.2H319.8z"
		/>
	<path class="st0" d="M197.7,944c-0.2-0.3-0.4-0.7-0.4-1.2v-9.7c0-1-0.2-1.8-0.6-2.6c-0.4-0.7-0.9-1.3-1.6-1.8
		c-0.7-0.5-1.4-0.8-2.3-1.1c-0.9-0.2-1.8-0.4-2.7-0.4c-0.9,0-1.8,0.1-2.6,0.4c-0.8,0.2-1.6,0.6-2.3,1.1c-0.7,0.5-1.2,1.1-1.6,1.8
		c-0.4,0.7-0.7,1.5-0.7,2.4h2.9c0.1-0.5,0.2-1,0.5-1.4c0.3-0.4,0.6-0.7,1-1c0.4-0.3,0.8-0.5,1.3-0.6c0.5-0.1,1-0.2,1.6-0.2
		c0.7,0,1.2,0.1,1.8,0.2c0.5,0.1,1,0.4,1.4,0.7c0.4,0.3,0.7,0.6,0.9,1.1c0.2,0.4,0.3,0.9,0.3,1.4c0,0.5-0.2,0.9-0.5,1.2
		c-0.3,0.3-0.8,0.6-1.4,0.8c-0.6,0.2-1.2,0.5-1.9,0.7c-0.7,0.2-1.5,0.4-2.2,0.6c-0.8,0.2-1.5,0.5-2.2,0.7c-0.7,0.3-1.4,0.6-1.9,1
		c-0.6,0.4-1,0.9-1.4,1.4c-0.3,0.6-0.5,1.2-0.5,2s0.1,1.5,0.4,2.1c0.3,0.6,0.7,1.2,1.2,1.6c0.5,0.5,1.1,0.8,1.7,1.1
		c0.7,0.2,1.4,0.4,2.1,0.4c0.6,0,1.2,0,1.7-0.1c0.6-0.1,1.1-0.3,1.7-0.5c0.6-0.3,1.1-0.6,1.7-1.1c0.6-0.5,1.2-1.1,1.7-1.8
		c0.1,1.2,0.4,2.1,0.9,2.7c0.5,0.6,1.2,0.9,1.9,0.9c0.2,0,0.4,0,0.7-0.1c0.3,0,0.5-0.1,0.7-0.2v-2.3c-0.1,0-0.3,0.1-0.5,0.1
		C198.3,944.4,198,944.3,197.7,944z M194.6,940.2c-0.8,1.4-1.8,2.5-2.9,3.2c-1.1,0.7-2.2,1-3.3,1c-0.4,0-0.8-0.1-1.2-0.2
		c-0.4-0.1-0.7-0.3-1-0.5c-0.3-0.2-0.5-0.5-0.7-0.9s-0.3-0.8-0.3-1.3c0-0.6,0.2-1.1,0.5-1.5c0.4-0.4,0.8-0.7,1.4-1
		c0.6-0.3,1.2-0.5,1.9-0.7c0.7-0.2,1.4-0.4,2.1-0.6c0.7-0.2,1.3-0.4,2-0.7c0.6-0.3,1.1-0.6,1.5-1V940.2z"/>
	<path class="st0" d="M216.3,928.8c-0.5-0.5-1.1-0.8-1.8-1.1c-0.7-0.3-1.5-0.4-2.3-0.4c-1.2,0-2.3,0.2-3.4,0.7
		c-1.1,0.5-2.1,1.3-3.1,2.4v-2.8h-2.7v18.8h2.7V935c0-0.7,0.2-1.3,0.5-2c0.3-0.6,0.7-1.2,1.3-1.7c0.5-0.5,1.2-0.9,1.9-1.2
		c0.7-0.3,1.5-0.4,2.3-0.4c0.5,0,1,0.1,1.4,0.2s0.8,0.3,1.1,0.6c0.3,0.3,0.5,0.6,0.7,1.1c0.2,0.4,0.2,1,0.2,1.6v13.3h2.7v-13.6
		c0-0.8-0.1-1.6-0.4-2.3C217.1,929.8,216.7,929.2,216.3,928.8z"/>
	<path class="st0" d="M234.9,930.3c-0.8-1.1-1.7-1.9-2.6-2.4c-0.9-0.4-1.8-0.7-2.7-0.7c-1.3,0-2.4,0.3-3.3,0.8
		c-1,0.5-1.8,1.2-2.4,2.1c-0.6,0.9-1.1,1.9-1.4,3.1c-0.3,1.2-0.5,2.4-0.5,3.8c0,1.3,0.2,2.6,0.5,3.8c0.3,1.2,0.8,2.2,1.5,3.1
		c0.6,0.9,1.5,1.6,2.4,2.1c1,0.5,2.1,0.8,3.3,0.8c1,0,1.9-0.3,2.8-0.8c0.9-0.5,1.7-1.3,2.3-2.4v2.8h2.7v-25.9h-2.7V930.3z
		 M234.9,937.2c0,1-0.1,1.9-0.3,2.8c-0.2,0.9-0.6,1.6-1,2.3c-0.4,0.7-1,1.2-1.6,1.5c-0.6,0.4-1.3,0.6-2.1,0.6
		c-0.8,0-1.5-0.2-2.2-0.6s-1.2-0.9-1.6-1.6c-0.4-0.7-0.8-1.5-1-2.3c-0.2-0.9-0.3-1.8-0.3-2.8s0.1-1.9,0.3-2.8c0.2-0.9,0.6-1.7,1-2.3
		c0.4-0.7,1-1.2,1.6-1.6c0.6-0.4,1.4-0.6,2.2-0.6c0.8,0,1.5,0.2,2.1,0.6c0.6,0.4,1.1,0.9,1.6,1.5c0.4,0.6,0.8,1.4,1,2.2
		c0.2,0.8,0.4,1.8,0.4,2.7V937.2z"/>
	<path class="st0" d="M262.6,941.6c-0.2,0.5-0.6,1-0.9,1.4c-0.4,0.4-0.8,0.7-1.3,1c-0.5,0.2-1.1,0.4-1.8,0.4c-0.8,0-1.6-0.2-2.2-0.7
		c-0.7-0.4-1.2-1-1.7-1.8c-0.5-0.7-0.8-1.6-1-2.5s-0.4-1.9-0.4-2.8c0-0.9,0.1-1.8,0.4-2.6c0.2-0.8,0.6-1.6,1-2.2
		c0.4-0.6,1-1.2,1.7-1.5c0.7-0.4,1.4-0.6,2.3-0.6c1.2,0,2.2,0.3,2.9,0.8c0.7,0.5,1.3,1.5,1.7,2.8h2.9c-0.2-0.9-0.5-1.7-0.8-2.4
		c-0.4-0.7-0.9-1.4-1.5-1.9c-0.6-0.5-1.3-1-2.2-1.3c-0.8-0.3-1.8-0.5-2.9-0.5c-1.2,0-2.4,0.2-3.4,0.7c-1,0.5-1.9,1.2-2.6,2
		c-0.7,0.8-1.3,1.8-1.6,3c-0.4,1.1-0.6,2.4-0.6,3.6c0,0.8,0.1,1.6,0.2,2.4c0.1,0.8,0.3,1.6,0.6,2.3c0.3,0.8,0.6,1.5,1.1,2.1
		c0.4,0.7,0.9,1.2,1.5,1.7c0.6,0.5,1.3,0.9,2,1.2c0.8,0.3,1.6,0.4,2.5,0.4c1.1,0,2.1-0.2,3-0.5c0.9-0.3,1.7-0.8,2.3-1.4
		c0.7-0.6,1.2-1.3,1.6-2.2c0.4-0.9,0.7-1.8,0.8-2.9h-3C263,940.5,262.8,941.1,262.6,941.6z"/>
	<path class="st0" d="M283.7,930.2c-0.7-0.9-1.6-1.6-2.7-2.1c-1-0.5-2.2-0.8-3.6-0.8c-1.3,0-2.5,0.3-3.6,0.8c-1,0.5-1.9,1.2-2.6,2.1
		c-0.7,0.9-1.2,1.9-1.6,3.1c-0.4,1.2-0.5,2.4-0.5,3.8c0,1.3,0.2,2.6,0.5,3.7c0.4,1.2,0.9,2.2,1.6,3.1c0.7,0.9,1.6,1.6,2.6,2.1
		s2.2,0.8,3.6,0.8c1.4,0,2.6-0.3,3.6-0.8c1-0.5,1.9-1.2,2.7-2.1c0.7-0.9,1.3-1.9,1.6-3.1c0.4-1.2,0.6-2.4,0.6-3.7
		c0-1.3-0.2-2.6-0.6-3.8C285,932.1,284.4,931.1,283.7,930.2z M282.8,939.9c-0.3,0.9-0.6,1.7-1.1,2.3c-0.5,0.7-1.1,1.2-1.8,1.6
		c-0.7,0.4-1.5,0.6-2.4,0.6s-1.7-0.2-2.4-0.6s-1.3-0.9-1.8-1.6c-0.5-0.7-0.8-1.4-1.1-2.3c-0.3-0.9-0.4-1.8-0.4-2.8s0.1-1.9,0.4-2.8
		c0.3-0.9,0.6-1.7,1.1-2.4c0.5-0.7,1.1-1.2,1.8-1.6c0.7-0.4,1.5-0.6,2.4-0.6s1.7,0.2,2.4,0.6c0.7,0.4,1.3,0.9,1.8,1.6
		c0.5,0.7,0.9,1.5,1.1,2.4c0.3,0.9,0.4,1.8,0.4,2.8S283,939,282.8,939.9z"/>
	<rect x="290.2" y="920.5" class="st0" width="2.7" height="25.9"/>
	<path class="st0" d="M311.8,930.2c-0.7-0.9-1.6-1.6-2.7-2.1c-1-0.5-2.2-0.8-3.6-0.8c-1.3,0-2.5,0.3-3.6,0.8c-1,0.5-1.9,1.2-2.6,2.1
		c-0.7,0.9-1.2,1.9-1.6,3.1c-0.4,1.2-0.5,2.4-0.5,3.8c0,1.3,0.2,2.6,0.5,3.7c0.4,1.2,0.9,2.2,1.6,3.1c0.7,0.9,1.6,1.6,2.6,2.1
		s2.2,0.8,3.6,0.8c1.4,0,2.6-0.3,3.6-0.8s1.9-1.2,2.7-2.1c0.7-0.9,1.3-1.9,1.6-3.1c0.4-1.2,0.6-2.4,0.6-3.7c0-1.3-0.2-2.6-0.6-3.8
		C313.1,932.1,312.5,931.1,311.8,930.2z M310.9,939.9c-0.3,0.9-0.6,1.7-1.1,2.3c-0.5,0.7-1.1,1.2-1.8,1.6c-0.7,0.4-1.5,0.6-2.4,0.6
		s-1.7-0.2-2.4-0.6c-0.7-0.4-1.3-0.9-1.8-1.6c-0.5-0.7-0.8-1.4-1.1-2.3c-0.3-0.9-0.4-1.8-0.4-2.8s0.1-1.9,0.4-2.8
		c0.3-0.9,0.6-1.7,1.1-2.4c0.5-0.7,1.1-1.2,1.8-1.6c0.7-0.4,1.5-0.6,2.4-0.6s1.7,0.2,2.4,0.6c0.7,0.4,1.3,0.9,1.8,1.6
		c0.5,0.7,0.9,1.5,1.1,2.4c0.3,0.9,0.4,1.8,0.4,2.8S311.2,939,310.9,939.9z"/>
	<path class="st0" d="M326.5,927.7c-0.2,0-0.3,0-0.5,0s-0.3,0-0.4,0c-1,0-2,0.3-2.7,0.8c-0.8,0.5-1.5,1.3-2,2.3l0.1-3.1h-2.7v18.8
		h2.7v-11.2c0-0.7,0.1-1.3,0.3-1.9c0.2-0.6,0.5-1.1,0.9-1.6c0.4-0.5,0.9-0.8,1.4-1.1c0.6-0.3,1.2-0.4,1.9-0.4c0.2,0,0.4,0,0.8,0.1
		c0.4,0.1,0.7,0.1,1,0.2v-2.8c-0.1,0-0.2-0.1-0.4-0.1C326.9,927.7,326.7,927.7,326.5,927.7z"/>
</g>
</svg>
