<?xml version="1.0" encoding="utf-8"?>
<!-- Generator: Adobe Illustrator 17.0.0, SVG Export Plug-In . SVG Version: 6.00 Build 0)  -->
<!DOCTYPE svg PUBLIC "-//W3C//DTD SVG 1.1//EN" "http://www.w3.org/Graphics/SVG/1.1/DTD/svg11.dtd">
<svg version="1.1" id="Layer_1" xmlns="http://www.w3.org/2000/svg" xmlns:xlink="http://www.w3.org/1999/xlink" x="0px" y="0px"
	 width="705.017px" height="641.932px" viewBox="0 0 705.017 641.932" enable-background="new 0 0 705.017 641.932"
	 xml:space="preserve">
<path fill-rule="evenodd" clip-rule="evenodd" d="M222.279,606.562c5.118,33.314,32.805,43.095,83.061,29.343
	c-13.914-3.138-27.588-7.073-40.97-11.749C249.965,619.123,235.913,613.235,222.279,606.562"/>
<path fill-rule="evenodd" clip-rule="evenodd" d="M397.371,502.481c41.612,17.949,81.781,29.525,118.232,34.486
	c35.706,4.86,67.976,3.445,94.704-4.508c25.606-7.619,46.113-21.248,59.643-41.117c13.441-19.687,18.899-43.887,17.277-70.884
	c-1.698-28.27-11.156-59.603-27.344-92.053c-16.375-32.825-39.63-66.905-69.074-100.392c-28.163-32.03-61.98-63.508-100.846-92.819
	c-39.167-29.538-80.056-54.124-120.325-73.133C328.14,42.472,287.307,28.806,249.705,21.75
	c-38.294-7.185-73.385-7.613-102.735-0.784c-27.958,6.505-50.683,19.599-65.95,39.712c-15.426,20.278-21.802,45.786-20.141,74.507
	c1.739,30.071,12.278,63.646,30.465,98.445c18.1,34.632,43.706,70.324,75.58,104.881c30.799,33.393,67.423,65.698,108.752,94.935
	h0.008C316.201,462.172,357.434,485.255,397.371,502.481 M515.038,541.169c-36.851-5.016-77.4-16.693-119.345-34.785
	c-40.18-17.331-81.677-40.564-122.467-69.483l0.003-0.004c-41.609-29.436-78.458-61.936-109.428-95.513
	c-32.109-34.813-57.93-70.816-76.211-105.795c-18.467-35.335-29.173-69.497-30.947-100.172
	c-1.718-29.711,4.933-56.169,21.005-77.298c15.904-20.953,39.455-34.565,68.358-41.29c29.922-6.962,65.607-6.543,104.479,0.75
	c37.957,7.122,79.14,20.9,120.964,40.643c40.533,19.134,81.677,43.872,121.072,73.582c39.108,29.493,73.136,61.168,101.477,93.401
	c29.691,33.767,53.152,68.158,69.688,101.305c16.435,32.945,26.042,64.836,27.776,93.698c1.677,27.927-4.012,53.025-18.008,73.524
	c-14.107,20.716-35.398,34.899-61.935,42.795C584.216,544.653,551.342,546.111,515.038,541.169z M221.934,603.247
	c27.704,13.686,57.125,24.098,87.73,30.654c111.328,23.848,241.901-3.332,358.926-109.594c-2.186,1.903-4.477,3.717-6.864,5.45
	c1.601-1.242,3.162-2.524,4.681-3.847l0.033-0.033l1.94-1.778c0.593-0.543,1.241-1.141,1.939-1.785l0.034-0.025
	c2.531-2.441,4.929-5.001,7.188-7.678c2.249-2.665,4.366-5.451,6.344-8.356c14.637-21.439,20.588-47.689,18.833-76.9
	c-1.814-30.197-11.867-63.565-29.065-98.039c-17.305-34.689-41.859-70.681-72.932-106.02
	c-29.661-33.734-65.275-66.885-106.205-97.752c-41.232-31.095-84.293-56.986-126.715-77.011
	C324.031,29.87,280.931,15.45,241.208,7.996c-40.675-7.632-78.014-8.071-109.321-0.786c-30.232,7.034-54.865,21.27-71.498,43.183
	c-3.047,4.006-5.76,8.172-8.145,12.487c-1.763,3.19-3.358,6.476-4.787,9.855C-67.629,279.336,40.614,513.677,221.934,603.247z
	 M267.546,443.285c42.417,30.072,85.583,54.238,127.392,72.271c43.565,18.791,85.621,30.911,123.786,36.106
	c31.044,4.225,59.604,3.923,84.42-1.064c24.068-4.837,44.614-14.087,60.474-27.894l0.001,0.002l1.906-1.73
	c0.682-0.625,1.312-1.204,1.892-1.741l-0.003-0.003c2.415-2.33,4.714-4.784,6.889-7.362c2.151-2.549,4.179-5.219,6.078-8.008
	c14.082-20.626,19.801-45.978,18.102-74.259c-1.779-29.606-11.682-62.416-28.633-96.394
	c-17.144-34.367-41.491-70.048-72.318-105.107c-29.484-33.532-64.886-66.486-105.574-97.171
	c-41.003-30.922-83.81-56.662-125.967-76.562c-43.446-20.509-86.196-34.816-125.564-42.203c-40.097-7.523-76.842-7.971-107.577-0.82
	c-29.287,6.814-53.094,20.532-69.089,41.605c-2.888,3.797-5.485,7.792-7.795,11.972c-2.33,4.215-4.349,8.589-6.062,13.108
	c-7.836,20.669-9.416,44.58-5.344,70.53c4.203,26.784,14.423,55.73,29.998,85.532c18.95,36.259,45.759,73.627,79.128,109.806
	c32.243,34.958,70.583,68.777,113.851,99.386H267.546z"/>
</svg>
