<?xml version="1.0" encoding="utf-8"?>
<!-- Generator: Adobe Illustrator 17.0.0, SVG Export Plug-In . SVG Version: 6.00 Build 0)  -->
<!DOCTYPE svg PUBLIC "-//W3C//DTD SVG 1.1//EN" "http://www.w3.org/Graphics/SVG/1.1/DTD/svg11.dtd">
<svg version="1.1" id="Layer_1" xmlns="http://www.w3.org/2000/svg" xmlns:xlink="http://www.w3.org/1999/xlink" x="0px" y="0px"
	 width="779.536px" height="793.081px" viewBox="0 0 779.536 793.081" enable-background="new 0 0 779.536 793.081"
	 xml:space="preserve">
<path fill="#050403" d="M95.471,113.316c-0.108,0.148-0.215,0.296-0.32,0.446c-0.162,0.229-0.321,0.46-0.478,0.693
	c-0.11,0.164-0.219,0.329-0.327,0.495c-1.185,1.825-2.233,3.8-3.144,5.916c-7.749,17.999-4.972,45.056,6.785,78.235l0.023,0.065
	c0.202,0.57,0.411,1.145,0.618,1.718c0.13,0.359,0.258,0.717,0.39,1.077c0.134,0.365,0.271,0.734,0.407,1.101
	c0.218,0.59,0.437,1.179,0.661,1.772l0.246,0.648c0.279,0.734,0.56,1.47,0.848,2.209l0.161,0.412
	c0.326,0.835,0.656,1.673,0.992,2.515l0.059,0.148c5.302,13.265,11.9,27.386,19.704,42.196c1.111,2.109,2.248,4.232,3.408,6.367
	l0.095,0.176c0.542,0.996,1.089,1.996,1.641,2.998l0.164,0.298c0.528,0.956,1.061,1.916,1.598,2.877l0.235,0.421
	c0.553,0.988,1.112,1.979,1.675,2.973l0.147,0.259c2.477,4.365,5.051,8.781,7.718,13.242l0.329,0.549
	c0.54,0.902,1.084,1.807,1.633,2.713l0.506,0.834c0.509,0.839,1.021,1.679,1.536,2.521l0.503,0.819
	c0.513,0.835,1.028,1.672,1.548,2.51l0.554,0.892c0.512,0.825,1.028,1.651,1.546,2.479l0.579,0.923
	c0.517,0.822,1.037,1.645,1.559,2.47l0.568,0.896c0.55,0.866,1.104,1.733,1.661,2.602l0.492,0.767
	c0.586,0.913,1.178,1.827,1.771,2.744l0.436,0.673c0.649,1,1.304,2.002,1.962,3.005l0.268,0.409
	c2.266,3.453,4.583,6.927,6.948,10.421l0.525,0.772c0.603,0.889,1.207,1.778,1.817,2.669l0.66,0.962
	c0.584,0.852,1.17,1.705,1.76,2.56l0.678,0.979c0.56,0.809,1.122,1.619,1.687,2.429l0.848,1.214
	c0.533,0.762,1.067,1.525,1.604,2.288l0.874,1.239c0.523,0.741,1.049,1.483,1.576,2.226l0.942,1.325
	c0.518,0.727,1.039,1.455,1.561,2.184l0.956,1.333c0.566,0.787,1.135,1.575,1.706,2.364l0.799,1.105
	c0.626,0.863,1.256,1.727,1.888,2.592l0.698,0.957c0.721,0.986,1.448,1.973,2.176,2.961l0.43,0.585
	c1.756,2.378,3.533,4.762,5.329,7.153l0.798,1.058c0.622,0.825,1.244,1.651,1.871,2.478l1.015,1.335
	c0.571,0.751,1.142,1.502,1.717,2.254l1.039,1.356c0.569,0.742,1.139,1.484,1.711,2.227l1.075,1.391
	c0.587,0.759,1.175,1.518,1.766,2.279l0.995,1.279c0.587,0.753,1.177,1.508,1.768,2.262l1.134,1.445
	c0.571,0.727,1.145,1.454,1.72,2.182l1.139,1.44c0.568,0.717,1.139,1.435,1.711,2.153c0.384,0.483,0.768,0.965,1.154,1.448
	c0.627,0.785,1.258,1.571,1.89,2.357l1.002,1.248c0.651,0.809,1.307,1.619,1.963,2.429l1.001,1.238
	c1.952,2.404,3.921,4.812,5.91,7.223c0.328,0.398,0.66,0.797,0.989,1.195c0.669,0.809,1.338,1.618,2.011,2.428
	c0.413,0.497,0.83,0.995,1.245,1.493c0.592,0.71,1.184,1.42,1.779,2.131c0.432,0.516,0.866,1.032,1.299,1.547
	c0.599,0.713,1.198,1.426,1.8,2.139l1.299,1.536c0.591,0.698,1.183,1.396,1.777,2.095l1.356,1.591
	c0.583,0.684,1.168,1.367,1.753,2.051l1.418,1.652c0.567,0.66,1.137,1.32,1.707,1.981l1.467,1.697
	c0.581,0.671,1.165,1.342,1.748,2.013c0.458,0.526,0.915,1.052,1.374,1.579c0.67,0.768,1.343,1.536,2.017,2.304l1.165,1.329
	c0.694,0.789,1.392,1.58,2.09,2.37l1.197,1.355c0.711,0.803,1.426,1.606,2.141,2.409c0.373,0.419,0.745,0.839,1.119,1.258
	c1.085,1.216,2.174,2.432,3.268,3.648l0.619,0.686c0.886,0.985,1.775,1.97,2.667,2.955c0.46,0.508,0.922,1.016,1.384,1.523
	c0.635,0.699,1.27,1.398,1.908,2.097c0.52,0.57,1.042,1.139,1.563,1.709c0.606,0.662,1.212,1.324,1.82,1.985
	c0.495,0.539,0.993,1.079,1.49,1.618c0.647,0.702,1.295,1.404,1.945,2.106l1.441,1.554c0.647,0.697,1.295,1.394,1.945,2.09
	l1.532,1.64c0.638,0.681,1.277,1.363,1.917,2.045l1.539,1.636c0.628,0.667,1.259,1.333,1.889,2l1.615,1.704
	c0.633,0.667,1.269,1.334,1.905,2.001l1.553,1.629c0.689,0.721,1.382,1.442,2.074,2.163l1.446,1.505
	c0.682,0.709,1.369,1.417,2.054,2.125l1.529,1.581c0.852,0.879,1.708,1.756,2.565,2.635c0.309,0.317,0.616,0.635,0.927,0.952
	l0.004-0.004l0.001,0.001l0.016,0.024l0,0.001c1.189,1.217,2.378,2.429,3.568,3.638l0.047,0.048c0.527,0.535,1.053,1.066,1.58,1.6
	c0.694,0.703,1.389,1.408,2.083,2.108c0.539,0.544,1.079,1.084,1.619,1.626c0.673,0.677,1.347,1.355,2.021,2.029
	c0.571,0.572,1.143,1.141,1.714,1.711c0.646,0.644,1.291,1.289,1.936,1.93c0.605,0.602,1.212,1.201,1.818,1.8
	c0.605,0.599,1.21,1.198,1.814,1.795c0.616,0.608,1.232,1.212,1.848,1.818c0.601,0.591,1.202,1.182,1.803,1.771
	c0.641,0.627,1.281,1.251,1.922,1.876c0.57,0.556,1.141,1.113,1.711,1.667c0.638,0.62,1.277,1.238,1.916,1.857
	c0.582,0.563,1.164,1.127,1.745,1.688c0.662,0.639,1.324,1.275,1.986,1.911l1.623,1.558c0.652,0.624,1.303,1.246,1.955,1.868
	c0.591,0.563,1.181,1.127,1.772,1.688c0.635,0.604,1.27,1.205,1.905,1.806l1.661,1.57c0.688,0.649,1.376,1.297,2.064,1.943
	l1.589,1.491c0.674,0.631,1.349,1.261,2.022,1.89l1.598,1.487c0.702,0.653,1.405,1.305,2.107,1.954l1.529,1.413
	c0.699,0.645,1.398,1.289,2.096,1.93l1.503,1.378c0.715,0.655,1.431,1.309,2.146,1.961l1.516,1.379
	c0.717,0.652,1.435,1.304,2.152,1.952l1.388,1.253c0.753,0.679,1.505,1.357,2.257,2.033l1.339,1.199
	c0.767,0.686,1.534,1.373,2.3,2.056c0.437,0.389,0.873,0.776,1.31,1.164c0.769,0.684,1.538,1.367,2.307,2.046
	c0.396,0.35,0.792,0.698,1.188,1.047c0.833,0.735,1.666,1.469,2.499,2.2l0.841,0.735c0.92,0.806,1.84,1.61,2.759,2.411l0.691,0.599
	c8.056,7.003,16.081,13.797,24.055,20.37l0.118,0.098c1.072,0.883,2.143,1.762,3.213,2.637l0.346,0.284
	c1.042,0.852,2.083,1.699,3.123,2.543l0.414,0.336c0.998,0.809,1.995,1.614,2.992,2.416l0.568,0.458
	c0.969,0.779,1.938,1.554,2.906,2.327l0.629,0.503c0.942,0.752,1.884,1.498,2.825,2.243l0.724,0.574
	c0.93,0.735,1.86,1.466,2.788,2.195l0.705,0.553c0.947,0.742,1.892,1.48,2.837,2.215l0.636,0.495
	c0.961,0.746,1.92,1.489,2.879,2.229l0.583,0.45c0.963,0.741,1.924,1.48,2.885,2.214l0.622,0.475
	c0.948,0.724,1.895,1.445,2.842,2.162l0.617,0.468c0.951,0.72,1.902,1.437,2.851,2.15l0.575,0.432
	c0.998,0.749,1.995,1.494,2.991,2.235l0.272,0.202c1.055,0.785,2.109,1.566,3.161,2.342l0.252,0.186
	c1.069,0.788,2.137,1.572,3.203,2.351l0.093,0.068c16.952,12.383,33.494,23.606,49.445,33.566l0.044,0.027
	c1.01,0.63,2.017,1.255,3.022,1.875l0.23,0.142c0.998,0.615,1.994,1.226,2.987,1.831l0.171,0.105c0.985,0.6,1.967,1.194,2.947,1.784
	l0.251,0.151c0.956,0.575,1.91,1.145,2.862,1.711l0.315,0.187c0.955,0.567,1.908,1.129,2.858,1.686l0.24,0.141
	c0.946,0.554,1.89,1.103,2.83,1.648l0.347,0.2c0.894,0.517,1.785,1.028,2.675,1.536l0.518,0.295
	c0.854,0.486,1.707,0.969,2.557,1.448l0.557,0.313c0.808,0.453,1.614,0.904,2.418,1.35l0.832,0.46
	c0.721,0.398,1.442,0.795,2.16,1.188l1.023,0.556c0.659,0.358,1.316,0.715,1.972,1.068c0.406,0.219,0.811,0.434,1.215,0.651
	c0.578,0.31,1.156,0.619,1.732,0.924c0.529,0.28,1.056,0.557,1.583,0.834c0.453,0.238,0.906,0.477,1.358,0.712
	c0.689,0.359,1.375,0.714,2.061,1.068l0.841,0.434c0.841,0.432,1.68,0.858,2.516,1.28l0.437,0.222
	c0.98,0.494,1.956,0.982,2.928,1.464l0.004,0.002c7.962,3.943,15.681,7.472,23.126,10.568l0.175,0.072
	c0.856,0.355,1.709,0.706,2.557,1.05l0.405,0.163c0.773,0.312,1.543,0.62,2.31,0.923l0.55,0.215
	c0.704,0.276,1.405,0.549,2.104,0.817c0.265,0.102,0.528,0.2,0.792,0.301c0.61,0.232,1.22,0.463,1.826,0.689
	c0.334,0.124,0.666,0.246,0.998,0.368c0.534,0.196,1.068,0.392,1.599,0.584c0.391,0.141,0.78,0.279,1.17,0.417
	c0.46,0.164,0.92,0.327,1.377,0.487c0.44,0.154,0.878,0.304,1.315,0.454c0.414,0.142,0.829,0.284,1.241,0.423
	c0.474,0.16,0.945,0.316,1.416,0.472c0.355,0.117,0.71,0.234,1.063,0.35c0.516,0.168,1.03,0.333,1.543,0.495
	c0.317,0.101,0.633,0.201,0.948,0.3c0.543,0.17,1.083,0.336,1.622,0.5l0.794,0.24c0.603,0.181,1.204,0.359,1.803,0.532l0.539,0.156
	c0.667,0.192,1.331,0.379,1.992,0.562l0.342,0.094c0.711,0.195,1.418,0.385,2.122,0.57l0.19,0.05
	c0.746,0.195,1.488,0.384,2.225,0.567l0.06,0.015c24.133,5.971,43.691,5.455,57.051-2.449l0.116-0.069
	c0.369-0.22,0.732-0.446,1.091-0.677c0.235-0.152,0.47-0.304,0.701-0.46l0.306-0.21c0.335-0.232,0.665-0.469,0.99-0.712l0.237-0.179
	c1.182-0.894,2.304-1.857,3.364-2.894v0c0.355-0.347,0.701-0.701,1.041-1.062l0.068-0.073c0.302-0.323,0.597-0.653,0.887-0.988
	l0.199-0.232c20.476-24.028,9.596-76.118-24.98-141.728c-36.116-68.531-98.075-151.465-177.317-232.558l-0.004,0.004l-0.001-0.001
	l-0.017-0.025c-79.251-81.098-160.739-144.958-228.422-182.644c-66.999-37.305-120.135-48.95-143.528-26.09
	c-0.354,0.345-0.698,0.698-1.036,1.057l-0.068,0.072c-0.315,0.337-0.624,0.681-0.925,1.03l-0.137,0.16
	c-0.272,0.318-0.537,0.641-0.798,0.969l-0.211,0.268C95.91,112.724,95.689,113.018,95.471,113.316 M474.3,314.657
	c79.538,81.393,141.757,164.688,178.052,233.56c35.294,66.972,46.082,120.62,24.623,146.241l0.003,0.003
	c-0.317,0.424-0.499,0.665-0.562,0.747c-0.083,0.108-0.277,0.357-0.574,0.737c-2.312,2.948-4.733,5.627-7.26,8.035
	c-2.546,2.425-5.205,4.584-7.976,6.476l-0.007-0.009c-26.748,21.454-81.693,7.919-148.496-29.855
	c-68.364-38.657-149.468-102.725-225.451-180.48c-74.168-75.898-131.738-150.012-168.266-213.225
	C80.971,222.138,65.581,168.607,76.927,135.98l-0.003-0.001c1.519-5.077,4.033-10.298,7.14-15.205
	c3.246-5.128,7.146-9.925,11.237-13.865c0.343-0.363,0.694-0.719,1.052-1.069c24.895-24.328,79.839-12.83,148.544,25.425
	c68.015,37.871,149.849,101.987,229.382,183.37l0.004-0.004l0.001,0.001L474.3,314.657z"/>
<path fill="#050403" d="M478.55,571.558c0.27,0.113,0.539,0.224,0.807,0.335l0.436,0.18c0.389,0.159,0.777,0.316,1.163,0.469
	l0.027,0.011c16.684,6.638,29.682,8.116,37.321,3.431l0.328-0.201c0.747-0.493,1.441-1.048,2.076-1.668
	c10.626-10.385,3.653-37.175-16.213-72.094c-20.28-35.647-54.003-79.37-96.362-122.716l-0.033-0.033l-0.004-0.004l0-0.001
	c-42.344-43.326-85.261-78.032-120.421-99.121c-34.451-20.664-61.076-28.25-71.707-17.861c-0.153,0.15-0.302,0.304-0.448,0.461
	l-0.078,0.084c-0.105,0.114-0.207,0.232-0.308,0.35c-0.452,0.533-0.869,1.111-1.251,1.732c-0.524,0.852-0.967,1.761-1.33,2.724
	c-3.42,9.062-0.766,23.513,6.962,41.604l0.13,0.303l0.29,0.67c0.148,0.341,0.297,0.682,0.449,1.025l0.03,0.068
	c3.176,7.174,7.119,14.901,11.767,23.072c13.94,24.504,34.232,52.822,59.315,82.212l0.049,0.058c0.537,0.629,1.077,1.26,1.619,1.89
	l0.166,0.193c0.524,0.609,1.049,1.218,1.577,1.828l0.126,0.145c0.5,0.577,1.002,1.155,1.506,1.733l0.347,0.398
	c0.436,0.5,0.874,1.001,1.312,1.501l0.461,0.526c0.482,0.548,0.964,1.096,1.449,1.646l0.192,0.217
	c0.523,0.591,1.048,1.184,1.574,1.776l0.223,0.25c0.561,0.63,1.123,1.26,1.688,1.891l0.065,0.073
	c1.796,2.005,3.614,4.014,5.451,6.024l0.253,0.277c0.501,0.548,1.003,1.095,1.507,1.643l0.623,0.676l1.162,1.259l0.68,0.733
	l1.176,1.265l0.653,0.7l1.162,1.242l0.734,0.781l1.118,1.187l0.72,0.762l1.108,1.169l0.798,0.84l1.164,1.218l0.671,0.702l1.23,1.28
	l0.663,0.689c0.479,0.496,0.959,0.992,1.44,1.488l0.457,0.472c0.638,0.657,1.278,1.314,1.92,1.971
	c0.635,0.65,1.271,1.299,1.907,1.945l0.078,0.08c0.61,0.62,1.22,1.237,1.829,1.854l0.061,0.061l0.911,0.918l1.054,1.06l0.881,0.882
	l1.06,1.06l0.815,0.81l1.189,1.181l0.703,0.694c0.41,0.406,0.821,0.811,1.232,1.215l0.773,0.759l1.177,1.154l0.875,0.853
	l1.006,0.979l1.019,0.987l0.931,0.9l0.982,0.945l1.019,0.978l0.866,0.829l1.049,1.001l0.976,0.928l0.966,0.916l0.917,0.866
	l1.069,1.007l0.875,0.821l1.148,1.074l0.701,0.654l1.288,1.196l0.676,0.626l1.221,1.126l0.779,0.716l1.107,1.014l0.811,0.741
	l1.337,1.217l0.53,0.481c0.499,0.452,0.997,0.902,1.496,1.351l0.448,0.404c0.479,0.431,0.958,0.86,1.436,1.289l0.53,0.475
	c0.572,0.512,1.144,1.021,1.716,1.529l0.161,0.143c3.909,3.47,7.799,6.851,11.663,10.139l0.151,0.128
	c0.584,0.496,1.167,0.991,1.75,1.483l0.268,0.226c0.571,0.481,1.141,0.962,1.71,1.439l0.039,0.032
	c0.615,0.516,1.23,1.028,1.843,1.539l0.237,0.197c0.532,0.443,1.064,0.884,1.596,1.323l0.459,0.378
	c0.503,0.415,1.007,0.829,1.509,1.241l0.282,0.231c0.536,0.439,1.072,0.876,1.606,1.311l0.304,0.247
	c0.533,0.433,1.066,0.864,1.597,1.294l0.297,0.239c0.549,0.443,1.097,0.883,1.644,1.321l0.182,0.145
	c0.559,0.447,1.117,0.893,1.675,1.336l0.244,0.194c0.55,0.437,1.1,0.872,1.649,1.304l0.215,0.17c0.59,0.465,1.181,0.928,1.769,1.388
	l0.025,0.02c0.585,0.457,1.169,0.911,1.752,1.364l0.19,0.147c0.596,0.462,1.19,0.921,1.784,1.377l0.015,0.012
	c14.93,11.478,29.207,21.302,42.395,29.212c10.195,6.115,19.704,11.085,28.317,14.782l0.416,0.177
	C478.005,571.328,478.278,571.444,478.55,571.558 M411.204,376.381c42.593,43.591,76.533,87.611,96.977,123.546
	c20.863,36.673,27.672,65.313,15.482,77.226c-0.833,0.814-1.745,1.534-2.727,2.168l-0.061,0.092l-0.335,0.228
	c-5.474,3.725-12.214,5.743-20.218,6.052c-7.814,0.302-16.854-1.035-27.118-4.01l-0.133-0.038l-0.05-0.02
	c-20.078-7.856-44.847-22.656-71.736-42.881c-25.885-19.471-53.751-43.979-81.294-72.164
	c-35.924-36.762-65.578-73.922-86.064-106.306c-21.073-33.312-32.493-61.724-31.155-79.68h0.001
	c0.046-4.108,0.89-7.911,2.532-11.409c1.66-3.539,4.115-6.737,7.364-9.595l0.012-0.01c0.109-0.113,0.216-0.227,0.329-0.336
	c3.129-3.059,6.707-4.049,10.731-5.173c14.794-2.603,38.148,5.665,66.109,22.436c35.464,21.272,78.706,56.231,121.317,99.836
	l0.034,0.033L411.204,376.381L411.204,376.381z"/>
<path fill="#050403" d="M465.749,481.516c-15.889-26.165-41.648-58.652-73.511-91.26l-0.004,0.004l-0.001-0.001l-0.016-0.025
	c-31.866-32.609-63.757-59.115-89.556-75.607c-25.057-16.019-43.955-22.605-50.753-15.963c-6.793,6.638-0.642,25.68,14.794,51.1
	c15.888,26.164,41.647,58.65,73.509,91.259l0.004-0.004l0.003,0.003l0.001,0.001l0.016,0.025
	c31.866,32.609,63.757,59.115,89.556,75.607c25.058,16.018,43.956,22.605,50.753,15.962
	C487.337,525.978,481.185,506.936,465.749,481.516 M395.256,387.278c32.079,32.827,58.053,65.599,74.113,92.045
	c16.516,27.197,22.531,48.124,14.131,56.332c-8.396,8.205-29.176,1.707-55.985-15.43c-26.062-16.66-58.22-43.377-90.299-76.201
	l-0.004,0.004l-0.001-0.001l-0.003-0.003L337.192,444c-32.079-32.827-58.052-65.598-74.111-92.044
	c-16.515-27.196-22.53-48.122-14.13-56.331c8.396-8.204,29.176-1.707,55.985,15.431c26.061,16.66,58.22,43.377,90.299,76.201
	l0.004-0.004l0.001,0.001L395.256,387.278z"/>
<path fill="#050403" d="M542.46,514.444c-23.275-45.383-63.688-100.076-115.721-153.323
	c-52.015-53.228-105.765-94.887-150.616-119.21c-44.167-23.953-79.371-31.063-95.141-15.652
	c-15.769,15.41-9.473,50.768,13.456,95.476c23.272,45.376,63.677,100.062,115.701,153.302l0.004-0.004l0.001,0.001l0.017,0.025
	c52.015,53.228,105.764,94.887,150.615,119.21c44.167,23.953,79.371,31.062,95.14,15.652
	C571.686,594.51,565.389,559.151,542.46,514.444 M429.778,358.165c52.317,53.537,92.989,108.603,116.452,154.353
	c23.809,46.424,29.904,83.573,12.642,100.442c-17.262,16.868-54.26,9.919-100.123-14.954
	c-45.174-24.499-99.279-66.424-151.608-119.969l-0.004,0.004l-0.001-0.001l-0.017-0.025
	c-52.317-53.537-92.989-108.603-116.452-154.353c-23.809-46.424-29.904-83.573-12.643-100.442
	c17.261-16.868,54.26-9.918,100.124,14.954C323.329,262.675,377.443,304.609,429.778,358.165z"/>
<path fill="#050403" d="M522.668,578.053c-5.483,4.47-12.41,6.991-20.78,7.562c-8.162,0.556-17.724-0.754-28.683-3.93l1.179-4.07
	c10.464,3.033,19.539,4.288,27.222,3.764c7.475-0.51,13.605-2.715,18.389-6.615L522.668,578.053z"/>
<path fill-rule="evenodd" clip-rule="evenodd" fill="#050403" d="M733.201,583.49c-46.746-87.92-126.577-194.406-228.413-298.616
	l-0.033-0.05l-0.001-0.001l-0.002-0.002l-0.008,0.008C402.918,180.636,298.31,98.383,211.494,49.626
	C123.278,0.083,52.726-14.936,20.748,16.313c-4.534,4.431-8.155,9.659-10.898,15.623l-0.006-0.004
	C4.78,39.967,2.173,50.446,0.95,60.84c-2.341,19.887,0.369,39.83,0.483,40.472c0.897,5.016,5.223,29.026,9.455,52.52
	c24.325,135.027,43.355,240.662,49.04,336.428c1.432,24.118,1.864,63.551,2.122,87.173l0.052,4.755
	c-1.156,29.885,0.367,52.281,4.9,69.802c4.645,17.957,12.411,30.801,23.63,41.222c10.186,10.351,24.648,16.312,39.423,19.655
	c27.728,6.274,56.748,3.348,59.294,3.049c42.126-4.949,80.992-6.34,118.487-3.371c37.434,2.964,73.519,10.275,110.144,22.734
	l0.332,0.1c64.886,16.324,120.526,29.233,166.919,38.724c46.349,9.483,83.348,15.517,110.993,18.102
	c0.466,0.043-0.02,0.004,0.456,0.054c4.612,0.494,31.249,3.347,46.607-5.586c7.247-2.688,13.55-6.567,18.806-11.702
	C794.081,743.71,780.698,672.824,733.201,583.49z M586.924,765.798c-45.994-9.41-101.463-22.284-166.405-38.621
	c-9.071-3.082-18.109-5.853-27.141-8.326h0l-0.099-0.048l-0.099-0.048l-0.034-0.016l-0.066-0.032l-0.1-0.048l-0.103-0.05
	l-0.098-0.048l-0.101-0.049l-0.071-0.034l-0.03-0.015l-0.102-0.049l-0.102-0.05l-0.039-0.019l-0.063-0.031l-0.103-0.05l-0.103-0.05
	l-0.007-0.003l-0.097-0.047l-0.104-0.051l-0.078-0.038l-0.026-0.013l-0.105-0.051l-0.105-0.051l-0.045-0.022l-0.06-0.029
	l-0.105-0.052l-0.106-0.052l-0.012-0.006l-0.095-0.047l-0.107-0.052l-0.085-0.042l-0.023-0.011l-0.108-0.053l-0.108-0.053
	l-0.051-0.025l-0.058-0.028l-0.109-0.053l-0.109-0.054l-0.016-0.008l-0.093-0.046l-0.11-0.054l-0.092-0.045l-0.019-0.009
	l-0.111-0.055l-0.111-0.055l-0.057-0.028l-0.054-0.027l-0.112-0.056l-0.113-0.056l-0.022-0.011l-0.091-0.045l-0.114-0.056
	l-0.099-0.049l-0.015-0.007l-0.115-0.057l-0.115-0.057l-0.064-0.031l-0.052-0.026l-0.116-0.057l-0.117-0.058l-0.028-0.014
	l-0.09-0.044l-0.117-0.058l-0.108-0.054l-0.01-0.005l-0.119-0.059l-0.119-0.059l-0.071-0.036l-0.049-0.024l-0.12-0.059l-0.12-0.06
	l-0.033-0.017l-0.088-0.043l-0.121-0.06l-0.117-0.058l-0.005-0.003l-0.122-0.061l-0.123-0.061l-0.079-0.039l-0.045-0.022
	l-0.124-0.062l-0.125-0.062l-0.04-0.02l-0.085-0.042l-0.126-0.063l-0.126-0.063c-67.32-33.405-133.064-87.279-189.016-147.126
	c-63.415-67.83-114.211-143.279-140.448-205.278l-0.004-0.009l-0.004-0.009l-0.004-0.009l-0.004-0.01l-0.004-0.01l-0.004-0.01
	l-0.004-0.01l-0.005-0.01l-0.005-0.01l-0.005-0.01v0l-0.005-0.01v0l-0.005-0.01l-0.005-0.01v0l-0.005-0.011l-0.005-0.011v0
	l-0.005-0.011l-0.005-0.011v0l-0.005-0.011v0l-0.005-0.011v0l-0.005-0.011v0l-0.005-0.012l-0.005-0.012h0l-0.005-0.012v0
	l-0.006-0.012v0l-0.006-0.012v0l-0.006-0.012l0,0l-0.006-0.012v0l-0.006-0.013v0l-0.006-0.013l-0.006-0.013l0,0l-0.006-0.013
	l-0.006-0.013v0l-0.006-0.013v0l-0.006-0.013l0,0l-0.006-0.013l0,0l-0.006-0.014l0,0l-0.006-0.014l0,0l-0.007-0.014l-0.007-0.014
	l-0.007-0.014l-0.007-0.014l-0.007-0.015l0,0l-0.007-0.015h0l-0.007-0.015l0,0l-0.007-0.015l0,0l-0.007-0.015l-0.007-0.015
	l-0.007-0.016l-0.007-0.016h0l-0.007-0.016l-0.008-0.016l-0.008-0.016l-0.008-0.016l-0.008-0.016l-0.008-0.016h0l-0.008-0.017
	l-0.008-0.017v0l-0.008-0.017l-0.008-0.017v0l-0.008-0.017v0l-0.008-0.017l-0.009-0.018l-0.008-0.018v0l-0.008-0.017v0l-0.024-0.049
	l-0.024-0.051l-0.015-0.032l-0.01-0.02l-0.026-0.053l-0.026-0.055l-0.006-0.013l-0.02-0.043l-0.027-0.057l-0.023-0.05l-0.004-0.009
	l-0.028-0.06l-0.029-0.061l-0.014-0.029l-0.016-0.033l-0.03-0.063l-0.03-0.064l-0.003-0.006l-0.029-0.06l-0.031-0.067l-0.022-0.048
	l-0.01-0.02l-0.032-0.069l-0.033-0.071l-0.01-0.023l-0.023-0.049l-0.034-0.073l-0.032-0.07l-0.002-0.005l-0.035-0.076l-0.035-0.077
	l-0.02-0.043l-0.016-0.035l-0.036-0.079l-0.037-0.081l-0.006-0.014l-0.031-0.068l-0.038-0.083l-0.03-0.067l-0.008-0.018
	l-0.038-0.085l-0.039-0.086l-0.016-0.036l-0.023-0.052l-0.04-0.089l-0.04-0.09l-0.001-0.003l-0.039-0.089l-0.067-0.153l-0.015-0.033
	l-0.084-0.191l-0.011-0.026l-0.031-0.071l-0.081-0.186l-0.005-0.011l-0.043-0.101l-0.044-0.102l-0.022-0.052l-0.111-0.261
	l-0.005-0.013l-0.085-0.202l-0.034-0.081l-0.012-0.028c-0.213-0.512-0.436-1.063-0.665-1.651
	c-8.925-61.045-20.971-127.909-34.699-204.111c-1.144-6.351-2.315-12.855-4.273-23.768c7.843,24.07,19.523,50.706,34.687,79.225
	c46.745,87.92,126.577,194.406,228.414,298.617c101.839,104.213,206.463,186.482,293.291,235.246
	c26.789,15.045,51.945,26.899,74.891,35.248C628.583,773.978,608.813,770.276,586.924,765.798z M756.178,768.891
	c-28.953,28.294-95.881,12.984-180.682-34.641c-86.189-48.405-190.121-130.147-291.364-233.751
	C182.886,396.891,103.557,291.097,57.147,203.808C17.867,129.93,2.19,69.832,17.004,36.474l0.015-0.024l-0.003-0.002
	c2.404-5.406,5.608-10.111,9.645-14.056c28.953-28.294,95.88-12.984,180.681,34.641c86.188,48.405,190.12,130.146,291.364,233.75
	l0.033,0.05l0.002,0.002l0.001,0.001l0.008-0.008c101.227,103.593,180.54,209.37,226.944,296.647
	C771.351,673.351,785.12,740.608,756.178,768.891z"/>
</svg>
