<?xml version="1.0" encoding="utf-8"?>
<!-- Generator: Adobe Illustrator 19.0.0, SVG Export Plug-In . SVG Version: 6.00 Build 0)  -->
<svg version="1.1" id="Layer_1" xmlns="http://www.w3.org/2000/svg" xmlns:xlink="http://www.w3.org/1999/xlink" x="0px" y="0px"
	 viewBox="-262 360.5 85.4 73.5" style="enable-background:new -262 360.5 85.4 73.5;" xml:space="preserve">
<style type="text/css">
	.st0{fill:none;stroke:#010101;stroke-miterlimit:10;}
</style>
<g id="Layer_2">
	<g>
		<path class="st0" d="M-219.4,414.8c8.3,8.9,24.9,20.4,37.4,13.4c8.9-5,3.9-20.4-1.2-27.2c-6.9-9.3-12.1-13.2-15.1-15
			c-0.5-0.4-1.4-0.9-0.3-0.9s6.3,0.6,6.3-5.3c0-5.9-7-13.8-14.1-17.2c-7.1-3.3-12.9-1.2-11.8,4.5c1.1,5.7,6.1,10.6,8.4,12.5
			c0.5,0.4,1,1.1-0.2,0.7c-1.3-0.4-7.5-1.8-11.8-0.4c-4.3,1.4-5.8,3.8-6.3,4.5c0,0.3-0.5,0.8-0.9-0.3c-0.4-1.1-2.9-8.6-12.2-14
			c-5.6-3.1-13.8-5.5-18.6-0.9c-4.8,4.6,1.7,15.1,5.8,18.3c4.1,3.2,13.8,10.4,22.3,5.9c0.5-0.2,1.4-1.2,1.6,0.5
			C-229.9,395.6-228.9,404.4-219.4,414.8z"/>
		<path class="st0" d="M-232.4,393.7c-0.3,4-2.3,17,11.6,30.3c13.9,13.3,33.7,11.1,40.6,2.8"/>
		<path class="st0" d="M-226.3,417.8c-1.6,1.4-5.6,5.5-6,5.9c-0.4,0.4-2.8,2.1-0.7,3.4c2.1,1.3,5.5,2.8,12.7,2.7
			c1.5,0,4.4-0.3,6-0.8"/>
		<path class="st0" d="M-232.4,423.7c1,1.2,3.4,4.3,15.3,3.4"/>
		<path class="st0" d="M-221.9,381.7c-4.8,1.7-14.9,14,7.3,36.1c6.6,5.8,22.7,15.9,32.4,8c9.7-7.9-2.6-24.9-4.6-27.4
			c-1-1.3-5.7-7.3-12.8-11.8C-206.4,382.1-215.8,379.4-221.9,381.7z"/>
		<path class="st0" d="M-219.1,387.4c-3.9,1.4-12,11.3,5.8,29c5.3,4.6,18.2,12.8,26,6.4c7.8-6.4-2.1-20-3.7-22
			c-0.8-1-4.6-5.8-10.3-9.5C-206.6,387.8-214.2,385.6-219.1,387.4z"/>
		<path class="st0" d="M-254.7,369.2c-3.2,1-8.9,6.5,3.7,18c3.6,2.9,12.3,7.9,17.6,4c5.3-4-0.8-12.4-1.9-13.6
			c-0.6-0.6-3.6-3.7-7.5-6C-246.5,369.4-251.4,368.1-254.7,369.2z"/>
		<path class="st0" d="M-213.4,363.3c-3,0.7-5.5,5.5,3.7,14.4c2.6,2.2,10,7.2,13.8,4.2c3.8-3.1-1.4-10-2.3-10.9
			c-0.7-0.8-3-3.3-5.8-5.1C-206.7,364.1-211,362.4-213.4,363.3z"/>
	</g>
</g>
</svg>
