<svg xmlns="http://www.w3.org/2000/svg" width="913" height="836" viewBox="0 0 913 836">
  <g fill="none" fill-rule="evenodd">
    <path fill="#050403" d="M904.9229,462.617 C904.5439,471.567 902.6439,479.546 899.2749,486.33 C898.5029,487.885 897.6399,489.402 896.7109,490.842 L896.4479,491.315 C861.8999,565.085 818.3939,626.684 763.4449,679.631 C719.8289,721.658 670.3179,757.1 607.6289,791.169 C551.6649,821.582 478.2359,833.981 406.1669,825.186 C335.7809,816.597 271.1829,788.443 219.3579,743.767 C213.5579,738.767 207.7109,733.529 201.9759,728.195 L201.8499,728.082 C197.9739,724.772 196.1499,722.938 192.5149,719.285 C191.6569,718.423 190.6999,717.461 189.5749,716.338 C185.6409,712.468 181.8219,708.596 178.2239,704.831 C135.1239,659.72 108.0589,612.055 95.4819,559.113 C85.0499,515.199 84.0639,467.782 92.2839,405.368 C99.9279,347.331 122.0989,286.315 158.1809,224.017 C194.0479,162.09 313.5929,24.564 320.1309,19.565 C328.3269,14.032 338.9189,10.431 351.6089,8.863 C356.3069,8.288 361.3489,7.999 366.6439,7.999 C367.9559,7.999 369.2849,8.017 370.6269,8.053 C377.3939,8.232 384.6169,8.869 392.0939,9.947 C399.5539,11.022 407.5209,12.573 415.7749,14.556 C424.0249,16.539 432.6819,18.986 441.5049,21.827 C449.8849,24.525 458.5979,27.635 467.4039,31.069 C476.2399,34.515 485.4099,38.38 494.6609,42.556 C503.9439,46.747 513.4709,51.323 522.9799,56.157 C532.4969,60.994 542.2729,66.23 552.0349,71.72 C560.8459,76.675 569.9079,81.999 578.9699,87.543 C588.0169,93.079 597.2129,98.927 606.3009,104.925 C615.2569,110.835 624.4749,117.141 633.6969,123.668 C642.9529,130.219 652.1149,136.919 660.9309,143.585 C669.9639,150.415 679.0599,157.521 687.9689,164.705 C696.8279,171.849 705.6549,179.2 714.2059,186.552 C722.7949,193.936 731.2659,201.458 739.3829,208.909 C747.4799,216.34 755.4859,223.941 763.1759,231.499 C770.7509,238.943 778.1609,246.469 785.2029,253.867 C792.2249,261.243 799.1179,268.747 805.6919,276.169 C812.3389,283.674 818.6949,291.125 824.5839,298.317 C830.4879,305.528 836.2609,312.89 841.7429,320.198 C846.8499,327.006 851.7129,333.793 856.1949,340.369 C860.7149,347 865.0089,353.646 868.9599,360.122 C872.8939,366.571 876.5929,373.033 879.9559,379.327 C883.3339,385.65 886.4139,391.875 889.1099,397.829 C894.6909,410.154 898.8649,421.923 901.5179,432.808 C904.1549,443.635 905.3009,453.664 904.9229,462.617 M909.2899,430.914 C906.5199,419.547 902.1829,407.305 896.3979,394.53 C893.6299,388.416 890.4719,382.033 887.0119,375.557 C883.5779,369.13 879.8019,362.534 875.7889,355.955 C871.7679,349.365 867.4009,342.605 862.8059,335.864 C858.2559,329.188 853.3219,322.302 848.1429,315.397 C842.5929,307.999 836.7489,300.547 830.7729,293.249 C824.8189,285.977 818.3959,278.446 811.6799,270.865 C805.0439,263.371 798.0849,255.797 790.9979,248.351 C783.8949,240.889 776.4209,233.3 768.7839,225.793 C761.0279,218.171 752.9559,210.508 744.7929,203.015 C736.6119,195.506 728.0759,187.926 719.4219,180.486 C710.8079,173.079 701.9149,165.674 692.9909,158.477 C684.0179,151.241 674.8549,144.084 665.7559,137.204 C656.8739,130.488 647.6419,123.737 638.3189,117.138 C629.0259,110.561 619.7359,104.205 610.7079,98.248 C601.5439,92.2 592.2699,86.302 583.1449,80.719 C574.0009,75.124 564.8529,69.75 555.9559,64.746 C546.0959,59.202 536.2209,53.913 526.6049,49.025 C516.9869,44.136 507.3469,39.506 497.9529,35.265 C488.5759,31.032 479.2759,27.113 470.3109,23.616 C461.3559,20.123 452.4889,16.959 443.9569,14.213 C434.9429,11.309 426.0899,8.808 417.6439,6.778 C409.1509,4.737 400.9389,3.139 393.2349,2.029 C385.4509,0.907 377.9159,0.243 370.8389,0.055 C363.6899,-0.133 356.8929,0.158 350.6319,0.923 C336.6739,2.648 324.9059,6.689 315.6539,12.934 C311.2169,15.93 275.7669,56.693 244.0839,95.23 C218.1059,126.828 171.5019,185.055 151.2579,220.008 C114.6449,283.223 92.1349,345.236 84.3529,404.323 C75.9999,467.748 77.0309,516.056 87.6989,560.963 C100.6129,615.324 128.3319,664.191 172.4399,710.358 C175.9439,714.025 179.6559,717.789 183.4559,721.537 C160.2449,737.554 134.1439,750.549 105.1369,760.509 C73.6819,771.308 38.8219,778.546 0.5599,782.222 L-0.0001,782.276 L0.2899,782.757 C1.6189,784.96 2.8279,787.174 3.9169,789.397 C5.0059,791.624 5.9829,793.872 6.8439,796.141 L6.9409,796.396 L7.2109,796.368 C46.4439,792.329 82.2709,784.727 114.6919,773.566 C144.6569,763.251 171.7089,749.884 195.8629,733.483 C196.1049,733.692 196.3319,733.89 196.5899,734.111 C202.3779,739.493 208.2799,744.78 214.1339,749.826 C267.1639,795.541 333.2329,824.346 405.1979,833.128 C420.6949,835.018 436.2499,835.949 451.6999,835.949 C509.7079,835.947 566.1269,822.828 611.4489,798.198 C674.7869,763.777 724.8479,727.931 768.9959,685.392 C824.6009,631.812 868.6279,569.513 903.5799,494.949 C904.6149,493.328 905.5759,491.627 906.4399,489.888 C910.3099,482.094 912.4889,473.032 912.9159,462.955 C913.3259,453.251 912.1059,442.471 909.2899,430.914"/>
    <path fill="#050403" d="M886.5073,458.781 C885.8283,473.212 880.7913,483.725 871.1073,490.92 C845.8553,509.68 796.3793,499.217 781.8183,495.562 C738.4903,484.688 692.9553,464.541 638.5173,432.158 C543.7093,375.76 458.8603,303.695 393.1453,223.754 C360.8163,184.426 326.4013,137.419 316.2713,86.968 C309.5523,53.508 325.0233,39.301 334.8423,33.811 C345.7923,27.688 358.5853,25.617 371.4273,25.617 C383.2763,25.617 395.1663,27.38 405.6883,29.351 C463.6173,40.201 517.8453,68.724 558.6163,92.362 C604.4283,118.922 650.2563,151.254 694.8253,188.462 C743.3703,228.988 782.6673,268.454 814.9623,309.115 C840.8903,341.758 889.1513,402.519 886.5073,458.781 M686.5603,470.446 C684.1383,471.237 681.4723,471.835 678.6373,472.224 C675.7493,472.62 672.5843,472.811 669.2423,472.796 C665.9313,472.779 662.4073,472.553 658.7703,472.127 C655.0753,471.692 651.1453,471.038 647.0903,470.183 C643.0073,469.324 638.7143,468.244 634.3283,466.973 C629.9913,465.717 625.3803,464.212 620.6233,462.503 C615.4603,460.647 610.1383,458.55 604.8043,456.267 C599.4433,453.974 593.8663,451.41 588.2293,448.644 C582.6733,445.919 576.9133,442.921 571.1093,439.732 C565.3103,436.545 559.4313,433.147 553.6353,429.633 C547.4503,425.883 541.1543,421.877 534.9213,417.727 C528.6913,413.58 522.4123,409.213 516.2583,404.747 C510.1023,400.281 503.8923,395.586 497.7993,390.792 C491.7053,385.997 485.6163,381.015 479.6993,375.983 C473.4093,370.647 467.1773,365.141 461.1753,359.617 C455.1883,354.107 449.3253,348.48 443.7483,342.893 C438.2043,337.339 432.7823,331.66 427.6343,326.014 C422.4963,320.379 417.5633,314.703 412.9743,309.145 C408.5053,303.731 404.2173,298.258 400.2293,292.876 C396.2623,287.523 392.5453,282.194 389.1813,277.037 C385.7973,271.849 382.6953,266.733 379.9643,261.832 C377.2453,256.95 374.7993,252.114 372.6943,247.457 C370.1493,241.827 368.0833,236.421 366.5553,231.391 C365.0563,226.461 364.0363,221.79 363.5233,217.504 C363.2023,212.634 363.5983,208.252 364.7003,204.415 C368.8433,209.926 373.1563,215.47 377.5653,220.953 C385.0933,230.316 393.2393,239.915 401.7753,249.483 C402.7613,250.589 403.7763,251.698 404.7753,252.805 C468.1663,324.558 546.6693,389.156 633.4053,440.752 C652.2823,451.981 670.1193,461.763 687.1903,470.223 C686.9793,470.297 686.7743,470.376 686.5603,470.446 M550.8223,483.956 C476.0353,518.379 404.0223,588.051 356.7403,640.488 C356.1313,640.992 352.7463,643.674 347.2663,645.951 C347.1093,646.016 346.9503,646.082 346.7903,646.145 C346.4493,646.283 346.1013,646.419 345.7443,646.552 C345.6713,646.579 345.6003,646.607 345.5283,646.635 C345.0573,646.807 344.5733,646.976 344.0773,647.139 C344.0383,647.152 344.0003,647.164 343.9613,647.177 C342.9273,647.513 341.8403,647.826 340.7013,648.102 C337.4593,648.887 334.2053,649.288 330.9453,649.322 C330.7323,649.324 330.5193,649.329 330.3033,649.327 C329.7073,649.325 329.1103,649.304 328.5133,649.276 C328.1533,649.26 327.7913,649.238 327.4263,649.211 C327.1383,649.19 326.8503,649.161 326.5623,649.135 C325.8553,649.069 325.1413,648.987 324.4183,648.884 C324.2673,648.862 324.1183,648.84 323.9673,648.817 C322.4843,648.589 320.9653,648.282 319.4143,647.88 C319.3753,647.87 319.3353,647.858 319.2953,647.848 C318.2503,647.574 317.1893,647.26 316.1153,646.898 C316.0893,646.889 316.0623,646.882 316.0353,646.873 C315.5173,646.698 314.9953,646.51 314.4703,646.314 C314.3293,646.261 314.1873,646.205 314.0463,646.151 C313.2063,645.829 312.3573,645.475 311.5023,645.096 C311.2473,644.983 310.9933,644.874 310.7383,644.757 C310.3353,644.57 309.9283,644.374 309.5213,644.175 C309.1483,643.992 308.7753,643.802 308.4033,643.61 C308.0683,643.437 307.7353,643.269 307.3983,643.088 C306.7173,642.719 306.0373,642.335 305.3573,641.934 C305.1023,641.784 304.8453,641.625 304.5893,641.469 C304.0573,641.146 303.5263,640.815 302.9953,640.472 C302.7583,640.32 302.5233,640.169 302.2863,640.012 C301.5333,639.514 300.7813,639.004 300.0303,638.466 C299.1833,637.858 298.3653,637.248 297.5743,636.634 C297.3483,636.459 297.1373,636.28 296.9163,636.104 C296.3533,635.657 295.7903,635.21 295.2553,634.76 C295.0583,634.593 294.8733,634.424 294.6793,634.257 C294.1353,633.789 293.5923,633.319 293.0783,632.848 C292.9543,632.735 292.8393,632.619 292.7153,632.505 C292.1433,631.971 291.5783,631.437 291.0423,630.901 C291.0373,630.896 291.0323,630.891 291.0283,630.886 C273.1083,612.951 275.5543,593.5 279.0703,582.706 L279.3333,581.897 C281.7483,574.917 285.1723,569.58 287.2523,566.729 C335.3653,500.799 365.1833,434.309 375.8793,369.11 C383.8153,320.728 379.0473,284.96 376.1263,267.052 C378.5893,271.353 381.2953,275.783 384.2233,280.272 C387.6513,285.527 391.4363,290.953 395.4733,296.401 C399.5223,301.865 403.8743,307.421 408.4093,312.913 C413.0603,318.547 418.0563,324.296 423.2603,330.003 C428.4683,335.714 433.9513,341.458 439.5583,347.075 C445.1943,352.721 451.1183,358.406 457.1663,363.973 C463.2263,369.55 469.5193,375.11 475.8673,380.494 C481.8383,385.573 487.9863,390.603 494.1383,395.444 C500.2923,400.285 506.5643,405.027 512.7813,409.538 C519.0003,414.05 525.3453,418.463 531.6413,422.655 C537.9433,426.851 544.3103,430.902 550.5663,434.695 C556.4343,438.253 562.3863,441.692 568.2583,444.92 C574.1423,448.152 579.9853,451.194 585.6223,453.959 C591.3513,456.769 597.0213,459.378 602.4763,461.711 C605.5823,463.039 608.6813,464.299 611.7543,465.495 C600.5833,466.579 580.0173,470.518 550.8223,483.956 M346.7583,738.776 C337.5443,747.654 325.0073,751.884 310.8893,751.884 C284.4223,751.882 252.4123,737.01 226.4093,710.025 C206.9633,689.843 193.7853,665.998 189.3043,642.883 C184.8993,620.158 189.4583,600.914 202.1403,588.693 C218.1143,573.301 244.7283,571.351 273.6463,583.351 C273.4293,584.124 273.2313,584.899 273.0473,585.675 C273.0023,585.864 272.9563,586.051 272.9123,586.243 C272.8203,586.651 272.7303,587.06 272.6473,587.469 C272.5223,588.081 272.4063,588.708 272.2993,589.345 C272.2613,589.569 272.2263,589.794 272.1923,590.017 C269.9363,604.417 272.5783,624.954 297.1193,642.53 C297.8613,643.061 298.5983,643.565 299.3323,644.054 C299.4863,644.157 299.6403,644.255 299.7943,644.356 C300.4293,644.773 301.0623,645.175 301.6923,645.561 C301.7663,645.606 301.8393,645.651 301.9133,645.696 C320.4353,656.981 336.4023,655.362 347.3593,651.29 C366.1143,686.123 365.9383,720.294 346.7583,738.776 M701.2333,180.785 C656.2293,143.215 609.9343,110.554 563.6323,83.711 C522.1693,59.672 466.9553,30.652 407.5283,19.522 C383.9453,15.105 353.8163,11.745 329.9623,25.082 C309.2123,36.684 300.6483,59.958 306.4663,88.936 C311.3183,113.1 321.5103,137.802 337.6243,164.457 C344.8363,176.385 352.7493,187.852 360.6003,198.476 C358.1353,203.986 357.1213,210.528 357.6213,217.977 L357.6353,218.127 C358.1873,222.779 359.2823,227.821 360.8913,233.112 C362.4933,238.386 364.6503,244.033 367.2993,249.896 C368.0863,251.636 368.9333,253.406 369.8083,255.187 L369.3163,255.198 C369.3543,256.91 369.8083,259.603 370.4953,263.678 C373.1673,279.518 379.4233,316.613 370.9453,368.3 C360.3773,432.719 330.8603,498.49 283.2133,563.782 C279.8193,568.432 277.1363,573.433 275.2003,578.589 C244.5233,565.97 216.0583,568.339 198.6703,585.094 C184.7273,598.529 179.6573,619.39 184.3953,643.834 C189.0583,667.886 202.7003,692.626 222.8093,713.494 C249.7533,741.457 283.0823,756.772 310.9993,756.772 C326.3753,756.772 340.1143,752.121 350.2283,742.376 C370.9963,722.364 371.5893,686.044 351.9593,649.313 C357.0243,646.834 359.9443,644.332 360.1273,644.172 L360.3403,643.962 C445.1373,549.888 511.5523,507.641 552.3363,488.764 C587.6303,472.43 612.7393,469.46 621.0813,470.17 L621.1873,468.974 C625.1533,470.354 629.0133,471.596 632.6813,472.659 C637.2073,473.97 641.6453,475.087 645.8703,475.976 C650.0993,476.867 654.2063,477.55 658.0793,478.006 C661.9353,478.459 665.6813,478.697 669.2123,478.716 C669.3583,478.717 669.5023,478.717 669.6463,478.717 C673.1113,478.717 676.4043,478.506 679.4423,478.09 C682.6273,477.652 685.6403,476.973 688.3983,476.073 C690.4593,475.4 692.4093,474.589 694.2213,473.649 C724.4283,488.151 752.2993,498.464 779.3843,505.261 C789.9943,507.924 808.8903,511.825 828.4863,511.825 C845.9133,511.825 863.8933,508.737 877.0703,498.947 C889.1443,489.977 895.6793,476.622 896.4963,459.251 L896.4963,459.25 C899.3163,399.239 849.5363,336.566 822.7933,302.895 C790.0693,261.696 750.3073,221.753 701.2333,180.785"/>
    <path fill="#050403" d="M768.062,386.843 C767.501,397.153 763.501,405.422 755.607,410.872 C747.064,416.772 734.652,418.954 719.332,417.692 C703.587,416.394 684.78,411.462 663.941,403.19 C641.171,394.152 616.028,381.141 590.199,364.725 C565.73,349.175 540.65,330.574 516.39,309.407 C490.73,287.022 469.078,264.486 452.059,243.087 C434.443,220.938 421.805,200.023 414.843,181.774 C408.077,164.043 406.885,149.351 411.42,138.726 C415.811,128.439 425.61,121.941 440.96,120.173 C455.17,118.536 472.715,121.149 492.165,127.118 C512.825,133.458 535.618,143.579 558.846,156.417 C580.143,168.186 602.187,182.529 623.615,198.521 C624.784,199.393 625.95,200.27 627.114,201.152 C628.34,202.094 629.563,203.04 630.784,203.991 C653.237,221.487 674.895,240.598 694.25,260.206 C696.64,262.627 698.978,265.034 701.263,267.426 C712.038,278.901 721.521,290.075 729.71,300.826 C742.673,317.843 752.39,333.79 758.87,348.203 C765.413,362.756 768.655,375.939 768.062,386.843 M742.959,313.936 C731.974,298.918 718.611,283.015 702.765,266.426 C697.253,260.558 691.406,254.611 685.221,248.6 C667.53,231.406 648.122,214.863 628.109,199.719 C606.562,183.173 584.369,168.153 562.834,155.631 C537.539,140.922 512.656,129.244 490.135,121.868 C468.803,114.881 449.565,111.744 434.064,113.529 C417.038,115.49 406.479,123.07 402.141,135.109 C397.706,147.418 399.812,164.366 408.193,184.699 C416.579,205.048 430.972,228.137 450.488,252.367 C469.364,275.802 493.048,300.319 520.738,324.466 C546.281,346.765 572.414,366.246 597.721,382.468 C624.593,399.693 650.54,413.249 673.868,422.611 C695.091,431.129 714.262,436.221 730.362,437.586 C746.233,438.931 759.134,436.655 768.102,430.468 C776.485,424.698 780.815,415.905 781.545,404.902 C782.305,393.465 779.164,379.64 772.637,364.35 C766.121,349.086 756.293,332.164 742.959,313.936"/>
    <path fill="#050403" d="M707.5747 361.0701C707.1827 368.2761 704.3907 374.0531 698.8837 377.8561 692.9057 381.9841 684.2007 383.5091 673.4467 382.6241 662.3377 381.7081 649.0517 378.2211 634.3177 372.3731 618.1877 365.9701 600.3757 356.7531 582.0767 345.1231 564.7287 334.0981 546.9487 320.9111 529.7507 305.9061 511.5637 290.0401 496.2177 274.0681 484.1557 258.9021 471.6857 243.2231 462.7437 228.4281 457.8217 215.5271 453.0607 203.0481 452.2147 192.7241 455.3947 185.2761 458.4577 178.0991 465.3057 173.5651 476.0387 172.3281 486.0447 171.1751 498.4147 173.0201 512.1377 177.2321 526.7597 181.7181 542.8977 188.8851 559.3477 197.9771 574.4377 206.3161 590.0627 216.4831 605.2567 227.8231 620.2227 238.9921 634.7517 251.2881 647.9177 264.0841 660.8527 276.6541 671.6987 288.8341 680.4597 300.3361 689.6367 312.3821 696.5117 323.6651 701.0937 333.8571 705.7057 344.1151 707.9917 353.4021 707.5747 361.0701M682.6127 299.3911C673.7587 287.7691 662.7937 275.4561 649.7107 262.7421 636.4117 249.8161 621.7517 237.4071 606.6647 226.1481 591.3447 214.7131 575.5627 204.4481 560.2967 196.0101 543.6187 186.7931 527.2357 179.5211 512.3647 174.9571 498.2127 170.6141 485.4127 168.7171 475.0007 169.9171 463.4807 171.2431 456.1117 176.1521 452.7907 183.9321 449.4167 191.8371 450.2697 202.6781 455.2377 215.6971 460.2687 228.8831 469.3727 243.9611 482.0467 259.8961 494.2337 275.2201 509.7407 291.3591 528.1137 307.3881 545.4727 322.5341 563.4147 335.8411 580.9147 346.9631 599.4377 358.7351 617.4737 368.0681 633.8117 374.5531 648.8607 380.5271 662.4847 384.0921 673.9377 385.0361 685.2837 385.9701 694.5097 384.3331 700.9027 379.9171 706.8707 375.7971 709.8937 369.5701 710.3157 361.8231 710.7517 353.8041 708.3877 344.1521 703.6137 333.5311 698.9327 323.1201 691.9337 311.6271 682.6127 299.3911M399.4185 311.8264C398.7835 310.0004 396.7885 309.0344 394.9625 309.6704 393.1375 310.3054 392.1715 312.3004 392.8075 314.1264 400.2725 335.5844 390.9625 385.0194 368.5105 443.1394 345.4955 502.7164 314.0775 558.3404 284.4685 591.9314 283.1895 593.3814 283.3295 595.5934 284.7795 596.8714 285.4445 597.4574 286.2705 597.7454 287.0925 597.7454 288.0625 597.7454 289.0275 597.3454 289.7195 596.5604 354.0675 523.5574 416.6065 361.2324 399.4185 311.8264"/>
    <path fill="#050403" d="M430.7671 354.9632C430.7251 353.0312 429.1621 351.5032 427.1911 351.5412 425.2591 351.5842 423.7261 353.1852 423.7691 355.1172 424.1701 373.3512 405.8801 420.3672 394.2571 445.7192 376.4791 484.4982 344.3941 543.6652 292.5041 605.3202 291.2601 606.7992 291.4501 609.0072 292.9281 610.2522 293.5851 610.8042 294.3851 611.0742 295.1801 611.0742 296.1771 611.0742 297.1681 610.6502 297.8601 609.8282 350.2561 547.5712 382.6621 487.8082 400.6201 448.6362 420.7961 404.6272 431.0591 368.2002 430.7671 354.9632M470.5435 399.866C471.5965 398.244 471.1345 396.077 469.5135 395.025 467.8915 393.972 465.7245 394.434 464.6725 396.054 440.6075 433.13 415.3115 470.118 389.4845 505.993 361.4935 544.876 332.0985 583.537 302.1175 620.9 300.9085 622.408 301.1495 624.611 302.6575 625.82 303.3035 626.339 304.0775 626.591 304.8455 626.591 305.8705 626.591 306.8865 626.142 307.5775 625.281 337.6345 587.823 367.1035 549.064 395.1655 510.083 421.0575 474.117 446.4185 437.034 470.5435 399.866M472.6865 466.2527C486.7605 454.5507 501.6335 445.1807 516.0165 436.1187L516.6465 435.7217C518.2815 434.6907 518.7725 432.5297 517.7425 430.8947 516.7115 429.2597 514.5495 428.7687 512.9155 429.7997L512.2855 430.1957C497.7105 439.3787 482.6395 448.8737 468.2105 460.8697 417.6515 502.9087 375.3945 555.5567 334.5295 606.4707 329.1495 613.1737 323.7895 619.8517 318.4335 626.4777 317.2185 627.9807 317.4515 630.1847 318.9555 631.3987 319.6025 631.9227 320.3805 632.1777 321.1535 632.1777 322.1735 632.1777 323.1855 631.7327 323.8765 630.8777 329.2385 624.2457 334.6035 617.5617 339.9895 610.8517 380.6375 560.2077 422.6695 507.8407 472.6865 466.2527M558.7627 455.3992C556.2467 456.0432 553.6117 456.6502 550.8227 457.2932 533.6417 461.2532 510.1117 466.6762 475.6457 490.5732 435.1747 518.6322 388.5807 565.4782 333.2017 633.7852 331.9847 635.2862 332.2147 637.4902 333.7167 638.7082 334.3647 639.2332 335.1437 639.4892 335.9187 639.4892 336.9367 639.4892 337.9477 639.0462 338.6387 638.1932 393.5947 570.4082 439.7147 524.0032 479.6337 496.3262 512.9947 473.1962 534.8417 468.1602 552.3947 464.1142 555.2257 463.4622 557.9007 462.8452 560.4977 462.1802 562.3707 461.7012 563.5007 459.7952 563.0207 457.9212 562.5417 456.0492 560.6377 454.9232 558.7627 455.3992"/>
  </g>
</svg>
