<?xml version="1.0" encoding="utf-8"?>
<!-- Generator: Adobe Illustrator 17.0.0, SVG Export Plug-In . SVG Version: 6.00 Build 0)  -->
<!DOCTYPE svg PUBLIC "-//W3C//DTD SVG 1.1//EN" "http://www.w3.org/Graphics/SVG/1.1/DTD/svg11.dtd">
<svg version="1.1" id="Layer_1" xmlns="http://www.w3.org/2000/svg" xmlns:xlink="http://www.w3.org/1999/xlink" x="0px" y="0px"
	 width="1002.378px" height="914.665px" viewBox="0 0 1002.378 914.665" enable-background="new 0 0 1002.378 914.665"
	 xml:space="preserve">
<path d="M940.317,507.75c-23.795-47.543-55.05-97.48-94.035-148.572c-39.672-51.991-84.986-101.386-132.924-145.732
	c-48.671-45.024-100.067-84.864-151.025-116.949c-55.557-34.98-111.598-61.676-164.137-77.143
	C348.684,4.78,302.31,0.186,262.434,8.05c-43.181,8.515-74.062,30.588-92.455,63.336c-18.967,33.772-24.741,78.948-17.116,132.388
	c7.837,54.923,29.537,116.922,64.07,181.719c33.341,62.559,78.651,127.729,135.007,191.667
	c53.277,60.452,110.339,112.813,167.579,155.878c60.472,45.497,121.149,80.636,177.775,103.993
	c51.852,21.389,100.225,32.885,142.479,33.777c41.182,0.869,76.53-8.341,103.58-28.292c25.026-18.452,41.096-44.86,48.984-76.899
	c8.324-33.812,7.552-73.892-1.414-117.534C982.05,604.893,965.286,557.637,940.317,507.75 M849.654,356.604
	c39.133,51.285,70.527,101.454,94.451,149.252c25.141,50.231,42.026,97.841,50.97,141.379c9.091,44.253,9.857,84.965,1.381,119.394
	c-8.123,32.998-24.721,60.231-50.595,79.308c-7.808,5.759-16.278,10.647-25.355,14.681l0.005-0.002
	C389.855,1127.023-116.205,337.155,183.724,45.177l-0.069,0.079c19.004-20.682,45.017-34.879,77.964-41.376
	c40.56-7.998,87.615-3.36,137.773,11.406c52.915,15.577,109.317,42.439,165.2,77.625c51.153,32.208,102.758,72.211,151.639,117.43
	C764.374,254.875,809.859,304.452,849.654,356.604z"/>
<path d="M806.605,420.196c-3.512-5.007-7.122-10.04-10.831-15.097c-30.041-40.954-64.93-80.474-102.146-116.277
	c-2.024-1.947-4.054-3.882-6.092-5.807c-1.941-1.799-3.888-3.588-5.842-5.365c-35.834-32.599-73.651-61.43-111.123-84.632
	c-40.872-25.307-82.095-44.619-120.736-55.805c-36.379-10.532-70.444-13.852-99.726-8.173c-31.63,6.133-54.243,22.02-67.701,45.585
	c-13.899,24.338-18.126,56.924-12.53,95.493c5.76,39.695,21.718,84.523,47.119,131.393c24.54,45.282,57.876,92.438,99.328,138.686
	c39.19,43.73,81.184,81.622,123.325,112.801c44.483,32.913,89.123,58.334,130.788,75.235c38.13,15.467,73.685,23.78,104.726,24.424
	c30.206,0.627,56.122-6.009,75.941-20.384c18.314-13.279,30.076-32.289,35.85-55.355c6.107-24.396,5.537-53.328-1.046-84.841
	c-6.52-31.212-18.849-65.381-37.217-101.471C837.089,467.803,823.077,444.244,806.605,420.196 M782.868,380.512
	c9.714,12.519,18.779,24.944,27.205,37.24c24.353,34.725,44.026,68.275,59.323,100.193c18.566,38.738,30.68,75.064,36.888,108.169
	c6.218,33.159,6.295,63.535-0.385,89.144c-6.427,24.637-19.089,44.86-38.53,58.924c-20.801,15.074-47.741,21.991-79.016,21.258
	c-31.726-0.743-67.938-9.362-106.729-25.323c-42.64-17.543-88.65-44.064-134.864-78.633
	c-43.521-32.556-87.233-72.259-128.489-118.334c-44.738-49.884-81.26-101.167-108.613-150.724
	c-28.28-51.237-46.782-100.664-54.455-144.836c-7.668-44.141-4.26-81.628,10.198-109.705c14.141-27.462,38.767-45.871,73.852-52.674
	c31.941-6.194,69.17-1.947,108.87,10.586c41.914,13.232,86.632,35.716,130.812,64.899c37.614,24.846,75.424,55.166,111.245,88.982
	C723.554,310.586,755.082,344.702,782.868,380.512z"/>
<path d="M196.659,615.058l-193.5,187.01c-31.5,31.5,177.614,96.064,402,50.438l11.064-19.015
	C328.507,778.726,253.038,701.417,196.659,615.058"/>
<path d="M988.518,643.049c-4.355-20.552-10.55-42.103-18.637-64.468c-7.891-21.824-17.571-44.393-29.084-67.532
	c-11.912-23.941-25.776-48.573-41.674-73.741c-15.338-24.282-32.554-49.033-51.72-74.109
	c-19.296-25.247-40.061-49.979-61.877-73.855c-22.221-24.322-45.516-47.731-69.443-69.869
	c-23.838-22.056-48.352-42.878-73.137-62.121c-24.676-19.159-49.646-36.777-74.51-52.516
	c-27.006-17.094-54.144-32.233-80.931-45.051c-26.267-12.57-52.179-22.9-77.279-30.647c-25.866-7.984-50.901-13.253-74.595-15.43
	c-22.893-2.103-44.536-1.317-64.471,2.698c-43.265,8.765-73.703,31.464-91.288,65.047c-18.005,34.386-22.449,80.126-13.304,133.924
	c4.554,26.794,12.463,55.248,23.547,84.829c11.052,29.497,25.248,60.091,42.409,91.255c17.325,31.463,37.722,63.528,61.031,95.674
	c22.701,31.307,48.196,62.725,76.338,93.772c26.507,29.333,53.876,56.619,81.625,81.713c28.888,26.124,58.159,49.854,87.275,71.032
	c28.285,20.573,56.553,38.845,84.331,54.651c28.24,16.069,55.959,29.58,82.657,40.361c24.73,9.986,48.602,17.667,71.32,22.947
	c22.646,5.263,44.164,8.141,64.261,8.539c20.364,0.403,39.308-1.697,56.475-6.418c16.857-4.636,31.991-11.787,45.067-21.562
	l-0.003-0.004c24.447-18.215,40.081-44.182,47.62-75.639C998.367,723.786,997.428,685.101,988.518,643.049z M986.401,755.549
	c-7.307,30.491-22.421,55.629-46.031,73.218h-0.008c-12.666,9.468-27.32,16.393-43.639,20.881
	c-16.772,4.613-35.315,6.664-55.28,6.269c-19.78-0.392-41.008-3.236-63.397-8.439c-22.504-5.23-46.164-12.844-70.69-22.748
	c-26.522-10.71-54.068-24.137-82.142-40.112c-27.608-15.71-55.742-33.898-83.932-54.401c-29.055-21.134-58.211-44.766-86.926-70.733
	c-27.646-25.001-54.915-52.187-81.326-81.414c-27.988-30.876-53.384-62.179-76.039-93.423
	c-23.208-32.007-43.51-63.922-60.748-95.225c-17.083-31.023-31.196-61.428-42.16-90.69c-10.982-29.311-18.819-57.503-23.331-84.048
	c-5.506-32.392-6.026-61.762-1.568-87.368c11.819-52.353,46.112-87.709,102.838-99.067c40.193-8.001,87.478-2.887,138.028,12.534
	c50.528,15.414,104.342,41.202,157.704,74.588c49.744,31.122,99.923,69.703,147.34,113.066
	c47.293,43.249,92.122,91.424,131.07,141.79c21.33,27.583,40.23,54.751,56.806,81.315c12.724,20.857,24.049,41.355,34.023,61.401
	c11.463,23.038,21.081,45.456,28.901,67.084c8.012,22.156,14.152,43.519,18.471,63.903
	C993.149,685.388,994.095,723.441,986.401,755.549z"/>
<path d="M724.096,475.405c-9.9-19.453-22.894-39.872-39.093-60.749c-16.489-21.25-35.341-41.457-55.298-59.612
	c-20.261-18.431-41.634-34.728-62.806-47.837c-23.081-14.292-46.354-25.196-68.161-31.508c-20.467-5.925-39.617-7.796-56.059-4.608
	c-17.635,3.42-30.234,12.261-37.721,25.37c-7.77,13.604-10.126,31.863-6.986,53.507c3.247,22.377,12.252,47.664,26.589,74.119
	c13.869,25.591,32.709,52.241,56.136,78.379c22.153,24.719,45.893,46.14,69.717,63.767c25.13,18.593,50.346,32.953,73.88,42.5
	c21.498,8.721,41.526,13.407,58.991,13.77c16.907,0.35,31.397-3.352,42.457-11.373c10.188-7.387,16.736-17.977,19.954-30.833
	c3.425-13.682,3.101-29.931-0.599-47.645C741.422,515.054,734.465,495.777,724.096,475.405 M688.358,412.066
	c16.385,21.116,29.522,41.758,39.525,61.413c10.532,20.694,17.611,40.331,21.366,58.308c3.831,18.338,4.148,35.23,0.567,49.538
	c-3.46,13.821-10.54,25.235-21.581,33.241c-11.828,8.578-27.193,12.541-45.031,12.171c-18.005-0.374-38.546-5.163-60.503-14.069
	c-23.837-9.67-49.372-24.21-74.81-43.031c-24.032-17.781-47.987-39.397-70.348-64.349c-23.668-26.407-42.704-53.334-56.717-79.192
	c-14.572-26.889-23.735-52.659-27.054-75.53c-3.277-22.581-0.746-41.758,7.5-56.197c8.115-14.21,21.682-23.776,40.611-27.447
	c17.109-3.318,36.929-1.402,58.035,4.708c22.179,6.421,45.807,17.485,69.207,31.974c21.42,13.263,43.008,29.717,63.437,48.302
	C652.68,370.207,671.702,390.599,688.358,412.066z"/>
</svg>
