<?xml version="1.0" encoding="utf-8"?>
<!-- Generator: Adobe Illustrator 17.0.0, SVG Export Plug-In . SVG Version: 6.00 Build 0)  -->
<!DOCTYPE svg PUBLIC "-//W3C//DTD SVG 1.1//EN" "http://www.w3.org/Graphics/SVG/1.1/DTD/svg11.dtd">
<svg version="1.1" id="Layer_1" xmlns="http://www.w3.org/2000/svg" xmlns:xlink="http://www.w3.org/1999/xlink" x="0px" y="0px"
	 width="910.022px" height="828.654px" viewBox="0 0 910.022 828.654" enable-background="new 0 0 910.022 828.654"
	 xml:space="preserve">
<path fill-rule="evenodd" clip-rule="evenodd" fill="#050403" d="M698.492,239.424c6.185,6.011,12.032,11.958,17.544,17.826
	c15.847,16.589,29.209,32.492,40.195,47.51c13.333,18.228,23.161,35.149,29.678,50.414c6.527,15.29,9.668,29.115,8.908,40.552
	c-0.73,11.003-5.061,19.795-13.444,25.566c-8.967,6.186-21.868,8.462-37.739,7.117c-16.101-1.364-35.271-6.457-56.494-14.975
	c-23.328-9.362-49.276-22.918-76.148-40.143c-25.307-16.222-51.439-35.702-76.982-58.002c-27.691-24.146-51.374-48.664-70.25-72.099
	c-19.516-24.229-33.909-47.319-42.295-67.667c-8.38-20.334-10.487-37.281-6.052-49.59c4.338-12.039,14.897-19.619,31.923-21.58
	c15.501-1.785,34.738,1.352,56.07,8.339c22.521,7.377,47.404,19.054,72.699,33.763c21.535,12.522,43.729,27.542,65.275,44.088
	C661.393,205.686,680.801,222.23,698.492,239.424 M714.534,258.249c-2.285-2.392-4.622-4.799-7.012-7.22
	c-19.355-19.607-41.013-38.719-63.467-56.214c-1.221-0.951-2.444-1.897-3.67-2.839c-1.164-0.881-2.33-1.758-3.499-2.63
	c-21.428-15.993-43.473-30.335-64.769-42.105c-23.228-12.838-46.022-22.959-66.681-29.299c-19.45-5.969-36.995-8.582-51.205-6.945
	c-15.35,1.768-25.149,8.266-29.54,18.553c-4.535,10.625-3.342,25.316,3.423,43.048c6.963,18.249,19.6,39.164,37.216,61.313
	c17.019,21.399,38.672,43.935,64.332,66.32c24.26,21.166,49.34,39.767,73.809,55.318c25.829,16.415,50.972,29.427,73.742,38.465
	c20.839,8.272,39.646,13.204,55.39,14.501c15.321,1.262,27.733-0.919,36.276-6.819c7.894-5.45,11.894-13.72,12.455-24.029
	c0.593-10.904-2.649-24.087-9.192-38.64c-6.48-14.414-16.197-30.361-29.16-47.377C734.792,280.899,725.309,269.725,714.534,258.249"
	/>
<path fill-rule="evenodd" clip-rule="evenodd" fill="#050403" d="M662.983,253.565c13.083,12.715,24.048,25.027,32.901,36.649
	c9.321,12.236,16.32,23.729,21.001,34.141c4.775,10.62,7.139,20.272,6.703,28.292c-0.422,7.747-3.445,13.973-9.413,18.094
	c-6.394,4.415-15.619,6.053-26.965,5.119c-11.453-0.944-25.077-4.51-40.126-10.483c-16.338-6.485-34.374-15.818-52.897-27.59
	c-17.499-11.122-35.441-24.429-52.801-39.575c-18.374-16.029-33.88-32.168-46.068-47.492
	c-12.674-15.935-21.778-31.013-26.809-44.199c-4.967-13.019-5.82-23.86-2.446-31.765c3.32-7.78,10.689-12.688,22.209-14.015
	c10.413-1.2,23.212,0.698,37.364,5.041c14.871,4.564,31.255,11.836,47.932,21.053c15.266,8.438,31.048,18.703,46.368,30.137
	C635.023,228.231,649.683,240.639,662.983,253.565 M693.731,291.16c-8.762-11.502-19.608-23.682-32.542-36.253
	c-13.166-12.795-27.695-25.091-42.661-36.261c-15.194-11.34-30.819-21.507-45.909-29.846c-16.45-9.092-32.589-16.258-47.21-20.745
	c-13.723-4.211-26.093-6.056-36.099-4.903c-10.732,1.236-17.581,5.771-20.644,12.947c-3.18,7.448-2.334,17.772,2.427,30.251
	c4.922,12.901,13.865,27.697,26.334,43.375c12.062,15.166,27.409,31.138,45.595,47.004c17.198,15.005,34.978,28.192,52.327,39.217
	c18.299,11.63,36.11,20.847,52.24,27.25c14.734,5.849,28.021,9.335,39.13,10.251c10.754,0.886,19.458-0.639,25.437-4.768
	c5.507-3.802,8.299-9.58,8.691-16.786c0.417-7.669-1.869-16.955-6.481-27.213C709.784,314.489,702.908,303.206,693.731,291.16"/>
<path fill="#050403" d="M269.36,687.543c19.841-23.513,40.096-50.539,60.198-79.16c20.37-29.003,40.58-59.637,60.042-89.914
	l2.381,1.528c-19.486,30.314-39.719,60.983-60.109,90.014c-20.161,28.705-40.483,55.817-60.401,79.416
	C270.758,688.802,270.053,688.174,269.36,687.543 M279.973,696.295c13.504-17.547,31.099-40.266,52.76-67.222
	c22.067-27.461,48.381-59.357,78.947-94.74l2.137,1.849c-30.524,35.334-56.82,67.208-78.881,94.662
	c-21.658,26.952-39.209,49.612-52.679,67.115C281.496,697.417,280.734,696.862,279.973,696.295z M292.36,704.449
	c5.068-7.527,11.225-16.586,18.036-25.957c7.172-9.868,15.116-20.158,23.387-29.55c12.625-14.337,27.803-29.416,45.473-45.304
	c17.66-15.878,37.801-32.557,60.366-50.105l1.738,2.236c-22.527,17.518-42.617,34.154-60.211,49.972
	c-17.583,15.809-32.683,30.811-45.241,45.071c-8.213,9.327-16.1,19.543-23.221,29.339c-6.8,9.356-12.861,18.265-17.852,25.677
	C294.014,705.386,293.188,704.924,292.36,704.449z M304.869,710.55c20.575-29.919,45.135-56.84,71.987-79.949
	c28.195-24.265,58.915-44.329,90.199-59.252l1.218,2.558c-31.073,14.822-61.582,34.747-89.579,58.842
	c-26.494,22.801-50.744,49.341-71.098,78.829C306.695,711.259,305.786,710.915,304.869,710.55z M259.531,677.607
	c28.995-37.593,52.391-70.911,70.187-99.954c18.395-30.02,30.793-55.447,37.194-76.279l2.702,0.831
	c-6.471,21.062-18.965,46.703-37.482,76.921c-17.909,29.227-41.467,62.763-70.671,100.607
	C260.804,679.025,260.16,678.316,259.531,677.607z M350.164,486.081c-7.707,20.407-15.709,41.126-25.12,62.056
	c-9.416,20.939-20.231,42.057-33.551,63.222c-6.438,10.229-13.474,20.137-21.049,30.12c-6.234,8.216-12.795,16.435-19.673,24.908
	c-0.563-0.832-1.102-1.661-1.621-2.486c6.688-8.246,13.053-16.229,19.047-24.128c7.509-9.895,14.494-19.733,20.905-29.92
	c13.245-21.046,23.999-42.046,33.363-62.868c9.367-20.831,17.356-41.518,25.054-61.901L350.164,486.081z M333.421,470.806
	c-3.775,20.812-9.539,41.843-17.6,63.092c-8.062,21.25-18.425,42.731-31.398,64.441c-6.251,10.461-13.668,20.304-21.871,29.863
	c-6.324,7.37-13.116,14.571-20.2,21.756c-0.35-1.059-0.651-2.099-0.9-3.116c6.64-6.767,13.008-13.551,18.952-20.478
	c8.11-9.451,15.436-19.17,21.595-29.476c12.881-21.555,23.171-42.885,31.176-63.987c8.006-21.103,13.726-41.968,17.467-62.594
	L333.421,470.806z M241.211,632.184c16.175-14.684,30.189-35.288,42.042-61.813c13.588-30.407,24.326-68.581,32.214-114.52
	l2.79,0.476c-7.925,46.161-18.734,84.559-32.424,115.195c-12.542,28.067-27.512,49.63-44.909,64.691
	c0.105-0.511,0.233-1.008,0.384-1.492c-0.156,0.083-0.315,0.167-0.477,0.25c-5.846,0.006-10.516,1.623-13.414,5.028
	c-4.895,5.752-3.948,15.678,1.54,27.076c1.87,3.884,4.264,7.925,7.132,12.02c5.817,8.335,13.603,16.904,22.949,24.859l0.088,0.072
	l0.001,0.001l-0.001,0.001c13.862,11.781,28.502,19.957,40.974,23.655c12.132,3.597,22.083,2.946,26.978-2.805
	c3.975-4.67,4.097-12.093,1.065-20.821c-2.859,3.408-5.722,6.898-8.589,10.475c-1.044-0.128-2.115-0.299-3.21-0.514
	c3.991-5.007,7.976-9.848,11.953-14.529c0.167-0.372,0.381-0.705,0.642-0.997l0.022-0.026l0.071,0.161
	c24.235-28.409,48.185-50.852,71.564-68.311c30.928-23.097,60.87-37.485,89.159-45.44l0.764,2.724
	c-27.968,7.864-57.594,22.107-88.229,44.986c-23.525,17.568-47.639,40.224-72.048,68.984c3.933,10.35,3.9,19.361-1.014,25.135
	c-5.692,6.688-16.711,7.608-29.923,3.69c-12.846-3.809-27.892-12.208-42.091-24.293l-0.088-0.072l-0.001-0.001l0.002-0.002
	c-14.157-12.067-24.82-25.546-30.62-37.591c-5.98-12.42-6.833-23.446-1.141-30.133c3.693-4.339,9.629-6.25,16.952-5.987l0.059-0.108
	C241.982,632.195,241.594,632.186,241.211,632.184z"/>
<path fill-rule="evenodd" clip-rule="evenodd" fill="#050403" d="M173.779,198.873c-4.698,7.471-9.196,14.914-13.491,22.33
	c-36.185,62.476-58.083,122.957-65.692,180.729c-7.014,53.258-8.519,103.891,3.184,153.155
	c11.682,49.176,36.561,97.067,82.324,144.966c6.312,6.606,12.931,13.172,19.642,19.525c6.972,6.599,14.181,13.102,21.372,19.3
	c55.63,47.956,121.449,73.142,185.925,81.01c74.643,9.109,147.42-4.98,200.469-33.809c51.077-27.758,104.911-62.575,155.463-111.286
	c8.052-7.759,16.022-15.872,23.884-24.366c-51.588,21.915-109.236,19.843-172.484-1.035
	c-68.109-22.483-142.762-66.819-223.372-126.481c-30.621-22.663-63.672-50.589-95.013-84.214
	c-31.361-33.646-61.022-73.014-84.847-118.551c-10.006-19.125-21.181-41.051-28.72-63.875
	C176.199,237.428,172.435,217.954,173.779,198.873z M895.898,480.475c3.204-6.466,4.939-13.95,5.292-22.287
	c0.37-8.741-0.769-18.414-3.317-28.839c-2.603-10.653-6.686-22.101-12.143-34.152c-2.708-5.98-5.712-12.068-9.013-18.246
	c-3.276-6.132-6.894-12.45-10.855-18.943c-3.885-6.369-8.093-12.882-12.622-19.526c-4.508-6.612-9.284-13.286-14.325-20.007
	c-4.448-5.93-9.172-11.994-14.173-18.186c-4.901-6.069-10.016-12.19-15.343-18.355l0-0.001
	c-7.015-7.989-14.456-16.122-22.327-24.386c-7.706-8.09-15.79-16.267-24.256-24.515c-15.475-15.078-31.805-29.912-48.68-44.294
	c-17.235-14.688-35.008-28.882-52.993-42.359c-17.863-13.386-36.08-26.158-54.351-38.106
	c-18.148-11.867-36.233-22.843-53.956-32.719c-19.306-10.757-38.432-20.407-57.027-28.726c-18.219-8.15-35.907-15.017-52.731-20.386
	c-17.268-5.512-33.669-9.47-48.837-11.642c-14.506-2.077-27.847-2.507-39.691-1.085c-16.476,1.998-28.818,7.376-37.132,15.676
	c-8.459,8.445-12.832,20.03-13.226,34.258c0.229,7.054,1.348,14.702,3.346,22.892c2.009,8.233,4.922,17.037,8.727,26.359
	c3.137,7.685,6.829,15.591,11.051,23.678c4.238,8.116,9.068,16.52,14.463,25.171c5.347,8.573,11.254,17.374,17.696,26.362
	c6.441,8.986,13.354,18.077,20.715,27.231c7.496,9.322,15.541,18.806,24.112,28.414c8.493,9.521,17.421,19.072,26.759,28.612
	c9.273,9.474,19.007,19,29.18,28.542c10.03,9.407,20.451,18.796,31.241,28.129c10.164,8.813,20.417,17.363,30.716,25.637
	c10.511,8.444,21.035,16.571,31.529,24.367c10.675,7.931,21.382,15.563,32.073,22.881c10.881,7.448,21.682,14.527,32.357,21.221
	c10.149,6.364,20.298,12.45,30.402,18.238c10.192,5.839,20.197,11.294,29.976,16.351c9.965,5.154,19.721,9.918,29.227,14.278
	c9.496,4.356,18.885,8.368,28.121,12.021c8.543,3.379,16.746,6.375,24.582,8.979c7.932,2.636,15.653,4.936,23.138,6.891
	c7.44,1.943,14.604,3.533,21.466,4.762c6.77,1.213,13.312,2.08,19.599,2.593c6.358,0.518,12.371,0.673,18.005,0.453
	c5.555-0.216,10.803-0.798,15.715-1.754c4.759-0.926,9.183-2.21,13.244-3.86c3.981-1.617,7.589-3.574,10.796-5.876l0.308-0.221
	C888.507,491.811,892.869,486.588,895.898,480.475z M303.093,29.234c-62.899,64.459-112.133,127.725-147.7,189.134
	c-36.558,63.12-58.692,124.305-66.401,182.833c-7.098,53.892-8.61,105.176,3.272,155.192
	c11.902,50.103,37.212,98.856,83.741,147.557c3.67,3.841,7.499,7.72,11.438,11.595c-24.049,17.111-51.287,30.891-81.713,41.337
	c-31.455,10.8-66.315,18.038-104.577,21.714l-0.56,0.054l0.29,0.48c1.329,2.203,2.538,4.418,3.627,6.641
	c1.09,2.226,2.066,4.475,2.927,6.744l0.097,0.255l0.27-0.028c39.232-4.039,75.06-11.641,107.481-22.802
	c31.404-10.811,59.618-24.965,84.64-42.461c5.838,5.429,11.713,10.689,17.494,15.672c56.568,48.765,123.448,74.369,188.936,82.361
	c75.812,9.252,149.827-5.111,203.857-34.474c51.459-27.965,105.706-63.054,156.681-112.172
	c49.596-47.79,96.076-108.843,133.85-189.5c1.017-1.574,1.945-3.209,2.786-4.902c3.677-7.404,5.664-15.906,6.063-25.323
	c0.399-9.444-0.808-19.815-3.516-30.925c-2.733-11.215-6.987-23.174-12.65-35.682c-2.731-6.031-5.82-12.281-9.271-18.738
	c-3.401-6.366-7.105-12.839-11.109-19.403c-3.982-6.527-8.273-13.172-12.874-19.922c-4.504-6.608-9.356-13.385-14.558-20.319
	c-5.499-7.33-11.254-14.675-17.265-22.015c-5.902-7.208-12.23-14.632-18.993-22.266c-6.583-7.432-13.445-14.906-20.585-22.408
	c-7.046-7.402-14.418-14.893-22.12-22.463c-7.798-7.664-15.775-15.235-23.892-22.685c-8.225-7.55-16.664-15.041-25.274-22.443
	c-8.651-7.438-17.443-14.757-26.334-21.927c-9.007-7.263-18.066-14.339-27.136-21.197c-8.882-6.716-18.007-13.39-27.335-19.991
	c-9.288-6.573-18.469-12.855-27.503-18.817c-9.152-6.04-18.314-11.867-27.447-17.455c-9.118-5.579-18.151-10.887-27.062-15.898
	c-9.814-5.519-19.565-10.743-29.204-15.643c-9.562-4.861-19.072-9.43-28.485-13.68c-9.287-4.193-18.452-8.059-27.45-11.568
	c-8.854-3.453-17.576-6.57-26.126-9.323c-8.884-2.861-17.574-5.322-26.022-7.352c-8.335-2.003-16.366-3.573-24.044-4.68
	c-7.587-1.093-14.912-1.748-21.932-1.934c-6.915-0.184-13.467,0.087-19.61,0.839c-13.541,1.673-24.604,5.532-33.23,11.357
	C311.979,17.053,306.828,22.628,303.093,29.234z"/>
<path fill="#050403" stroke="#FFFFFF" stroke-width="0.7087" stroke-miterlimit="22.9256" d="M906.078,428.217
	c-2.733-11.215-6.987-23.174-12.65-35.682c-2.731-6.031-5.82-12.281-9.271-18.738c-3.401-6.366-7.105-12.839-11.109-19.403
	c-3.982-6.527-8.273-13.172-12.874-19.922c-4.504-6.608-9.356-13.385-14.558-20.319c-5.499-7.33-11.254-14.675-17.265-22.015
	c-5.902-7.208-12.23-14.632-18.993-22.266c-6.583-7.432-13.445-14.906-20.585-22.408c-7.046-7.402-14.418-14.893-22.12-22.463
	c-7.798-7.664-15.775-15.235-23.892-22.685c-8.225-7.55-16.664-15.041-25.274-22.443c-8.651-7.438-17.443-14.757-26.334-21.927
	c-9.007-7.263-18.066-14.339-27.136-21.197c-8.882-6.716-18.007-13.39-27.335-19.991c-9.288-6.573-18.469-12.855-27.503-18.817
	c-9.152-6.04-18.314-11.867-27.447-17.455c-9.118-5.579-18.151-10.887-27.062-15.898c-9.814-5.519-19.565-10.743-29.204-15.643
	c-9.562-4.861-19.072-9.43-28.485-13.68c-9.287-4.193-18.452-8.059-27.45-11.568c-8.854-3.453-17.576-6.57-26.126-9.323
	c-8.884-2.861-17.574-5.322-26.022-7.352c-8.335-2.003-16.366-3.573-24.044-4.68c-7.587-1.093-14.912-1.748-21.932-1.934
	c-6.915-0.184-13.467,0.087-19.61,0.839c-13.541,1.673-24.604,5.532-33.23,11.357c-6.588,4.448-11.739,10.023-15.474,16.629
	c-62.899,64.459-112.133,127.725-147.7,189.134c-36.558,63.12-58.692,124.305-66.401,182.833
	c-7.098,53.892-8.61,105.176,3.272,155.192c11.902,50.103,37.212,98.856,83.741,147.557c3.67,3.841,7.499,7.72,11.438,11.595
	c-24.049,17.111-51.287,30.891-81.713,41.337c-31.455,10.8-66.315,18.038-104.577,21.714l-0.56,0.054l0.29,0.48
	c1.329,2.203,2.538,4.418,3.627,6.641c1.09,2.226,2.066,4.475,2.927,6.744l0.097,0.255l0.27-0.028
	c39.232-4.039,75.06-11.641,107.481-22.802c31.404-10.811,59.618-24.965,84.64-42.461c5.838,5.429,11.713,10.689,17.494,15.672
	c56.568,48.765,123.448,74.369,188.936,82.361c75.812,9.252,149.827-5.111,203.857-34.474
	c51.459-27.966,105.706-63.054,156.681-112.172c49.596-47.79,96.076-108.843,133.85-189.5c1.017-1.574,1.945-3.209,2.786-4.902
	c3.677-7.404,5.664-15.906,6.063-25.323C909.992,449.698,908.785,439.327,906.078,428.217z M762.975,674.792
	c-50.553,48.711-104.386,83.528-155.463,111.286c-53.049,28.829-125.826,42.918-200.469,33.809
	c-64.475-7.868-130.295-33.054-185.925-81.01c-7.191-6.199-14.401-12.701-21.372-19.3c-6.711-6.353-13.331-12.919-19.642-19.525
	c-45.763-47.899-70.642-95.789-82.324-144.966c-11.703-49.263-10.198-99.897-3.184-153.154
	c7.609-57.773,29.507-118.253,65.692-180.729c4.295-7.416,8.793-14.859,13.491-22.33c-1.344,19.081,2.42,38.555,8.643,57.397
	c7.539,22.824,18.714,44.75,28.72,63.875c23.825,45.537,53.486,84.905,84.847,118.551c31.341,33.625,64.392,61.551,95.013,84.214
	c80.61,59.662,155.263,103.998,223.372,126.481c63.249,20.878,120.897,22.95,172.484,1.035
	C778.996,658.92,771.027,667.033,762.975,674.792z M901.19,458.188c-0.353,8.337-2.087,15.82-5.292,22.287
	c-3.03,6.113-7.392,11.336-13.163,15.53l-0.308,0.221c-3.207,2.302-6.815,4.258-10.796,5.876c-4.061,1.65-8.485,2.934-13.244,3.86
	c-4.912,0.956-10.16,1.537-15.715,1.754c-5.634,0.22-11.647,0.066-18.005-0.453c-6.287-0.513-12.828-1.38-19.599-2.593
	c-6.861-1.229-14.025-2.819-21.466-4.762c-7.485-1.954-15.206-4.255-23.138-6.891c-7.837-2.604-16.04-5.6-24.582-8.979
	c-9.235-3.653-18.624-7.666-28.121-12.021c-9.506-4.36-19.262-9.125-29.227-14.278c-9.779-5.058-19.784-10.513-29.976-16.351
	c-10.104-5.789-20.253-11.874-30.402-18.238c-10.675-6.694-21.476-13.773-32.357-21.221c-10.691-7.318-21.398-14.951-32.073-22.881
	c-10.494-7.796-21.018-15.923-31.529-24.367c-10.3-8.274-20.553-16.824-30.716-25.637c-10.79-9.333-21.211-18.722-31.241-28.129
	c-10.173-9.542-19.906-19.068-29.18-28.542c-9.338-9.54-18.265-19.091-26.759-28.612c-8.571-9.608-16.616-19.093-24.112-28.414
	c-7.361-9.154-14.274-18.245-20.715-27.231c-6.442-8.988-12.349-17.789-17.696-26.362c-5.396-8.651-10.225-17.055-14.463-25.171
	c-4.223-8.087-7.915-15.993-11.051-23.678c-3.804-9.322-6.718-18.126-8.727-26.359c-1.998-8.19-3.117-15.838-3.346-22.892
	c0.393-14.228,4.767-25.814,13.226-34.258c8.315-8.3,20.656-13.678,37.132-15.676c11.845-1.423,25.185-0.993,39.691,1.085
	c15.167,2.172,31.569,6.13,48.837,11.642c16.824,5.37,34.512,12.236,52.731,20.386c18.594,8.318,37.721,17.969,57.027,28.726
	c17.723,9.876,35.808,20.851,53.956,32.719c18.271,11.948,36.488,24.72,54.351,38.106c17.985,13.478,35.758,27.671,52.993,42.359
	c16.876,14.382,33.205,29.216,48.68,44.294c8.465,8.248,16.549,16.424,24.256,24.515c7.871,8.263,15.312,16.397,22.327,24.386
	l0,0.001c5.328,6.165,10.442,12.287,15.343,18.355c5.001,6.192,9.724,12.256,14.173,18.186c5.041,6.721,9.817,13.395,14.325,20.007
	c4.529,6.644,8.737,13.157,12.622,19.526c3.961,6.492,7.579,12.811,10.855,18.943c3.301,6.178,6.306,12.266,9.013,18.246
	c5.456,12.051,9.54,23.498,12.143,34.152C900.421,439.774,901.56,449.447,901.19,458.188z"/>
</svg>
