<?xml version="1.0" encoding="utf-8"?>
<!-- Generator: Adobe Illustrator 21.0.0, SVG Export Plug-In . SVG Version: 6.00 Build 0)  -->
<svg version="1.1" id="Layer_1" xmlns="http://www.w3.org/2000/svg" xmlns:xlink="http://www.w3.org/1999/xlink" x="0px" y="0px"
	 viewBox="0 0 842.8 1417.3" style="enable-background:new 0 0 842.8 1417.3;" xml:space="preserve">
<style type="text/css">
	.st0{fill:#020202;}
</style>
<g>
	<path class="st0" d="M461,884c-3.3,0-7.2,0.2-10,0.6v26.9h8.2V905h2.9c7.6,0,12.5-3.9,12.5-10.8C474.6,886.7,469.4,884,461,884z
		 M460.6,900.2h-1.3v-11.1c0.5,0,0.9,0,1.3,0c4,0,6,1.9,6,5.3C466.5,897.8,464.8,900.2,460.6,900.2z"/>
	<path class="st0" d="M485.3,891.4c0-1.5,1.5-2.1,3.8-2.1c2.6,0,5.4,0.6,7.3,1.4l-0.7-5.9c-2.1-0.5-4-0.8-7.5-0.8
		c-6.6,0-11.1,2.6-11.1,8.1c0,9.4,12.8,7.5,12.8,11.9c0,1.7-1.2,2.6-4.3,2.6c-2.7,0-6.9-0.9-9.3-2.1l0.9,6.2
		c2.5,0.9,5.8,1.3,8.5,1.3c6.9,0,12.5-2.3,12.5-9C498.2,894,485.3,895.7,485.3,891.4z"/>
	<path class="st0" d="M369.1,894.2c0-7.5-5.2-10.2-13.6-10.2c-3.3,0-7.2,0.2-10,0.6v26.9h8.2V905h2.9
		C364.2,905,369.1,901.1,369.1,894.2z M355,900.2h-1.4v-11.1c0.5,0,0.9,0,1.4,0c4,0,6,1.9,6,5.3C361,897.8,359.3,900.2,355,900.2z"
		/>
	<polygon class="st0" points="380.5,900.9 389.1,900.9 389.1,911.4 397.3,911.4 397.3,884.5 389.1,884.5 389.1,895.2 380.5,895.2 
		380.5,884.5 372.3,884.5 372.3,911.4 380.5,911.4 	"/>
	<rect x="403.3" y="884.5" class="st0" width="8.2" height="26.9"/>
	<rect x="436.6" y="884.5" class="st0" width="8.2" height="26.9"/>
	<polygon class="st0" points="433.7,906 425.8,906 425.8,884.5 417.6,884.5 417.6,911.4 432.5,911.4 	"/>
	<polygon class="st0" points="372.7,937.7 361.2,937.7 361.2,928.5 359,928.5 359,949.6 361.2,949.6 361.2,939.7 372.7,939.7 
		372.7,949.6 374.9,949.6 374.9,928.5 372.7,928.5 	"/>
	<path class="st0" d="M390.1,943.3c0,0.5-0.1,1-0.4,1.5c-0.3,0.5-0.6,1-1,1.4c-0.4,0.4-1,0.8-1.6,1c-0.6,0.3-1.2,0.4-1.9,0.4
		c-0.4,0-0.8-0.1-1.2-0.2c-0.3-0.1-0.6-0.3-0.9-0.5s-0.4-0.5-0.5-0.9c-0.1-0.4-0.2-0.8-0.2-1.3v-10.6h-2.2v10.8
		c0,0.7,0.1,1.3,0.3,1.9c0.2,0.6,0.5,1,0.9,1.4c0.4,0.4,0.9,0.7,1.4,0.9c0.6,0.2,1.2,0.3,1.9,0.3c0.5,0,1,0,1.4-0.1
		c0.5-0.1,0.9-0.2,1.4-0.5c0.5-0.2,0.9-0.5,1.3-0.9c0.4-0.4,0.8-0.8,1.2-1.3v2.7h2.2v-15.4h-2.2V943.3z"/>
	<path class="st0" d="M407.6,936.1c-0.6-0.7-1.3-1.2-2.1-1.6c-0.8-0.4-1.7-0.6-2.8-0.6c-1.1,0-2,0.2-2.9,0.6c-0.9,0.4-1.6,1-2.2,1.7
		c-0.6,0.7-1.1,1.5-1.4,2.5c-0.3,0.9-0.5,1.9-0.5,2.9c0,1.1,0.2,2.1,0.5,3.1c0.3,1,0.8,1.9,1.4,2.6c0.6,0.8,1.3,1.4,2.2,1.8
		c0.9,0.5,1.8,0.7,2.9,0.7c0.7,0,1.5-0.1,2.1-0.3s1.3-0.5,1.9-1c0.6-0.4,1.1-1,1.5-1.6c0.4-0.6,0.7-1.3,0.9-2.1h-2
		c-0.7,2-2.2,3-4.3,3c-0.6,0-1.2-0.2-1.8-0.5s-1-0.8-1.4-1.3c-0.4-0.5-0.7-1.1-1-1.8c-0.2-0.7-0.4-1.4-0.4-2.1h11.2v-0.9
		c0-1.1-0.2-2-0.5-2.9C408.6,937.6,408.2,936.8,407.6,936.1z M398.2,940.6c0-0.6,0.1-1.2,0.4-1.7c0.2-0.6,0.5-1.1,0.9-1.5
		c0.4-0.4,0.9-0.8,1.4-1s1.1-0.4,1.7-0.4c0.7,0,1.3,0.1,1.9,0.4c0.6,0.2,1,0.6,1.4,1c0.4,0.4,0.7,0.9,0.9,1.5
		c0.2,0.6,0.3,1.2,0.4,1.8H398.2z"/>
	<polygon class="st0" points="432.8,946.8 429.5,934.2 427,934.2 423.6,946.8 420.4,934.2 418.1,934.2 422.4,949.6 424.8,949.6 
		428.3,937 431.8,949.6 434.1,949.6 438.5,934.2 436.2,934.2 	"/>
	<path class="st0" d="M451.9,935.2c-0.4-0.4-1-0.7-1.6-1c-0.6-0.2-1.3-0.3-2-0.3c-0.5,0-1,0-1.4,0.1c-0.5,0.1-0.9,0.2-1.3,0.4
		c-0.4,0.2-0.8,0.4-1.2,0.7c-0.4,0.3-0.7,0.7-1,1.2v-7.9h-2.2v21.2h2.2v-9.5c0-0.6,0.1-1.1,0.4-1.7c0.3-0.5,0.6-1,1-1.3
		c0.4-0.4,0.9-0.7,1.4-0.9c0.5-0.2,1.1-0.3,1.6-0.3c0.4,0,0.8,0.1,1.2,0.2c0.4,0.1,0.7,0.3,1,0.5c0.3,0.2,0.5,0.5,0.7,0.9
		c0.2,0.4,0.3,0.8,0.3,1.3v10.7h2.2v-11.1c0-0.6-0.1-1.2-0.4-1.8C452.7,936.1,452.4,935.6,451.9,935.2z"/>
	<rect x="457.9" y="934.2" class="st0" width="2.2" height="15.4"/>
	<rect x="457.9" y="928.4" class="st0" width="2.2" height="2.6"/>
	<path class="st0" d="M469.2,948c-0.2,0-0.4,0-0.6-0.1c-0.2-0.1-0.4-0.2-0.5-0.3c-0.1-0.1-0.3-0.3-0.3-0.5c-0.1-0.2-0.1-0.5-0.1-0.8
		v-10.1h2.7v-1.9h-2.7V930h-2.2v4.3H463v1.9h2.4V947c0,0.5,0.1,1,0.3,1.4c0.2,0.4,0.4,0.7,0.7,0.9c0.3,0.2,0.7,0.4,1,0.5
		c0.4,0.1,0.8,0.2,1.2,0.2c0.4,0,0.9,0,1.3-0.1c0.4-0.1,0.8-0.2,1-0.2v-1.8c-0.2,0.1-0.5,0.1-0.8,0.2
		C469.8,947.9,469.5,948,469.2,948z"/>
	<path class="st0" d="M484.7,936.1c-0.6-0.7-1.3-1.2-2.1-1.6c-0.8-0.4-1.7-0.6-2.8-0.6c-1.1,0-2,0.2-2.9,0.6c-0.9,0.4-1.6,1-2.2,1.7
		c-0.6,0.7-1.1,1.5-1.4,2.5c-0.3,0.9-0.5,1.9-0.5,2.9c0,1.1,0.2,2.1,0.5,3.1c0.3,1,0.8,1.9,1.4,2.6c0.6,0.8,1.3,1.4,2.2,1.8
		c0.9,0.5,1.8,0.7,2.9,0.7c0.7,0,1.5-0.1,2.1-0.3s1.3-0.5,1.9-1c0.6-0.4,1.1-1,1.5-1.6c0.4-0.6,0.7-1.3,0.9-2.1h-2
		c-0.7,2-2.2,3-4.3,3c-0.6,0-1.2-0.2-1.8-0.5s-1-0.8-1.4-1.3c-0.4-0.5-0.7-1.1-1-1.8c-0.2-0.7-0.4-1.4-0.4-2.1h11.2v-0.9
		c0-1.1-0.2-2-0.5-2.9C485.7,937.6,485.3,936.8,484.7,936.1z M475.3,940.6c0-0.6,0.1-1.2,0.4-1.7c0.2-0.6,0.5-1.1,0.9-1.5
		c0.4-0.4,0.9-0.8,1.4-1s1.1-0.4,1.7-0.4c0.7,0,1.3,0.1,1.9,0.4c0.6,0.2,1,0.6,1.4,1c0.4,0.4,0.7,0.9,0.9,1.5
		c0.2,0.6,0.3,1.2,0.4,1.8H475.3z"/>
	<path class="st0" d="M824.9,413.2c0-107.7-41.9-209-118.1-285.1C630.7,52,529.4,10,421.7,10S212.7,52,136.6,128.1
		S18.5,305.5,18.5,413.2c0,82.5,24.6,161.4,71.2,228.8c-3.2,7.3-0.5,15.6,0.5,18.1l0.1,0.3c1.7,3.9,41.2,96.7,55.6,122.3
		c33.1,58.6,49.9,112.8,49.9,160.9v63c0,1.8,0.4,43.7,31.3,69.4c6.1,20.2,12.8,33.3,20.1,39.2c0.4,7.3,1.5,13.2,4.3,18.1
		c1.8,3.3,5.9,5.9,13.6,10.6c0.6,0.7,1.1,1.3,1.7,2v0.1c0.8,0.9,1.4,1.7,2,2.2c2.5,3.1,4.9,6.5,6.7,9.8c1.6,3,2.8,6,3.5,8.9l0.1,0.4
		l0.1,0.3c2.2,6,4,13.8,5.6,23c1.8,10.1,3.1,21.6,4.1,33.9c1,13.5,1.8,27.5,2.2,41.4c0.4,15.4,0.5,30.6,0.2,44.2l-0.1,4.8l0.7,0.1
		l37.1,40.1h-0.3l12.6,11l32.5,28.4l0.1,0.1l0.8,0.7c5.9,5.2,11.9,10.2,42.5,11.3h0.5c30.7-1.1,36.6-6.2,42.5-11.3l0.8-0.7l0.1-0.1
		l32.5-28.4l12.6-11H506l38-40.2h-0.5l-0.1-4.8c-0.3-13.6-0.3-28.8,0.2-44.2c0.3-13.8,1-27.9,2.2-41.4c1-12.3,2.4-23.8,4.1-33.9
		c1.5-9.1,3.4-17,5.6-23l0.1-0.3l0.1-0.4c0.7-2.9,1.9-5.9,3.4-8.9c1.9-3.4,4.2-6.7,6.7-9.8c0.6-0.7,1.2-1.4,2.1-2.3
		c0.8-1,1.7-2,2.4-3c8.1-3.7,12.5-6.1,14.3-9.6c2.3-4.2,3.4-9.1,4-14.9l0.4,0.3c10-1.8,19.1-16.1,27.1-42.6
		c30.9-25.6,31.3-67.6,31.3-69.4v-63c0-48.1,16.8-102.3,49.9-160.9c14.4-25.5,53.9-118.3,55.6-122.3l0.1-0.3
		c0.9-2.4,3.6-10.8,0.5-18.1C800.3,574.6,824.9,495.7,824.9,413.2z M103.7,645.9l-0.1,0.5l-0.2-0.6
		C103.5,645.9,103.6,645.9,103.7,645.9z M150.6,142.2C223,69.7,319.3,29.9,421.7,29.9s198.7,39.9,271.1,112.3
		c72.4,72.4,112.3,168.7,112.3,271.1c0,81.8-25.5,159.9-73.6,225.9c-90.9,16.8-232,19.3-309.3,19.3c-77.6,0-219.5-2.6-310.4-19.5
		C63.7,573,38.3,495,38.3,413.2C38.3,310.8,78.2,214.6,150.6,142.2z M583.9,1099.7c0,0-3.3,3.4-5.9,6.2l-2,0.2
		c-51.1,5.8-104.2,9-158,9.5c-50.4-0.4-100.2-3.2-148.3-8.4l-0.4,0.1c0,0-1.4-0.2-3.7-0.5c-2.5-3-6.2-7-6.2-7
		c-2.8-2.1-8.1-13.7-12.1-25.8c17.4,5.3,47.7,9.3,90.7,11.9c40.7,2.5,78.3,2.8,78.7,2.8h10c0.4,0,38-0.3,78.6-2.8
		c42.9-2.6,73.3-6.6,90.7-11.9C592,1086.1,586.7,1097.6,583.9,1099.7z M452.5,1387l-0.8,0.7c-4.3,3.7-8.5,7.4-34.5,8.3
		c-26-0.9-30.2-4.7-34.5-8.3l-0.7-0.7l-21-18.3c3.3,0.1,6.7,0.3,10.5,0.4c6.7,0.2,14,0.4,21.7,0.4c7.7,0.1,15.7,0.1,23.9,0.1
		c8.2,0,16.3-0.1,23.9-0.1c7.8-0.1,15.2-0.2,21.7-0.4c3.7-0.1,7.2-0.3,10.4-0.4L452.5,1387z M545.6,1155.1
		c-1.9,3.6-3.3,7.1-4.1,10.8c-2.2,6.5-4.2,14.5-5.8,23.8c-1.7,10.1-3,21.7-4,34c-1.1,13-1.8,27-2.2,41c-0.4,13.5-0.5,26.8-0.3,39.1
		l-5,0.4c-4,0.3-7.7,0.6-11.2,0.7c-4.9,0.3-9.6,0.6-14.1,0.7c-5.1,0.3-10,0.5-14.8,0.7c-5.6,0.2-11,0.4-16.1,0.6
		c-5.6,0.1-11.2,0.3-16.6,0.4c-5.9,0.1-11.6,0.2-17.1,0.3c-5.8,0.1-11.5,0.1-17.1,0.1c-5.5,0-11.2-0.1-17.1-0.1
		c-5.5-0.1-11.2-0.1-17.1-0.3c-5.4-0.1-11-0.3-16.6-0.4c-5.2-0.2-10.6-0.4-16.1-0.6c-4.8-0.2-9.7-0.4-14.8-0.7
		c-4.6-0.2-9.3-0.5-14.1-0.7c-3.5-0.2-7.2-0.5-11.1-0.7l-5-0.4c0.1-8.5,0.2-17.5,0-26.8c13.3,1.1,27.9,2.1,42.9,2.7
		c27.5,1.2,56.1,1.8,80.8,1.8v-8c-24.9,0-53.5-0.5-80.5-1.7c-15.2-0.7-30-1.6-43.5-2.8c0-1.4-0.1-2.9-0.1-4.3
		c-0.2-6.6-0.5-13.2-0.7-19.7c13.6,1.2,28.6,2.2,43.9,2.8c27.5,1.2,56.1,1.8,80.8,1.8v-8c-24.9,0-53.5-0.5-80.5-1.8
		c-15.6-0.7-30.9-1.7-44.8-2.9c-0.3-4.6-0.6-9-0.9-13.4c-0.3-3.7-0.7-7.2-1-10.7c14.2,1.3,30.1,2.2,46.4,3
		c27.5,1.2,56.1,1.8,80.8,1.8v-8c-24.9,0-53.5-0.5-80.5-1.8c-16.8-0.7-33.1-1.8-47.6-3.2c-0.7-5.3-1.4-10.5-2.2-15.3
		c-0.6-3.2-1.1-6.2-1.7-9c15.5,1.5,33,2.6,51.3,3.5c27.5,1.2,56.1,1.8,80.8,1.8v-8c-24.9,0-53.5-0.5-80.5-1.7
		c-19.1-0.8-37.6-2.1-53.6-3.7c-0.7-2.3-1.3-4.6-2.1-6.7c-0.8-3.7-2.2-7.2-4-10.8c-1.2-2.2-2.6-4.4-4-6.6l4.6,0.5
		c7.1,0.7,14.5,1.3,22.2,1.8c15,1,31.7,1.8,48.8,2.3c19,0.7,38.4,0.9,56.5,1h0.1c18-0.1,37.5-0.4,56.5-1c17.1-0.6,33.8-1.3,48.8-2.3
		c7.9-0.5,15.6-1.1,22.7-1.9l4.9-0.5C548.2,1150.6,546.8,1152.8,545.6,1155.1z M573.1,1126.2c-1.7,1.3-7.2,3.8-10.7,5.4
		c-3.9,1.9-7,3.3-9.5,4.7c-2.2,0.3-4.6,0.5-7,0.7c-7,0.7-14.7,1.3-22.8,1.9c-15.6,1.1-32.4,1.9-49.3,2.4c-19.5,0.7-39.1,0.9-57.2,1
		c-18.1-0.1-37.8-0.4-57.3-1c-16.9-0.6-33.6-1.3-49.2-2.4c-8-0.6-15.5-1.1-22.2-1.8c-3.6-0.4-7-0.7-10.3-1.1c-1.5-0.9-3.2-2-5.2-3.1
		c-3.2-2-8.4-5.1-9.9-6.5c-1.6-3.2-2.2-7.8-2.5-13.6c48.5,5.4,98.6,8.5,149.5,9.2v0.1c2.8,0,5.6,0,8.4-0.1c2.8,0,5.6,0,8.4,0.1v-0.1
		c50.8-0.7,100.8-3.7,149.1-9.3C575.3,1118.6,574.6,1123.1,573.1,1126.2z M735.3,649.5c0.1,0.6-0.2,2.2-0.6,3.4
		c-2.1,5-41,96-54.5,120.1c-34.8,61.7-52.5,119.1-52.5,170.7v63c0,1.4-0.3,31.1-20.7,51c-1.5,1.1-3,2.1-4.5,3
		c-22.7,13.9-134.6,17.7-175.8,18h-10c-41.2-0.3-153.1-4.1-175.8-18c-1.5-0.9-3-2-4.5-3c-20.4-19.9-20.7-49.6-20.7-51v-63
		c0-51.6-17.7-109-52.5-170.7c-13.6-24-52.4-115.1-54.5-120.1c-0.4-1.2-0.7-2.9-0.6-3.4c-0.1,0.9-1.3,2.4-2.7,2.8l-1.4-4.8
		c48,9.5,142.1,20.8,318.3,20.8c175,0,269-11.2,317.3-20.7l-1.4,4.7C736.6,651.9,735.5,650.4,735.3,649.5z"/>
</g>
</svg>
