<?xml version="1.0" encoding="utf-8"?>
<!-- Generator: Adobe Illustrator 19.0.0, SVG Export Plug-In . SVG Version: 6.00 Build 0)  -->
<svg version="1.1" id="Layer_1" xmlns="http://www.w3.org/2000/svg" xmlns:xlink="http://www.w3.org/1999/xlink" x="0px" y="0px"
	 viewBox="-252.8 350.8 87.2 68.4" style="enable-background:new -252.8 350.8 87.2 68.4;" xml:space="preserve">
<g>
	<path d="M-177.4,362.6c3.2,0,6.6-2.6,7.4-5.9c0.9-3.2-1.1-5.9-4.3-5.9c-3.2,0-6.6,2.6-7.4,5.9
		C-182.6,359.9-180.6,362.6-177.4,362.6z"/>
	<path d="M-166.4,382l-7.5-3.8l-2.5-11.1c0-0.4-0.1-0.7-0.2-1.1l-0.1-0.3c-0.1-0.7-0.5-1.1-1-1.4c-0.5-0.5-1.2-0.9-2-1
		c-0.5-0.1-0.9-0.1-1.4-0.1c-0.4,0-0.9,0-1.4,0.2c-0.8,0.2-1.6,0.6-2.3,1l-14.4,6.7c-0.3,0.1-0.5,0.3-0.7,0.4
		c-0.7,0.3-1.3,0.9-1.7,1.7l-4.7,10.5c-0.6,1.3-0.1,2.6,1.2,2.8c1.2,0.2,2.7-0.6,3.3-1.9l4.5-9.8l7.8-3.6l-6.6,13.6
		c-0.2,0.4-0.3,0.8-0.4,1.2l-6,14.2c-0.1,0.1-0.1,0.1-0.2,0.2l-12.6,13.8c-1.6,1.7-1.9,3.8-0.8,4.7c1.1,0.9,3.3,0.2,4.9-1.5
		l12.6-13.8c0.4-0.4,0.7-0.9,0.9-1.4c0.2-0.2,0.3-0.5,0.4-0.8l4.5-10.5c0.2,0.1,0.4,0.1,0.6,0.2c0.7,0.2,1.2,0.4,1.7,0.6l6.4,11.1
		l-0.7,13.7c-0.1,1.7,1.2,2.9,2.9,2.5c1.7-0.3,3.2-2,3.2-3.8l0.8-13.9c0-0.6-0.1-1-0.3-1.4c-0.1-0.2-0.1-0.4-0.2-0.6l-6.7-11.6
		l5.8-12l1.1,4.7c0,0.1,0.1,0.3,0.1,0.4c0,0.7,0.2,1.2,0.8,1.5l7.9,4c1,0.5,2.5-0.1,3.4-1.3C-165.3,383.9-165.4,382.5-166.4,382z"/>
</g>
<rect x="-252.8" y="350.8" width="63.3" height="1.7"/>
<rect x="-252.8" y="359" width="59.7" height="2.3"/>
<rect x="-252.8" y="366.7" width="45.3" height="2"/>
<rect x="-252.8" y="375.5" width="37.7" height="1.8"/>
<rect x="-252.8" y="385.2" width="34" height="1.2"/>
<rect x="-252.8" y="391.2" width="41.5" height="2.5"/>
<rect x="-252.8" y="402.3" width="35" height="1.5"/>
<rect x="-252.8" y="417.2" width="22.7" height="1.6"/>
<rect x="-252.8" y="409.3" width="25.7" height="2.5"/>
</svg>
