<?xml version="1.0" encoding="utf-8"?>
<!-- Generator: Adobe Illustrator 19.0.0, SVG Export Plug-In . SVG Version: 6.00 Build 0)  -->
<svg version="1.1" id="Layer_1" xmlns="http://www.w3.org/2000/svg" xmlns:xlink="http://www.w3.org/1999/xlink" x="0px" y="0px"
	 viewBox="-254.1 366.9 98.5 71.3" style="enable-background:new -254.1 366.9 98.5 71.3;" xml:space="preserve">
<path d="M-207.2,388.2l-23.3-21.3l-10.4,9.3v-4.3h-5.5v9.3l-7.6,6.8l3.6,4l4-3.6v2h0l0,25.2l6.8,0V401h6.3v14.6h18.5l0-27.1l4,3.7
	L-207.2,388.2z M-233.4,394.2h-5.9v-6.1h5.9V394.2z M-221.7,394.2h-5.9v-6.1h5.9V394.2z"/>
<path d="M-159.9,390c2.9-0.6,4.9-3.5,4.3-6.5c-0.6-3-3.5-4.9-6.4-4.3c-2.9,0.6-4.8,3.5-4.3,6.5C-165.8,388.7-162.9,390.6-159.9,390"
	/>
<path d="M-191.7,385.4c-7.2,2.3-10.1,7.2-8.7,11.6c1.4,4.3,6.5,6,13.7,3.7c7.2-2.4,16.3-10.6,15.6-12.9
	C-172,385.2-184.5,383.1-191.7,385.4z"/>
<path d="M-157.1,395.8c-1.3-0.7-2.9-0.2-3.6,1.2l-1.1,2.2l-1.2-6.7c-0.1-0.6-0.8-1.5-0.8-1.5c-0.8-0.8-1.7-1.2-2.9-1.2
	c-1.1,0-2,0.4-2.8,1.2l-11.9,11.8c-0.5,0.5-3.9,3.5-4.5,6.8l-1.9,11.1l-10.3-1.4c-1.7-0.2-3.4,0.6-3.7,2.2c-0.5,3.1,3.4,3.6,3.4,3.6
	s11.4,1.8,14.1,1.8c2.2-0.1,3.3-2,3.5-3.1c0.7-3.3,2.2-9.4,2.2-9.4s4.9,4.9,6.8,7.4l2.5,13.4c0.1,0.3,0.2,0.6,0.3,0.9h-26.6v2.2
	h29.4v0c0.2,0,0.4,0,0.7-0.1c2-0.4,2.6-2,2.3-4.1l-1.9-13.2c-0.1-0.9-0.3-2.5-1-3.4c0,0-4.5-5.8-6.1-7.8l5.8-5.8l0.7,4.1
	c0.2,1.1,1.1,2,2.3,2.2c0.1,0,0.3,0,0.4,0c1,0,1.9-0.6,2.4-1.5l4.7-9.2C-155.2,398.1-155.7,396.5-157.1,395.8z"/>
</svg>
