<?xml version="1.0" encoding="utf-8"?>
<!-- Generator: Adobe Illustrator 19.0.0, SVG Export Plug-In . SVG Version: 6.00 Build 0)  -->
<svg version="1.1" id="Layer_1" xmlns="http://www.w3.org/2000/svg" xmlns:xlink="http://www.w3.org/1999/xlink" x="0px" y="0px"
	 viewBox="-232.8 354.4 56.2 85.4" style="enable-background:new -232.8 354.4 56.2 85.4;" xml:space="preserve">
<g>
	<path d="M-181.6,368c-3.2-3.6-7.5-5.8-11.9-6.4c-8.7-9.3-22.2-9.5-31.5-1.3c-9.5,8.4-11,23-0.8,33.7c0.3,0.3,0.1,0.1,0,0
		c-1.8,5.4-1.2,14.2,4.1,18c-0.2-0.1-0.2-0.2,0.1,0.1c-3,7.2-1.3,12.3,4,16c-0.7,2-1.9,5.3,0.8,8.6c2.7,3.4,10.4,4.4,14.9,0.6
		c4-3.4,3.5-7.6,2.3-10.2c4-2,9-5.2,6.8-12.7c1.6-2,2.1-3.8,2.4-6.3c2.2-0.5,4.3-1.5,6.1-3.1c3.8-3.3,5.2-8.4,4.1-13
		C-175,385-175.4,375-181.6,368z M-224.6,362.3c8.4-8.3,21.9-8.2,30.1,0.2c0.1,0.1,0.3,0.3,0.4,0.4c-8.3-8-21.5-8-29.7,0.2
		c-8.2,8.1-8.5,21.3-0.6,29.7c-0.1-0.1-0.3-0.3-0.4-0.4C-233.1,384.1-233,370.6-224.6,362.3z M-219.7,413.1c3-4.5,10.1-6.7,14.7-3.6
		c-4.5-2.9-11.2-0.5-14.2,3.9c-3,4.4-1.9,10.4,2.4,13.5c-0.1,0-0.1-0.1-0.2-0.1C-221.5,423.8-222.7,417.6-219.7,413.1z
		 M-217.2,434.1c-0.7-2.5,0.3-7.1,3.5-8.1c-3.1,1-3.9,5.7-3.2,8.1c0.7,2.4,4.7,4.9,8,4.7C-212.2,439-216.4,436.5-217.2,434.1z
		 M-201.2,426.3c0.9,1,1.6,2.8,1.7,4.1c0.4,3.8-2.8,8-7.7,8.4c-0.1,0-0.2,0-0.2,0c4.8-0.5,7.6-4.6,7.2-8.3c-0.1-1.3-1-2.7-1.9-3.7
		l0,0c-1.6-1.8-4.3-3-7.5-2.8C-206.4,423.7-203,424.5-201.2,426.3c4.7-1.6,7.7-5.7,6.7-9.5c-1-4-6-6.2-11.2-5c0.1,0,0.2,0,0.3-0.1
		c5.3-1.3,10.4,0.9,11.4,4.9C-193,420.6-196.2,424.8-201.2,426.3z M-192.9,411.2c0,0.1-0.1,0.2-0.1,0.3c2.1-5.7-0.7-12.1-6.4-14.4
		s-12.2,0.4-14.6,6.1c0-0.1,0.1-0.2,0.1-0.3c2.3-5.8,8.9-8.7,14.7-6.3C-193.4,398.8-190.6,405.4-192.9,411.2z M-215,385.6
		c-8.6,4.4-12.1,14.8-7.9,23.5c-0.1-0.1-0.2-0.3-0.2-0.4c-4.5-8.7-1-19.4,7.7-23.9c8.7-4.5,19.4-1,23.9,7.7c0.1,0.1,0.1,0.3,0.2,0.4
		C-196,384.5-206.5,381.2-215,385.6z M-190.7,406.5c-0.1,0-0.2,0-0.3,0.1c6.5-1.9,10.5-8.1,9-13.9c-1.6-5.9-8.1-9.3-14.7-7.7
		c0.1,0,0.2-0.1,0.3-0.1c6.7-1.8,13.4,1.7,15,7.6C-179.9,398.4-184,404.7-190.7,406.5z M-181.2,392.8c4.2-8.9,2.9-22-6.3-26.7
		c-9.2-4.7-18.6-1.7-23.4,6.9c0.1-0.1,0.1-0.3,0.2-0.4c4.6-9,14.2-12.1,23.6-7.4c9.3,4.8,10.7,18.2,6.1,27.1
		C-181,392.5-181.1,392.6-181.2,392.8z"/>
	<path d="M-225.8,394.1C-225.8,394.1-225.8,394.1-225.8,394.1C-226.1,393.8-225.9,393.9-225.8,394.1z"/>
</g>
</svg>
