<svg xmlns="http://www.w3.org/2000/svg" xmlns:xlink="http://www.w3.org/1999/xlink" version="1.1" x="0px" y="0px" viewBox="0 0 144.667 275.667" enable-background="new 0 0 144.667 275.667" xml:space="preserve"><g><path d="M30.093,67.903c-2.086-4.777-7.295-18.811-7.295-28.607c0-11.872,7.282-28.577,7.356-28.745   c1.278-2.905,0.24-6.437-2.32-7.889c-2.563-1.455-5.676-0.275-6.957,2.631c-0.345,0.782-8.449,19.337-8.449,34.003   c0,14.666,8.104,33.22,8.449,34.003l0.146,0.309c1.868,3.672,6.714,15.334,6.714,25.07c0,15.357-6.561,27.588-6.619,27.695   c-1.519,2.756-0.781,6.385,1.648,8.107c0.854,0.605,1.805,0.895,2.743,0.895c1.729,0,3.418-0.98,4.401-2.766   c0.335-0.607,8.196-15.092,8.196-33.932C38.108,84.491,31.012,69.75,30.093,67.903z"></path><path d="M60.173,67.903c-2.085-4.777-7.294-18.811-7.294-28.607c0-11.872,7.28-28.577,7.356-28.745   c1.276-2.905,0.238-6.437-2.321-7.889c-2.562-1.455-5.676-0.275-6.956,2.631C50.613,6.075,42.51,24.63,42.51,39.296   c0,14.666,8.103,33.22,8.448,34.003l0.146,0.309c1.868,3.672,6.714,15.334,6.714,25.07c0,15.357-6.56,27.588-6.618,27.695   c-1.518,2.756-0.78,6.385,1.647,8.107c0.854,0.605,1.806,0.895,2.744,0.895c1.728,0,3.417-0.98,4.401-2.766   c0.335-0.607,8.195-15.092,8.195-33.932C68.188,84.491,61.093,69.75,60.173,67.903z"></path><path d="M90.253,67.903c-2.084-4.777-7.292-18.811-7.292-28.607c0-11.872,7.28-28.577,7.354-28.745   c1.277-2.905,0.239-6.437-2.321-7.889c-2.562-1.455-5.674-0.275-6.955,2.631C80.693,6.075,72.59,24.63,72.59,39.296   c0,14.666,8.103,33.222,8.449,34.003l0.146,0.309c1.868,3.672,6.712,15.334,6.712,25.072c0,15.357-6.56,27.586-6.617,27.695   c-1.518,2.756-0.78,6.385,1.648,8.105c0.854,0.605,1.806,0.895,2.742,0.895c1.729,0,3.418-0.979,4.401-2.766   c0.336-0.607,8.197-15.092,8.197-33.93C98.27,84.491,91.173,69.752,90.253,67.903z"></path><path d="M120.335,67.903c-2.088-4.777-7.296-18.811-7.296-28.607c0-11.872,7.28-28.577,7.356-28.745   c1.278-2.905,0.24-6.437-2.319-7.889c-2.564-1.455-5.677-0.275-6.958,2.631c-0.344,0.782-8.449,19.337-8.449,34.003   c0,14.666,8.105,33.222,8.449,34.003l0.146,0.309c1.867,3.672,6.715,15.334,6.715,25.072c0,15.357-6.562,27.586-6.621,27.695   c-1.518,2.756-0.78,6.385,1.649,8.105c0.855,0.605,1.805,0.895,2.742,0.895c1.729,0,3.42-0.979,4.402-2.766   c0.335-0.607,8.195-15.092,8.195-33.93C128.348,84.491,121.253,69.752,120.335,67.903z"></path><path d="M139.208,251.543l-11.609-0.262c-2.953-0.082-5.26-3.374-5.316-7.224h0.01l0.057-83.499l0.016-1.125l0.014-0.26   c0-0.002,0-0.003,0-0.003c0-9.16-5.736-16.612-12.787-16.612c-7.049,0-12.783,7.452-12.783,16.612c0,0,0,0.001,0,0.003   l-0.006,97.744l-0.018,0.534c0,4.198-2.613,7.581-5.842,7.581c-3.139,0-5.699-3.224-5.848-7.253l0.059-98.606h0.035   c0-0.002,0-0.003,0-0.003c0-9.16-5.736-16.612-12.787-16.612c-7.048,0-12.786,7.452-12.786,16.612c0,0,0,0.001,0,0.003   l-0.02,98.278h-0.002c0,4.198-2.612,7.581-5.843,7.581s-5.86-3.417-5.86-7.614c0,0,0-0.002,0-0.003l-0.158-97.575   c0-0.002,0-0.003,0-0.003c0-9.16-5.737-16.612-12.786-16.612c-7.05,0-12.786,7.452-12.786,16.612c0,0,0,0.001,0,0.003l-0.245,71.37   h0.008l-0.089,11.371c-0.057,3.85-1.938,7.191-4.88,7.362c-0.433-0.004-11.496,0.224-11.496,0.224s-4.625,0.076-4.625,4.25   c0,3.949,4.229,4.271,4.462,4.271c0,0,11.563-0.008,11.565-0.008c6.678-0.188,12.071-7.256,12.129-15.96h0.07l0.041-44.744h-0.039   l0.024-38.139c0-4.197,2.629-7.614,5.861-7.614c3.23,0,5.855,3.091,5.855,7.288l0.031,99.531   c0.413,8.681,6.135,14.988,12.918,14.988c6.835,0,12.422-7.014,12.753-15.792l0.006-101.131c0.031-2.135,2.661-5.552,5.891-5.552   s5.861,3.417,5.861,7.614c0,0,0,0.001,0,0.003h0.006l-0.113,98.242c0,0.001,0,0.003,0,0.003c0,9.16,5.736,16.612,12.787,16.612   c6.836,0,12.434-6.616,12.766-15.395l0.031-0.397l-0.008-99.068c0-4.197,2.629-7.614,5.859-7.614s5.863,3.417,5.863,7.614   c0,0,0,0.001,0,0.003h0.004l0.016,0.791l0.047,84.094c0.057,8.704,5.166,15.765,11.844,15.953l11.893,0.014   c0.232,0,3.701-0.408,3.701-4.357C142.958,251.495,139.441,251.543,139.208,251.543z"></path></g></svg>