<?xml version="1.0" encoding="UTF-8"?>
<!-- Generator: Adobe Illustrator 17.0.0, SVG Export Plug-In . SVG Version: 6.00 Build 0)  -->
<!DOCTYPE svg PUBLIC "-//W3C//DTD SVG 1.1//EN" "http://www.w3.org/Graphics/SVG/1.1/DTD/svg11.dtd">
<svg version="1.1" id="Layer_1" xmlns="http://www.w3.org/2000/svg" xmlns:xlink="http://www.w3.org/1999/xlink" x="0px" y="0px" width="487.858px" height="405.336px" viewBox="0 0 487.858 405.336" enable-background="new 0 0 487.858 405.336" xml:space="preserve">
<path fill-rule="evenodd" clip-rule="evenodd" fill="#2B2A29" d="M452.791,17.503c-0.773-0.238-1.542-0.355-2.265-0.355l-0.05-0.006  l-45.2-1.623v0.004c-3.316,0-8.215,1.735-12.447,5.098c-3.317,2.636-6.189,6.261-7.509,10.815l-0.005,0.016l-97,318.939l-0.001,0  c-0.283,0.985-0.518,2.064-0.679,3.205c-0.465,3.297-0.278,6.983,1.203,10.154c1.452,3.109,4.187,5.762,8.843,7.106  c0.956,0.276,2.009,0.499,3.164,0.662l42.062,5.938c17.362,2.451,23.312-16.689,23.534-17.424l-0.004-0.001  c0.251-0.872,87.595-304.142,92.762-320.903c1.015-3.294,1.451-6.196,1.451-8.724c0-3.868-1.027-6.821-2.543-8.948  C456.627,19.38,454.683,18.086,452.791,17.503 M450.526,14.313c0.984,0,2.033,0.161,3.096,0.488c2.433,0.75,4.92,2.394,6.789,5.015  c0.353,0.495,0.684,1.025,0.989,1.591c1.004,1.384,1.914,2.615,2.888,3.932c9.14,12.359,23.649,31.979,21.321,43.914l-0.648,3.321  l-0.209-0.306l-90.489,316.397l-0.069-0.02l0.053,0.017c-1.713,5.355-5.258,9.193-9.199,11.828  c-5.922,3.959-12.859,5.191-15.727,4.767h-0.005l-45.568-6.941l-0.05-0.011c-1.839-0.345-6.68-4.008-12.277-8.763  c-7.353-6.246-16.169-14.429-21.002-19.259c-1.867-1.523-3.211-3.352-4.138-5.337c-1.743-3.732-1.976-7.978-1.446-11.737  c0.177-1.257,0.445-2.477,0.773-3.614l0.005-0.022l96.995-318.923h0c1.503-5.185,4.736-9.283,8.461-12.243  c4.747-3.772,10.352-5.718,14.207-5.718l0.05,0.006l45.2,1.623V14.313z M98.233,32.7l0.001,0l-92.5,260.5L4.4,292.73l1.329,0.476  c-0.874,2.435-1.704,5.355-2.253,8.499c-0.905,5.18-1.025,10.903,0.739,15.887c1.724,4.874,5.293,9.082,11.78,11.412  c1.528,0.549,3.24,0.998,5.149,1.331v0l158.462,23.494l0,0.001c9.728,1.345,19.59-1.029,27.773-6.323  c7.945-5.14,14.305-13.034,17.422-22.947l88.5-281.501c1.136-3.614,1.642-6.896,1.642-9.858c0-5.906-2.025-10.541-5.064-14.014  c-3.065-3.503-7.172-5.852-11.291-7.147c-2.586-0.813-5.171-1.207-7.502-1.207l-0.05-0.006L135.585,4.831v0.004  c-8.054,0-15.826,2.922-22.33,7.766C106.521,17.615,101.152,24.683,98.233,32.7z M3.066,292.26l92.5-260.5l0.005-0.011  c3.108-8.545,8.828-16.076,16-21.418C118.548,5.134,126.905,2,135.585,2l0.05,0.006l155.451,5.998V8  c2.598,0,5.474,0.437,8.344,1.339c4.568,1.436,9.137,4.06,12.575,7.989c0.508,0.58,0.99,1.188,1.444,1.824  c1.1,1.376,18.922,23.704,23.177,29.837c2.28,3.285,4.154,6.718,5.044,10.649c0.897,3.959,0.786,8.365-0.924,13.536l-0.003-0.001  l-85.492,277.224c-3.393,10.947-9.84,18.532-17.072,23.492c-9.818,6.732-21.137,8.609-28.238,7.489l-0.001,0.004l-162.75-24.75  l0.002-0.011c-1.71-0.386-8.162-4.833-15.355-10.161c-9.642-7.142-20.865-15.928-23.372-18.305  c-3.428-2.616-5.621-5.953-6.918-9.621c-1.95-5.511-1.836-11.728-0.86-17.315c0.572-3.276,1.452-6.361,2.383-8.957L3.066,292.26z"/>
</svg>