<?xml version="1.0" encoding="utf-8"?>
<!-- Generator: Adobe Illustrator 19.0.0, SVG Export Plug-In . SVG Version: 6.00 Build 0)  -->
<svg version="1.1" id="Layer_1" xmlns="http://www.w3.org/2000/svg" xmlns:xlink="http://www.w3.org/1999/xlink" x="0px" y="0px"
	 viewBox="-236 364.4 64 66.7" style="enable-background:new -236 364.4 64 66.7;" xml:space="preserve">
<g>
	<path d="M-173.6,413c-0.3,0-4.4-0.3-4.4-4.9v0.3c-2.8-29.6-17.6-37.1-25.9-37.1c-8.4,0-23.5,7.7-26.1,36.8l0,0c0,0-0.9,4.8-4.4,4.9
		c-0.3,0.1-1.6,0.4-1.6,2c0,1.2,0,4,0,4s19.2-2,32-2s32,2,32,2s0-2.6,0-4S-172.8,413.1-173.6,413z"/>
	<circle cx="-204" cy="369" r="4.6"/>
</g>
<path d="M-204,431.1c5.1,0,9.1-4.1,9.1-9.1c0,0-2.6-1-9.1-1s-9.1,1-9.1,1C-213.1,427-209.1,431.1-204,431.1z"/>
</svg>
