<?xml version="1.0" encoding="utf-8"?>
<!-- Generator: Adobe Illustrator 19.0.0, SVG Export Plug-In . SVG Version: 6.00 Build 0)  -->
<svg version="1.1" id="Layer_1" xmlns:sketch="http://www.bohemiancoding.com/sketch/ns"
	 xmlns="http://www.w3.org/2000/svg" xmlns:xlink="http://www.w3.org/1999/xlink" x="0px" y="0px" viewBox="-294 384.1 12 21.4"
	 style="enable-background:new -294 384.1 12 21.4;" xml:space="preserve">
<style type="text/css">
	.st0{fill:none;}
</style>
<title>device_battery_charge_outline_stroke</title>
<description>Created with Sketch.</description>
<g sketch:type="MSPage">
	<g>
		<g sketch:type="MSShapeGroup">
			<path id="a" d="M-286,385.5h1.8c0,0,2.2,0,2.2,2.1v15.8c0,2.1-2.2,2.1-2.2,2.1h-7.6c0,0-2.2,0-2.2-2.1v-15.8
				c0-2.1,2.2-2.1,2.2-2.1h1.8c0-0.3,0.2-1.4,1-1.4h2C-286.2,384.1-286,385.2-286,385.5L-286,385.5z M-284.1,386.5h-7.8
				c0,0-1.1,0-1.1,1.1v15.9c0,1.1,1.1,1.1,1.1,1.1h7.8c0,0,1.1,0,1.1-1.1v-15.9C-283,386.5-284.1,386.5-284.1,386.5z M-288,389.5
				l-2,6.5l2-0.6v5.1l2-6.7l-2,0.3V389.5z"/>
		</g>
		<g>
			<path id="a_1_" class="st0" d="M-286,385.5h1.8c0,0,2.2,0,2.2,2.1v15.8c0,2.1-2.2,2.1-2.2,2.1h-7.6c0,0-2.2,0-2.2-2.1v-15.8
				c0-2.1,2.2-2.1,2.2-2.1h1.8c0-0.3,0.2-1.4,1-1.4h2C-286.2,384.1-286,385.2-286,385.5L-286,385.5z M-284.1,386.5h-7.8
				c0,0-1.1,0-1.1,1.1v15.9c0,1.1,1.1,1.1,1.1,1.1h7.8c0,0,1.1,0,1.1-1.1v-15.9C-283,386.5-284.1,386.5-284.1,386.5z M-288,389.5
				l-2,6.5l2-0.6v5.1l2-6.7l-2,0.3V389.5z"/>
		</g>
	</g>
</g>
</svg>
