<?xml version="1.0" encoding="utf-8"?>
<!-- Generator: Adobe Illustrator 19.0.0, SVG Export Plug-In . SVG Version: 6.00 Build 0)  -->
<svg version="1.1" id="Layer_1" xmlns="http://www.w3.org/2000/svg" xmlns:xlink="http://www.w3.org/1999/xlink" x="0px" y="0px"
	 viewBox="-220.7 339 33.9 90" style="enable-background:new -220.7 339 33.9 90;" xml:space="preserve">
<rect x="-206.5" y="356.5" width="5.6" height="1.5"/>
<rect x="-206.5" y="370.9" width="5.6" height="1.6"/>
<rect x="-206.5" y="385.3" width="5.6" height="1.6"/>
<path d="M-193.2,398.8v-49.2c0-5.8-4.7-10.5-10.6-10.5c-5.8,0-11,4.7-11,10.5v49.6c-3.6,3.1-6,7.7-6,12.9c0,9.4,7.6,16.9,17,16.9
	c9.4,0,17-7.6,17-16.9C-186.8,406.7-189.3,401.9-193.2,398.8z M-203.8,423.3c-6.2,0-11.2-5-11.2-11.2c0-4.2,2.3-7.8,5.7-9.7v-50.8
	c0-3,2.5-5.5,5.6-5.5s5.6,2.5,5.6,5.5v50.8c3.4,1.9,5.6,5.5,5.6,9.7C-192.5,418.3-197.5,423.3-203.8,423.3z"/>
<path d="M-200.7,404.7v-10.9h-6v10.9c-2.9,1.2-5,4-5,7.4c0,4.4,3.6,8,8,8c4.4,0,8-3.6,8-8C-195.8,408.7-197.8,405.9-200.7,404.7z"/>
</svg>
