<?xml version="1.0" encoding="iso-8859-1"?>
<!-- Generator: Adobe Illustrator 18.0.0, SVG Export Plug-In . SVG Version: 6.00 Build 0)  -->
<!DOCTYPE svg PUBLIC "-//W3C//DTD SVG 1.1//EN" "http://www.w3.org/Graphics/SVG/1.1/DTD/svg11.dtd">
<svg version="1.1" id="Capa_1" xmlns="http://www.w3.org/2000/svg" xmlns:xlink="http://www.w3.org/1999/xlink" x="0px" y="0px"
	 viewBox="0 0 232.914 232.914" style="enable-background:new 0 0 232.914 232.914;" xml:space="preserve">
<g>
	<path d="M9,64.099c-4.971,0-9,4.029-9,9v86.716c0,4.971,4.029,9,9,9s9-4.029,9-9V73.099C18,68.128,13.971,64.099,9,64.099z"/>
	<path d="M51.983,38.092c-4.971,0-9,4.029-9,9v138.73c0,4.971,4.029,9,9,9s9-4.029,9-9V47.092
		C60.983,42.121,56.954,38.092,51.983,38.092z"/>
	<path d="M94.966,1.896c-4.971,0-9,4.029-9,9v211.121c0,4.971,4.029,9,9,9s9-4.029,9-9V10.896
		C103.966,5.926,99.937,1.896,94.966,1.896z"/>
	<path d="M137.948,54.361c-4.971,0-9,4.029-9,9v106.193c0,4.971,4.029,9,9,9s9-4.029,9-9V63.361
		C146.948,58.39,142.919,54.361,137.948,54.361z"/>
	<path d="M180.931,64.099c-4.971,0-9,4.029-9,9v86.716c0,4.971,4.029,9,9,9s9-4.029,9-9V73.099
		C189.931,68.128,185.901,64.099,180.931,64.099z"/>
	<path d="M223.914,92.919c-4.971,0-9,4.029-9,9v29.077c0,4.971,4.029,9,9,9s9-4.029,9-9v-29.077
		C232.914,96.948,228.885,92.919,223.914,92.919z"/>
</g>
<g>
</g>
<g>
</g>
<g>
</g>
<g>
</g>
<g>
</g>
<g>
</g>
<g>
</g>
<g>
</g>
<g>
</g>
<g>
</g>
<g>
</g>
<g>
</g>
<g>
</g>
<g>
</g>
<g>
</g>
</svg>
