<?xml version="1.0" encoding="iso-8859-1"?>
<!-- Generator: Adobe Illustrator 16.0.0, SVG Export Plug-In . SVG Version: 6.00 Build 0)  -->
<!DOCTYPE svg PUBLIC "-//W3C//DTD SVG 1.1//EN" "http://www.w3.org/Graphics/SVG/1.1/DTD/svg11.dtd">
<svg version="1.1" id="Capa_1" xmlns="http://www.w3.org/2000/svg" xmlns:xlink="http://www.w3.org/1999/xlink" x="0px" y="0px"
	 width="572.628px" height="572.628px" viewBox="0 0 572.628 572.628" style="enable-background:new 0 0 572.628 572.628;"
	 xml:space="preserve">
<g>
	<g>
		<g>
			<path d="M399.495,130.726H67.944C30.48,130.726,0,161.218,0,198.68v175.271c0,37.463,30.48,67.951,67.944,67.951h331.551
				c37.463,0,67.944-30.487,67.944-67.951V198.68C467.439,161.218,436.96,130.726,399.495,130.726z M428.942,373.951
				c0,16.241-13.207,29.454-29.445,29.454H67.944c-16.243,0-29.447-13.213-29.447-29.454V198.68
				c0-16.242,13.205-29.455,29.447-29.455h331.551c16.24,0,29.445,13.215,29.445,29.455v175.271H428.942z"/>
			<path d="M379.279,195.692H88.161c-11.685,0-21.159,9.474-21.159,21.148v138.948c0,11.676,9.474,21.146,21.159,21.146H379.28
				c11.683,0,21.155-9.475,21.155-21.146V216.84C400.436,205.165,390.96,195.692,379.279,195.692z"/>
			<path d="M541.502,183.586l-23.074-8.929c-4.089-1.597-8.685-1.052-12.304,1.43c-3.619,2.462-5.781,6.561-5.781,10.938v198.561
				c0,4.378,2.162,8.478,5.781,10.938c3.619,2.501,8.215,3.025,12.304,1.448l23.082-8.929c18.76-7.258,31.118-25.302,31.118-45.415
				V229.001C572.63,208.889,560.262,190.843,541.502,183.586z"/>
		</g>
	</g>
</g>
<g>
</g>
<g>
</g>
<g>
</g>
<g>
</g>
<g>
</g>
<g>
</g>
<g>
</g>
<g>
</g>
<g>
</g>
<g>
</g>
<g>
</g>
<g>
</g>
<g>
</g>
<g>
</g>
<g>
</g>
</svg>
