<?xml version="1.0" encoding="iso-8859-1"?>
<!-- Generator: Adobe Illustrator 18.0.0, SVG Export Plug-In . SVG Version: 6.00 Build 0)  -->
<!DOCTYPE svg PUBLIC "-//W3C//DTD SVG 1.1//EN" "http://www.w3.org/Graphics/SVG/1.1/DTD/svg11.dtd">
<svg version="1.1" id="Capa_1" xmlns="http://www.w3.org/2000/svg" xmlns:xlink="http://www.w3.org/1999/xlink" x="0px" y="0px"
	 viewBox="0 0 302.444 302.444" style="enable-background:new 0 0 302.444 302.444;" xml:space="preserve">
<g>
	<path d="M100.455,59.658c-6.128-1.312-13.782-2.242-22.546-2.242C34.722,57.416,0,84.514,0,133.21
		c0,40.648,25.405,71.351,74.735,71.351c9.354,0,17.539-0.925,24.03-2.237c7.111-1.442,11.735-8.341,10.361-15.468
		c-1.349-6.971-8.025-11.555-14.997-10.314c-4.661,0.827-9.72,1.345-14.526,1.345c-28.794,0-45.728-18-45.728-46.582
		c0-31.756,19.901-47.213,45.517-47.213c5.446,0,10.361,0.579,14.723,1.479c7.095,1.462,14.097-2.898,15.895-9.917l0.104-0.413
		c0.862-3.354,0.315-6.91-1.509-9.85C106.781,62.449,103.839,60.381,100.455,59.658z"/>
	<path d="M189.034,57.416c-42.132,0-69.443,31.973-69.443,74.735c0,40.649,24.768,72.62,67.113,72.62
		c41.708,0,70.08-28.369,70.08-75.157C256.783,90.235,232.855,57.416,189.034,57.416z M188.399,179.15
		c-21.597,0-34.722-19.688-34.722-47.636c0-27.73,12.702-48.478,34.509-48.478c22.232,0,34.511,22.015,34.511,47.636
		C222.697,158.403,210.206,179.15,188.399,179.15z"/>
	<path d="M295.83,231.804h-19.301v-0.212l6.346-5.286c9.943-8.884,18.299-18.087,18.299-29.617c0-12.484-8.567-21.579-24.118-21.579
		c-6.744,0-12.821,1.663-17.626,4.071c-2.879,1.442-4.186,4.843-3.003,7.835l0.15,0.377c0.583,1.479,1.757,2.641,3.24,3.214
		c1.483,0.568,3.137,0.485,4.559-0.222c2.775-1.374,5.963-2.372,9.404-2.372c7.933,0,11.318,4.444,11.318,10.051
		c-0.212,8.041-7.509,15.762-22.531,29.192l-6.708,6.073c-1.385,1.255-2.176,3.033-2.176,4.902c0,3.753,3.044,6.796,6.796,6.796
		h35.352c3.654,0,6.614-2.961,6.614-6.609C302.444,234.765,299.484,231.804,295.83,231.804z"/>
</g>
<g>
</g>
<g>
</g>
<g>
</g>
<g>
</g>
<g>
</g>
<g>
</g>
<g>
</g>
<g>
</g>
<g>
</g>
<g>
</g>
<g>
</g>
<g>
</g>
<g>
</g>
<g>
</g>
<g>
</g>
</svg>
