<?xml version="1.0" encoding="utf-8"?>
<!-- Generator: Adobe Illustrator 19.0.0, SVG Export Plug-In . SVG Version: 6.00 Build 0)  -->
<svg version="1.1" id="Layer_1" xmlns="http://www.w3.org/2000/svg" xmlns:xlink="http://www.w3.org/1999/xlink" x="0px" y="0px"
	 viewBox="-250.5 338.5 91 91" style="enable-background:new -250.5 338.5 91 91;" xml:space="preserve">
<style type="text/css">
	.st0{fill:none;stroke:#000000;stroke-width:4;stroke-miterlimit:10;}
	.st1{fill:none;}
</style>
<circle class="st0" cx="-205" cy="384" r="43.5"/>
<g>
	<path d="M-234.7,401.1c-0.2-0.3-0.3-0.6-0.5-0.9l0.9-0.5c0.2,0.3,0.3,0.6,0.5,0.8L-234.7,401.1z M-175.4,401.4l-0.9-0.5
		c0.2-0.3,0.3-0.6,0.5-0.8l0.9,0.5C-175,400.8-175.2,401.1-175.4,401.4z M-238,393.8c-0.1-0.3-0.2-0.6-0.3-1l1-0.3
		c0.1,0.3,0.2,0.6,0.3,0.9L-238,393.8z M-172.1,394.1l-1-0.3c0.1-0.3,0.2-0.6,0.3-0.9l1,0.3C-171.9,393.4-172,393.7-172.1,394.1z
		 M-239.5,385.9c0-0.3,0-0.7-0.1-1h1c0,0.3,0,0.6,0.1,1H-239.5z M-170.5,386.2l-1-0.1c0-0.3,0-0.6,0.1-1V385h1v0.1
		C-170.5,385.5-170.5,385.9-170.5,386.2z M-238.1,378.1l-1-0.2c0.1-0.3,0.1-0.7,0.2-1l1,0.2C-238,377.5-238,377.8-238.1,378.1z
		 M-171.8,378.2c-0.1-0.3-0.1-0.6-0.2-1l1-0.2c0.1,0.3,0.1,0.7,0.2,1L-171.8,378.2z M-236,370.6l-0.9-0.4c0.1-0.3,0.3-0.6,0.4-0.9
		l0.9,0.4C-235.7,370-235.8,370.3-236,370.6z M-174,370.7c-0.1-0.3-0.3-0.6-0.4-0.9l0.9-0.4c0.1,0.3,0.3,0.6,0.4,0.9L-174,370.7z
		 M-232.1,363.8l-0.9-0.6c0.2-0.3,0.4-0.5,0.6-0.8l0.8,0.6C-231.8,363.3-231.9,363.6-232.1,363.8z M-177.7,363.9
		c-0.2-0.3-0.4-0.5-0.6-0.8l0.8-0.6c0.2,0.3,0.4,0.5,0.6,0.8L-177.7,363.9z M-226.9,358.1l-0.7-0.8c0.3-0.2,0.5-0.4,0.8-0.6l0.6,0.8
		C-226.4,357.7-226.6,357.9-226.9,358.1z M-183,358.2c-0.2-0.2-0.5-0.4-0.7-0.6l0.6-0.8c0.3,0.2,0.5,0.4,0.8,0.6L-183,358.2z
		 M-220.4,353.7l-0.5-0.9c0.3-0.2,0.6-0.3,0.9-0.4l0.4,0.9C-219.8,353.4-220.1,353.6-220.4,353.7z M-189.4,353.8
		c-0.3-0.2-0.6-0.3-0.9-0.4l0.4-0.9c0.3,0.1,0.6,0.3,0.9,0.5L-189.4,353.8z M-213.1,351l-0.2-1c0.3-0.1,0.7-0.2,1-0.2l0.2,1
		C-212.5,350.8-212.8,350.9-213.1,351z M-196.7,351c-0.3-0.1-0.6-0.2-1-0.2l0.2-1c0.3,0.1,0.7,0.1,1,0.2L-196.7,351z M-205.4,350v-1
		c0.3,0,0.7,0,1,0v1C-204.8,350-205.1,350-205.4,350z"/>
</g>
<circle cx="-205" cy="383.6" r="2.5"/>
<polygon points="-203.5,387.4 -228,358.4 -201.4,385.5 "/>
<g>
	<path class="st1" d="M-168.5,385.8c1-20.1-14.6-37.2-34.7-38.2s-37.3,14.5-38.3,34.6c-0.4,8.9,2.4,17.2,7.4,23.8h58.2
		C-171.6,400.3-168.9,393.4-168.5,385.8z"/>
	<path d="M-203.1,345.5c-21.2-1-39.3,15.4-40.3,36.6c-0.5,8.9,2.1,17.2,6.8,23.9h2.5c-5-6.6-7.8-14.9-7.4-23.8
		c1-20.1,18.1-35.7,38.2-34.7s35.7,18.1,34.7,38.2c-0.4,7.6-3.1,14.6-7.4,20.2h2.5c4-5.7,6.5-12.6,6.9-20.1
		C-165.5,364.7-181.9,346.6-203.1,345.5z"/>
</g>
<rect x="-238" y="404.1" transform="matrix(-0.7071 0.7071 -0.7071 -0.7071 -113.8024 857.3536)" width="7" height="2"/>
<rect x="-179.3" y="404.1" transform="matrix(0.7071 0.7071 -0.7071 0.7071 234.9262 242.9567)" width="7" height="2"/>
</svg>
