<?xml version="1.0" encoding="utf-8"?>
<!-- Generator: Adobe Illustrator 19.0.0, SVG Export Plug-In . SVG Version: 6.00 Build 0)  -->
<svg version="1.1" id="Layer_1" xmlns="http://www.w3.org/2000/svg" xmlns:xlink="http://www.w3.org/1999/xlink" x="0px" y="0px"
	 viewBox="-227.5 345.2 36.1 80.6" style="enable-background:new -227.5 345.2 36.1 80.6;" xml:space="preserve">
<g>
	<path d="M-208.6,406.9c-1.2-1-2.1-3.1-2.1-4.7v-54.2c0-1.6-1.3-2.8-2.8-2.8h-3.6c-1.6,0-2.8,1.3-2.8,2.8v54.2c0,1.6-1,3.6-2.2,4.6
		c0,0-5.2,4.1-5.2,8c0,6,5.3,10.9,11.9,10.9c6.6,0,11.9-4.9,11.9-10.9C-203.7,411.1-208.6,406.9-208.6,406.9z"/>
</g>
<g>
	<path d="M-211.9,361c0,1.6-1.3,2.8-2.8,2.8h-1.2c-1.6,0-2.8-1.3-2.8-2.8v-11.7c0-1.6,1.3-2.8,2.8-2.8h1.2c1.6,0,2.8,1.3,2.8,2.8
		V361z"/>
</g>
<path d="M-196.6,394.9c0,2.7-2.2,4.8-4.8,4.8c-2.7,0-4.8-2.2-4.8-4.8l4.8-8.7L-196.6,394.9z"/>
<path d="M-191.3,402.8c0,1.6-1.3,2.8-2.8,2.8c-1.6,0-2.8-1.3-2.8-2.8l2.8-5L-191.3,402.8z"/>
<path d="M-192.4,390.4c0,0.9-0.8,1.7-1.7,1.7c-0.9,0-1.7-0.8-1.7-1.7l1.7-3L-192.4,390.4z"/>
<g>
	<path d="M-208.7,417.1c-0.1,0,0,0,0.2,0c0.2,0-0.2,1.1-0.9,2.5l-0.2,0.5c-0.7,1.4-2.3,2.5-3.5,2.5c-1.3,0-2.3,0-2.3,0
		c0,0-1,0-2.3,0s-2.8-1.1-3.5-2.5l-0.2-0.5c-0.7-1.4-1.1-2.5-0.9-2.5c0.2,0,1.6,0,3.2,0l7.8,0C-209.8,417.1-208.6,417.1-208.7,417.1
		z"/>
</g>
<path d="M-216.5,415.9c-1.8-0.1-2.8-0.7-3.8-2.4c-0.9-1.8-0.8-2.4,0.1-4.5l0.1,0c2.2,0.4,2.8,0.7,3.7,2.4
	C-215.4,413.2-215.5,414.3-216.5,415.9"/>
<path d="M-214.4,410.9c-0.8,0-1.3-0.3-1.7-1.1s-0.4-1.1,0.1-2l0,0c1,0.2,1.2,0.3,1.6,1.1C-213.9,409.7-213.9,410.2-214.4,410.9"/>
<path d="M-213.3,415.9c-0.8-1-1-1.8-0.5-3.2c0.5-1.3,0.9-1.6,2.4-2.1l0,0c0.9,1.3,1,1.8,0.5,3.1C-211.4,415.1-212,415.6-213.3,415.9
	"/>
</svg>
