<?xml version="1.0" encoding="UTF-8"?>
<!DOCTYPE svg PUBLIC "-//W3C//DTD SVG 1.1//EN" "http://www.w3.org/Graphics/SVG/1.1/DTD/svg11.dtd">
<!-- Creator: CorelDRAW X7 -->
<svg xmlns="http://www.w3.org/2000/svg" xml:space="preserve" width="82.6758mm" height="145.527mm" version="1.1" style="shape-rendering:geometricPrecision; text-rendering:geometricPrecision; image-rendering:optimizeQuality; fill-rule:evenodd; clip-rule:evenodd"
viewBox="0 0 809 1424"
 xmlns:xlink="http://www.w3.org/1999/xlink">
 <defs>
  <style type="text/css">
   <![CDATA[
    .str0 {stroke:#2B2A29;stroke-width:9.782}
    .str1 {stroke:white;stroke-width:1.9564}
    .fil0 {fill:none}
    .fil1 {fill:#2B2A29}
    .fil2 {fill:#2B2A29;fill-rule:nonzero}
   ]]>
  </style>
 </defs>
 <g id="Layer_x0020_1">
  <metadata id="CorelCorpID_0Corel-Layer"/>
  <path class="fil0 str0" d="M414 1319c-49,0 -111,-1 -158,-6"/>
  <path class="fil1 str1" d="M200 1074c31,11 120,16 193,16l0 0 6 0 6 0 0 0c71,0 157,-5 190,-15 7,-1 12,-3 16,-4 1,-1 1,-1 2,-2l0 -6c0,-94 10,-190 23,-277 26,-171 65,-303 67,-312 1,-3 2,-5 3,-7 3,-6 5,-10 4,-33l-7 1 -494 0 0 14c0,5 0,9 1,12 2,9 70,320 72,608l0 15c-2,0 -39,-3 -45,-4 0,0 0,0 0,0l0 -15c-4,-286 -89,-579 -93,-592 -3,-10 -7,-10 -7,-24l0 -14 -40 0 0 0 -8 -1c-1,23 1,27 4,33 1,2 2,4 3,7 2,9 41,141 67,312 14,89 24,185 24,282l5 3c1,0 2,0 2,0l0 1c1,0 1,0 1,1 2,0 3,0 5,1z"/>
  <path class="fil2" d="M404 407l306 0c8,-17 18,-35 28,-53 26,-45 54,-94 55,-149 2,-39 2,-64 -9,-83 -11,-19 -36,-34 -85,-53 -47,-18 -96,-31 -144,-40 -53,-10 -105,-14 -151,-14 -45,0 -97,4 -151,14 -47,9 -96,22 -143,40 -49,19 -74,34 -85,53 -12,19 -11,44 -10,83 2,55 30,104 56,149 10,18 20,36 28,53l305 0zm311 14l-311 0 -310 0 -5 0 -2 -4c-7,-18 -18,-36 -29,-56 -26,-46 -55,-97 -57,-155 -2,-42 -2,-69 11,-92 13,-22 40,-39 92,-59 49,-18 99,-32 147,-40 55,-11 107,-15 153,-15 46,0 99,4 154,15 48,8 98,22 146,40 53,20 79,37 93,59 13,23 12,50 11,92 -2,58 -31,109 -57,155 -11,20 -22,38 -30,56l-2 4 -4 0z"/>
  <path class="fil1" d="M580 1090c-7,1 -14,2 -22,3 -9,1 -18,2 -28,2 -19,2 -40,3 -61,3 -24,1 -48,2 -70,2 -22,0 -46,-1 -70,-2 -21,0 -41,-1 -60,-3 -10,0 -19,-1 -28,-2 -8,-1 -15,-1 -22,-2l-20 -3 13 13c1,1 2,2 3,3l0 0c1,1 2,2 2,3 4,3 6,8 9,12 2,3 3,7 4,11l0 0 0 0c3,8 5,17 7,29 2,12 4,26 5,41 1,17 2,34 3,51 0,19 0,38 0,54l0 6 0 0 46 49 0 0 15 14 40 35 0 0 1 1c7,6 15,12 52,14l1 0c38,-2 45,-8 52,-14l1 -1 0 0 40 -35 16 -14 -1 0 47 -49c0,0 0,0 -1,0l0 -6c0,-16 0,-35 1,-54 0,-17 1,-34 2,-51 2,-15 3,-29 5,-41 2,-12 4,-21 7,-29l0 0 0 0c1,-4 3,-8 4,-11 3,-4 6,-9 9,-12 0,-1 1,-2 2,-3 2,-2 2,-3 3,-3l13 -13 -20 2zm-166 63c-30,0 -65,-1 -99,-2 -22,-1 -44,-2 -63,-4 1,3 2,7 2,11 1,6 2,12 3,18 18,2 38,3 58,4 33,2 69,2 99,2l0 10c-30,0 -65,0 -99,-2 -20,-1 -39,-2 -57,-4 0,5 1,9 1,13 1,6 1,11 1,17 17,1 36,3 55,3 33,2 69,3 99,3l0 9c-30,0 -65,0 -99,-2 -19,-1 -37,-2 -54,-3 0,8 1,16 1,24 0,2 0,3 0,5 17,2 35,3 53,4 33,1 69,2 99,2l0 9c-30,0 -65,0 -99,-2 -18,-1 -36,-2 -53,-3 0,11 0,22 0,33l6 0c5,1 10,1 14,1 6,1 12,1 17,1 7,0 13,1 19,1 6,0 13,0 19,1 7,0 14,0 21,0 7,0 14,0 21,0 7,1 14,1 21,1 6,0 13,0 21,-1 6,0 13,0 21,0 6,0 13,0 20,0 6,-1 13,-1 20,-1 6,0 12,-1 18,-1 5,0 11,0 17,-1 5,0 9,0 14,-1l6 0c0,-15 0,-32 0,-48 1,-17 2,-35 3,-51 1,-15 3,-29 5,-41 2,-12 4,-22 7,-30 1,-4 3,-8 5,-13 2,-3 3,-5 5,-8l-6 1c-8,1 -18,1 -28,2 -18,1 -38,2 -59,3 -24,1 -48,1 -70,1l0 0c-22,0 -46,0 -69,-1 -21,-1 -42,-2 -60,-3 -10,-1 -19,-1 -27,-2l-6 -1c2,3 4,6 5,8 2,5 4,9 5,13 1,3 2,6 3,9 19,2 42,3 65,4 33,2 69,2 99,2l0 10zm29 247l-1 1c-5,4 -11,9 -42,10 -32,-1 -37,-6 -43,-10l-1 -1 -25 -23c4,1 8,1 13,1 8,0 17,0 26,0 10,1 20,1 30,1 10,0 20,0 29,-1 10,0 19,0 27,0 4,0 9,0 12,-1l-25 23z"/>
 </g>
</svg>
