<?xml version="1.0" encoding="UTF-8" standalone="no"?>
<!-- Created with Inkscape (http://www.inkscape.org/) -->

<svg
   xmlns:dc="http://purl.org/dc/elements/1.1/"
   xmlns:cc="http://creativecommons.org/ns#"
   xmlns:rdf="http://www.w3.org/1999/02/22-rdf-syntax-ns#"
   xmlns:svg="http://www.w3.org/2000/svg"
   xmlns="http://www.w3.org/2000/svg"
   xmlns:sodipodi="http://sodipodi.sourceforge.net/DTD/sodipodi-0.dtd"
   xmlns:inkscape="http://www.inkscape.org/namespaces/inkscape"
   sodipodi:docname="hass.svg"
   viewBox="0 0 756.5014 668.8689"
   height="668.8689"
   width="756.5014"
   id="svg869"
   version="1.1"
   inkscape:version="0.92.3 (2405546, 2018-03-11)">
  <metadata
     id="metadata875">
    <rdf:RDF>
      <cc:Work
         rdf:about="">
        <dc:format>image/svg+xml</dc:format>
        <dc:type
           rdf:resource="http://purl.org/dc/dcmitype/StillImage" />
        <dc:title />
      </cc:Work>
    </rdf:RDF>
  </metadata>
  <defs
     id="defs873" />
  <sodipodi:namedview
     inkscape:current-layer="g887"
     inkscape:window-maximized="1"
     inkscape:window-y="0"
     inkscape:window-x="0"
     inkscape:cy="300.50252"
     inkscape:cx="227.17149"
     inkscape:zoom="0.83496094"
     showgrid="false"
     id="namedview871"
     inkscape:window-height="1007"
     inkscape:window-width="1920"
     inkscape:pageshadow="2"
     inkscape:pageopacity="0"
     guidetolerance="10"
     gridtolerance="10"
     objecttolerance="10"
     borderopacity="1"
     bordercolor="#666666"
     pagecolor="#ffffff"
     fit-margin-top="10"
     fit-margin-left="10"
     fit-margin-right="10"
     fit-margin-bottom="10" />
  <g
     id="g887"
     transform="translate(-137.71977,-158.60048)">
    <path
       style="color:#000000;font-style:normal;font-variant:normal;font-weight:normal;font-stretch:normal;font-size:medium;line-height:normal;font-family:sans-serif;font-variant-ligatures:normal;font-variant-position:normal;font-variant-caps:normal;font-variant-numeric:normal;font-variant-alternates:normal;font-feature-settings:normal;text-indent:0;text-align:start;text-decoration:none;text-decoration-line:none;text-decoration-style:solid;text-decoration-color:#000000;letter-spacing:normal;word-spacing:normal;text-transform:none;writing-mode:lr-tb;direction:ltr;text-orientation:mixed;dominant-baseline:auto;baseline-shift:baseline;text-anchor:start;white-space:normal;shape-padding:0;clip-rule:nonzero;display:inline;overflow:visible;visibility:visible;opacity:1;isolation:auto;mix-blend-mode:normal;color-interpolation:sRGB;color-interpolation-filters:linearRGB;solid-color:#000000;solid-opacity:1;vector-effect:none;fill:#000000;fill-opacity:1;fill-rule:nonzero;stroke:none;stroke-width:8.93858242;stroke-linecap:butt;stroke-linejoin:round;stroke-miterlimit:4;stroke-dasharray:none;stroke-dashoffset:0;stroke-opacity:1;paint-order:normal;color-rendering:auto;image-rendering:auto;shape-rendering:auto;text-rendering:auto;enable-background:accumulate"
       d="m 514.44922,177.76562 c 1.26831,-0.10851 2.97763,-0.0613 3.67773,0.0117 0.20503,0.16412 0.36002,0.28236 0.67383,0.55078 1.01302,0.86653 2.5257,2.23167 4.49219,4.06446 3.93297,3.66557 9.71027,9.21886 17.41406,16.74414 15.40759,15.05055 38.53935,38.00142 70.32227,69.76172 l 91.6875,91.62308 a 4.4697381,4.4697381 0 0 0 7.62695,-3.0879 l 0.3125,-19.2598 0.28125,-17.3359 2.31641,-2.1211 2.45312,-2.2481 H 748 780.29102 l 2.45507,2.25 2.29297,2.1016 0.26172,59.373 0.26953,61.3262 a 4.4697381,4.4697381 0 0 0 1.30469,3.1367 l 43.86719,44 c 24.17304,24.2461 36.18569,36.3206 41.29492,42.7364 2.55461,3.2079 3.15213,4.802 3.22851,5.3476 0.0764,0.5456 -0.0927,1.0818 -0.90429,3.2071 -0.78583,2.0576 -2.03688,3.5251 -3.14649,4.2109 -0.66067,0.4083 -0.65644,0.4323 -1.36523,0.6016 -0.70879,0.1692 -2.15994,0.3656 -4.79102,0.4921 -5.26214,0.253 -15.10814,0.2793 -33.92578,0.2793 H 792 A 4.4697381,4.4697381 0 0 0 787.53125,550 v 126.0312 c 0,69.3771 0.0806,102.2049 -0.63477,117.8008 -0.35769,7.798 -1.10471,11.312 -1.4414,12.0703 -0.16835,0.3792 0.0228,0.097 -0.0937,0.1797 -0.11659,0.083 -0.79021,0.4136 -1.87695,1.0762 -0.69918,0.4263 -0.0271,0.2862 -2.24219,0.5313 -2.21509,0.2451 -6.58876,0.4471 -14.77735,0.5742 -16.37717,0.2541 -48.15241,0.2618 -110.95703,0.2636 H 539.30083 l 16.86133,-16.871 23.17383,-23.1895 25.15429,0.01 24.41407,0.01 0.96484,1.6894 c 11.29116,19.7741 41.25829,18.2598 51.54102,-2.375 7.30939,-14.668 1.44755,-32.3153 -13.18946,-39.4765 -13.4641,-6.5874 -29.54968,-2.6637 -37.46875,9.5195 l -1.67968,2.5859 -28.0293,0.049 -30.44922,0.055 a 4.4697381,4.4697381 0 0 0 -3.14648,1.3028 l -22.30079,22.2207 -14.67773,14.625 v -18.0059 -26.8984 l 27.92383,-27.6016 27.94531,-27.625 44.83399,-0.039 44.17578,-0.039 0.70117,1.1309 c 12.57715,20.3209 42.68299,19.2016 52.63672,-2.1738 9.11347,-19.5711 -5.46376,-41.9094 -27.19532,-41.8653 -10.99838,0.022 -21.07666,5.9394 -26.01562,15.4903 l -0.24609,0.4785 h -34.9961 -26.93164 l 18.11719,-18.1289 25.74414,-25.7578 a 4.4697381,4.4697381 0 0 0 1.30664,-3.1582 v -25.504 -23.6504 l 16.99805,-16.9785 16.56836,-16.5508 2.44726,0.5489 c 7.38348,1.6546 14.63715,0.3972 21.61133,-3.586 11.03919,-6.3047 15.70395,-18.0938 14.32617,-28.9492 -1.37777,-10.8553 -8.81078,-21.1695 -21.0664,-24.7558 -11.19037,-3.2747 -22.38701,0.27 -30.41016,9.3847 -6.75732,7.6768 -9.43438,18.4164 -6.17188,27.4317 -0.047,0.07 -0.0294,0.057 -0.10156,0.1543 -0.99089,1.3341 -4.01353,4.4803 -9.78125,10.248 l -4.41992,4.4199 v -29.4277 -37.5 l 0.48437,-0.25 c 3.03589,-1.5699 5.58024,-4.084 7.89844,-6.9258 2.31821,-2.8417 4.28654,-5.8909 5.26953,-9.1718 5.45487,-18.2068 -6.41255,-36.6562 -25.04297,-38.5645 -14.55498,-1.4908 -26.02225,7.3146 -30.40039,18.5781 -4.37813,11.2636 -1.85037,25.4905 9.92188,34.1602 l 2.93164,2.1582 v 37.5937 28.4414 c -3.58271,-3.875 -7.96325,-8.634 -10.07031,-10.9511 l -2.61914,-2.8809 0.58398,-2.3164 c 4.65047,-18.4686 -9.98948,-36.3387 -29.35742,-36.2461 -15.68882,0.075 -28.02342,11.8503 -29.25977,27.7266 -0.43734,5.6159 0.30784,8.9916 3.40039,14.9394 2.90814,5.5932 5.66717,8.6428 10.41016,11.4824 7.13266,4.2704 14.82929,5.7467 22.29492,3.9981 l 2.18946,-0.5117 16.99218,16.9316 17.43555,17.3731 v 19.6464 19.6524 l -22.43555,22.4492 c -6.51535,6.5196 -12.52391,12.4468 -16.93945,16.7285 -0.22487,0.2181 -0.32061,0.3043 -0.53711,0.5137 -0.068,-2.7394 -0.15039,-5.3596 -0.15039,-8.8008 v -15.7715 l 0.35742,-0.1875 c 2.88218,-1.5126 5.49188,-3.8884 7.92969,-6.5605 2.4378,-2.6722 4.56738,-5.4983 5.82031,-8.5059 1.37152,-3.2922 1.88929,-7.3888 1.88281,-11.2246 -0.0339,-20.0666 -19.59323,-34.4191 -38.51367,-28.1348 -20.7465,6.8909 -27.42429,33.7344 -11.97656,48.8868 2.19858,2.1565 4.73768,4.2492 7.20898,5.5429 l 0.35352,0.1856 v 25.6015 26.4082 l -20.13477,19.4375 -13.92773,13.4473 V 574.6699 c 0,-35.8839 0.0643,-68.6721 0.16602,-92.582 0.0509,-11.955 0.11076,-21.6919 0.17773,-28.4785 0.0335,-3.3933 0.0696,-6.0507 0.10547,-7.8633 0.0119,-0.599 0.0235,-0.9509 0.0352,-1.3555 0.17951,-0.199 0.29502,-0.3344 0.53907,-0.5957 0.94427,-1.0111 2.32889,-2.4406 4.02148,-4.1484 3.38518,-3.4157 8.01191,-7.9603 13.02735,-12.7754 l 16.62109,-15.957 3.05859,0.6386 c 12.57336,2.6254 25.81772,-4.1444 32.02344,-15.8984 2.0445,-3.8724 2.76758,-8.4976 2.76758,-13.1543 0,-4.6567 -0.72308,-9.2819 -2.76758,-13.1543 -5.8456,-11.0719 -18.47406,-18.1815 -30.26562,-16.2148 -6.52894,1.0888 -13.67309,4.3417 -17.92188,9.0117 -6.83495,7.5124 -9.43945,18.612 -7.08008,28.9043 l 0.2461,1.0703 -15.09375,14.416 -13.81641,13.1953 -13.6875,-13.3203 -14.95312,-14.5527 0.65624,-2.7403 c 4.04992,-16.8819 -7.54501,-33.0289 -25.30664,-35.9863 -11.79209,-1.9634 -24.42057,5.1459 -30.26562,16.2168 -2.0445,3.8724 -2.76758,8.4976 -2.76758,13.1543 0,4.6567 0.72308,9.2819 2.76758,13.1543 6.22136,11.7836 19.47426,18.5181 32.10352,15.8809 l 3.12695,-0.6524 7.32226,7.0899 c 4.93855,4.7824 13.4031,13.0907 18.76172,18.414 l 8.46094,8.4043 -0.002,41.4238 c -6.2e-4,23.7694 -0.29967,65.2277 -0.66407,92.0547 l -0.51953,38.2481 -23.34961,-23.3418 -29.52343,-29.5117 0.0508,-24.6485 0.0508,-24.1015 2.57226,-1.6914 c 15.21999,-10.0024 17.13221,-32.3526 3.98047,-45.1309 -10.68239,-10.3791 -27.34654,-11.222 -39.30664,-2.0996 -3.26157,2.4877 -5.86094,6.3847 -7.96093,10.6504 -2.84033,5.7695 -3.54686,9.2169 -3.0586,14.6015 0.94194,10.3879 6.6926,20.2412 15.48438,23.8828 l 0.24609,0.1016 v 14.6348 6.8359 L 402.66025,518.8379 378.46884,494.6621 V 471.4023 448.752 l 2.41797,-1.5274 c 10.89495,-6.8866 14.94974,-19.0575 12.86523,-29.914 -2.0845,-10.8566 -10.30956,-20.7833 -22.99609,-23.6133 -17.96869,-4.0084 -35.22461,10.3042 -35.22461,28.9492 0,11.0938 4.77445,19.6431 14.31055,25.7441 l 1.68945,1.0801 v 27.3633 29.8086 a 4.4697381,4.4697381 0 0 0 1.3125,3.164 l 27.25,27.17 19.59961,19.541 h -5.87891 c -7.90283,0 -12.07693,-0.06 -13.75586,-0.25 -1.13389,-2.5629 -2.83165,-4.7569 -4.98047,-6.836 -2.52827,-2.4461 -5.50752,-4.6557 -8.68359,-6.1347 -19.37003,-9.0202 -42.09928,5.346 -42.16992,26.6836 -0.071,21.4448 22.65591,35.804 42.16992,26.7168 3.17607,-1.479 6.15532,-3.6906 8.68359,-6.1367 2.12838,-2.0593 3.80686,-4.2358 4.94336,-6.7657 0.17968,-0.034 -0.0257,0 0.86719,-0.066 3.00879,-0.2315 9.64291,-0.2636 22.4336,-0.2636 h 24.33593 l 36.93555,36.9453 36.9375,36.9472 v 64.6328 55.7051 l -11.37305,-11.3613 -17.6875,-17.6699 0.006,-25.1563 0.008,-24.416 1.69531,-0.9687 c 5.33636,-3.0472 9.24001,-8.1818 11.61523,-13.9004 2.37523,-5.7187 3.26472,-12.1306 1.70703,-18.1055 -1.99714,-7.6606 -6.85622,-14.2269 -13.60351,-18.3984 -4.60944,-2.8494 -7.94189,-3.6914 -15.39844,-3.6914 -7.46106,0 -10.78897,0.8409 -15.42578,3.7011 -7.24609,4.4698 -12.80486,12.8205 -14.0625,21.2071 -1.70626,11.3781 3.91038,23.5338 13.73828,29.1464 l 1.76562,1.0098 0.008,14.3867 0.002,6.3203 -2.14258,-2.1054 c -5.36769,-5.2724 -19.3005,-18.9318 -30.9707,-30.3633 -8.94406,-8.7611 -14.2084,-14.0364 -16.94922,-17.0938 -1.07378,-1.1978 -1.44132,-1.7449 -1.75,-2.1875 0.30187,-1.0606 0.49055,-2.1104 0.59961,-3.2382 0.17595,-1.8194 0.19475,-3.799 0.0957,-5.8203 -0.19809,-4.0427 -0.69175,-8.0253 -2.20898,-11.3653 C 386.36035,636.9733 376.01805,630.5706 364,630.5706 c -16.39992,0 -29.38203,12.2995 -29.44727,28.291 -0.0328,8.0368 2.11672,14.5889 6.82032,20.084 5.94957,6.9507 13.0536,10.0064 22.69531,9.8594 2.11746,-0.032 4.21369,-0.1033 5.92969,-0.1934 0.84032,-0.044 1.40199,-0.1529 2,-0.1933 0.29087,0.2217 0.51406,0.3816 0.9707,0.7617 1.44657,1.2039 3.60346,3.1231 6.33594,5.6504 5.46495,5.0545 13.27341,12.5649 22.96093,22.1015 l 22.95313,22.5958 h -5.90625 -14.56641 l -2.1582,-2.9102 c -6.88257,-9.2778 -16.69459,-13.8855 -27.66601,-12.7617 -15.27836,1.5649 -26.34571,14.0949 -26.34571,29.6406 0,11.6243 6.55396,21.9271 17.05469,26.6973 3.46308,1.5731 7.5645,2.1164 11.75781,2.2148 4.19332,0.098 8.25696,-0.2295 11.75586,-1.6914 3.03551,-1.2683 5.92718,-3.4632 8.69727,-5.9395 2.77008,-2.4762 5.2073,-4.9795 6.71875,-7.9023 l 0.21093,-0.4082 h 23.89258 24.76758 l 24.30469,24.1836 17.9375,17.8477 -118.43945,0.014 -127.5254,0.018 -1.0039,-0.92 v 1.9649 a 4.4697381,4.4697381 0 0 0 -1.45117,-3.2949 l -2.29297,-2.1016 -0.49219,-125.8711 -0.5,-127.8262 a 4.4697381,4.4697381 0 0 0 -4.41406,-4.4511 l -40.14453,-0.5 c -19.17256,-0.2388 -29.26892,-0.3931 -34.56055,-0.7051 -2.64581,-0.156 -4.07949,-0.3796 -4.58203,-0.5137 -0.50254,-0.1341 0.0306,0.1452 -0.26563,-0.123 -2.86395,-2.5934 -3.6969,-4.7931 -3.27929,-8.4981 0.0524,-0.4648 -0.0931,0.038 0.0723,-0.2734 0.16535,-0.3115 0.77779,-1.2437 2.16016,-2.8867 2.76474,-3.2862 8.49014,-9.4008 19.72656,-20.8868 22.47283,-22.9718 67.08,-67.5858 155.64844,-156.1543 79.76398,-79.76393 124.46093,-124.37735 149.59375,-149.08589 12.56641,-12.35427 20.25311,-19.74182 24.91601,-23.9961 2.33146,-2.12713 3.91801,-3.47403 4.875,-4.20508 0.36484,-0.2787 0.56294,-0.35657 0.73438,-0.4375 z"
       id="path835"
       inkscape:connector-curvature="0" />
    <path
       style="color:#000000;font-style:normal;font-variant:normal;font-weight:normal;font-stretch:normal;font-size:medium;line-height:normal;font-family:sans-serif;font-variant-ligatures:normal;font-variant-position:normal;font-variant-caps:normal;font-variant-numeric:normal;font-variant-alternates:normal;font-feature-settings:normal;text-indent:0;text-align:start;text-decoration:none;text-decoration-line:none;text-decoration-style:solid;text-decoration-color:#000000;letter-spacing:normal;word-spacing:normal;text-transform:none;writing-mode:lr-tb;direction:ltr;text-orientation:mixed;dominant-baseline:auto;baseline-shift:baseline;text-anchor:start;white-space:normal;shape-padding:0;clip-rule:nonzero;display:inline;overflow:visible;visibility:visible;opacity:1;isolation:auto;mix-blend-mode:normal;color-interpolation:sRGB;color-interpolation-filters:linearRGB;solid-color:#000000;solid-opacity:1;vector-effect:none;fill:#000000;fill-opacity:1;fill-rule:nonzero;stroke:none;stroke-width:8.93858242;stroke-linecap:butt;stroke-linejoin:round;stroke-miterlimit:4;stroke-dasharray:none;stroke-dashoffset:0;stroke-opacity:1;paint-order:normal;color-rendering:auto;image-rendering:auto;shape-rendering:auto;text-rendering:auto;enable-background:accumulate"
       d="m 585.83984,639.79883 c -0.0495,0.0442 -0.13421,0.12373 -0.17773,0.16211 0.0385,-0.0613 0.0591,-0.0968 0.17773,-0.16211 z"
       id="path951" />
    <path
       style="fill:#000005;fill-opacity:1"
       d="m 372.11687,762.36931 c -1.28047,-0.89688 -2.96164,-3.14688 -3.73592,-5 -1.21039,-2.89685 -1.21039,-3.84177 0,-6.73862 2.67263,-6.3965 8.36896,-8.30022 14.19874,-4.74522 5.93077,3.61658 6.8131,10.81265 1.9251,15.70065 -2.89036,2.89036 -8.84228,3.26665 -12.38792,0.78319 z"
       id="path949"
       inkscape:connector-curvature="0" />
    <path
       style="fill:#000009;fill-opacity:1"
       d="m 651.5,763.09249 c -6.43309,-2.75474 -8.02381,-10.84876 -3.13496,-15.95162 3.36807,-3.51551 7.05365,-4.41081 11.1347,-2.70484 4.28989,1.79325 5.77299,4.02192 5.77299,8.67515 0,3.16257 -0.64773,4.72451 -2.88637,6.9602 -3.12174,3.11764 -7.6963,4.38714 -10.88636,3.02111 z"
       id="path947"
       inkscape:connector-curvature="0" />
    <path
       style="fill:#000005;fill-opacity:1"
       d="M 451.76578,681.08203 C 448.9611,678.57605 448.5,677.50489 448.5,673.49545 c 0,-3.87542 0.4767,-5.07866 2.80576,-7.08203 6.66299,-5.73126 16.62364,-0.8037 16.672,8.24769 0.0183,3.43321 -0.51597,4.61397 -3.05449,6.75 -4.24946,3.57569 -8.91798,3.45892 -13.15749,-0.32908 z"
       id="path945"
       inkscape:connector-curvature="0" />
    <path
       style="fill:#000009;fill-opacity:1"
       d="M 696.34543,672.06899 C 688.20147,667.10314 692.97693,654 702.9307,654 c 5.55375,0 9.07614,3.58281 9.04706,9.20225 -0.0457,8.83867 -8.14465,13.43243 -15.63233,8.86674 z"
       id="path943"
       inkscape:connector-curvature="0" />
    <path
       style="fill:#000005;fill-opacity:1"
       d="m 361,671.29629 c -0.825,-0.30019 -2.7375,-1.69886 -4.25,-3.10814 -3.98387,-3.712 -3.90531,-10.18669 0.17308,-14.26507 7.10551,-7.10551 18.24173,-1.2134 17.15556,9.07692 -0.60956,5.77492 -7.68075,10.26045 -13.07864,8.29629 z"
       id="path941"
       inkscape:connector-curvature="0" />
    <path
       style="fill:#000005;fill-opacity:1"
       d="m 569.90121,590.89424 c -3.77822,-4.04459 -3.97528,-9.53404 -0.48779,-13.58848 2.00337,-2.32906 3.20661,-2.80576 7.08203,-2.80576 4.00944,0 5.0806,0.4611 7.58658,3.26578 3.13965,3.51387 3.78215,7.74315 1.75463,11.54996 -1.8401,3.45491 -4.01193,4.61828 -8.68545,4.65246 -3.59733,0.0263 -4.85011,-0.50486 -7.25,-3.07396 z"
       id="path939"
       inkscape:connector-curvature="0" />
    <path
       style="fill:#000009;fill-opacity:1"
       d="m 348.76257,578.43461 c -3.72965,-2.02368 -6.09434,-6.85261 -5.33576,-10.89616 1.49725,-7.98104 10.97248,-10.6007 16.90061,-4.67257 2.57971,2.57971 3.11902,3.88529 3.02865,7.33181 -0.0882,3.36244 -0.73182,4.74885 -3.24879,6.99776 -3.50702,3.13352 -7.12507,3.52871 -11.34471,1.23916 z"
       id="path937"
       inkscape:connector-curvature="0" />
    <path
       style="fill:#000005;fill-opacity:1"
       d="m 581.78349,500.25 c -6.76772,-7.75866 -3.0008,-17.75 6.69209,-17.75 5.045,0 8.15675,2.3018 9.35308,6.9186 1.10557,4.2665 0.37936,7.10065 -2.57692,10.05694 -3.1546,3.15459 -10.99867,3.60565 -13.46825,0.77446 z"
       id="path935"
       inkscape:connector-curvature="0" />
    <path
       style="fill:#000009;fill-opacity:1"
       d="m 694.58889,498.92327 c -7.32204,-8.70175 2.18357,-20.71214 12.26608,-15.49827 5.72793,2.96203 6.8696,11.00427 2.22195,15.65192 -2.36236,2.36237 -3.78398,2.92308 -7.4111,2.92308 -3.78394,0 -4.89418,-0.48268 -7.07693,-3.07673 z"
       id="path933"
       inkscape:connector-curvature="0" />
    <path
       style="fill:#000009;fill-opacity:1"
       d="m 432,499.34793 c -5.69286,-1.87551 -9,-5.69488 -9,-10.39398 0,-3.24956 3.04784,-7.73113 6.12452,-9.00553 8.23128,-3.40951 18.12722,7.43985 13.38608,14.67575 -1.31859,2.01241 -7.36134,5.67946 -8.72848,5.29688 -0.15517,-0.0434 -0.95712,-0.30132 -1.78212,-0.57312 z"
       id="path931"
       inkscape:connector-curvature="0" />
    <path
       style="fill:#000009;fill-opacity:1"
       d="m 638.4,430.6 c -4.53226,-4.53226 -4.70375,-9.4501 -0.47692,-13.67692 C 644.3646,410.48155 655,414.88901 655,424 c 0,3.25776 -0.63058,4.78443 -2.92308,7.07692 -4.22682,4.22683 -9.14466,4.05534 -13.67692,-0.47692 z"
       id="path929"
       inkscape:connector-curvature="0" />
    <path
       style="fill:#000009;fill-opacity:1"
       d="m 358.11687,430.36931 c -3.00143,-2.10229 -5.07941,-7.11446 -4.40727,-10.63053 C 354.36582,416.30599 359.32727,412 362.62639,412 368.58087,412 374,417.54873 374,423.64562 374,428.01491 369.48533,432 364.53542,432 c -2.24973,0 -5.13807,-0.73381 -6.41855,-1.63069 z"
       id="path927"
       inkscape:connector-curvature="0" />
    <path
       style="fill:#000009;fill-opacity:1"
       d="M 453.74998,390.91989 C 451.4207,389.56321 449,384.73695 449,381.44966 449,377.46424 454.88511,372 459.17749,372 c 6.22804,0 11.28478,6.13096 10.11291,12.26122 -1.13388,5.93149 -10.1536,9.7962 -15.54042,6.65867 z"
       id="path925"
       inkscape:connector-curvature="0" />
    <path
       style="fill:#000009;fill-opacity:1"
       d="m 566.05085,389.33752 c -2.88132,-3.66302 -3.44664,-6.60823 -2.0694,-10.78131 C 565.46622,374.0573 568.39701,372 573.3213,372 c 3.04688,0 4.49704,0.66453 6.77749,3.10576 C 586.5029,381.96138 582.07651,392 572.6495,392 c -3.68686,0 -4.88443,-0.4832 -6.59865,-2.66248 z"
       id="path903"
       inkscape:connector-curvature="0" />
  </g>
</svg>
