<?xml version="1.0" encoding="UTF-8" standalone="no"?>
<!-- Created with Inkscape (http://www.inkscape.org/) -->

<svg
   xmlns:dc="http://purl.org/dc/elements/1.1/"
   xmlns:cc="http://creativecommons.org/ns#"
   xmlns:rdf="http://www.w3.org/1999/02/22-rdf-syntax-ns#"
   xmlns:svg="http://www.w3.org/2000/svg"
   xmlns="http://www.w3.org/2000/svg"
   xmlns:sodipodi="http://sodipodi.sourceforge.net/DTD/sodipodi-0.dtd"
   xmlns:inkscape="http://www.inkscape.org/namespaces/inkscape"
   sodipodi:docname="hass.svg"
   viewBox="0 0 756.5014 668.8689"
   height="668.8689"
   width="756.5014"
   id="svg869"
   version="1.1"
   inkscape:version="0.92.3 (2405546, 2018-03-11)">
  <metadata
     id="metadata875">
    <rdf:RDF>
      <cc:Work
         rdf:about="">
        <dc:format>image/svg+xml</dc:format>
        <dc:type
           rdf:resource="http://purl.org/dc/dcmitype/StillImage" />
        <dc:title></dc:title>
      </cc:Work>
    </rdf:RDF>
  </metadata>
  <defs
     id="defs873" />
  <sodipodi:namedview
     inkscape:current-layer="g887"
     inkscape:window-maximized="1"
     inkscape:window-y="0"
     inkscape:window-x="0"
     inkscape:cy="370.8205"
     inkscape:cx="144.13798"
     inkscape:zoom="0.41748047"
     showgrid="false"
     id="namedview871"
     inkscape:window-height="1007"
     inkscape:window-width="1920"
     inkscape:pageshadow="2"
     inkscape:pageopacity="0"
     guidetolerance="10"
     gridtolerance="10"
     objecttolerance="10"
     borderopacity="1"
     bordercolor="#666666"
     pagecolor="#ffffff"
     fit-margin-top="10"
     fit-margin-left="10"
     fit-margin-right="10"
     fit-margin-bottom="10" />
  <g
     id="g887"
     transform="translate(-137.71977,-158.60048)">
    <path
       style="fill:none;fill-opacity:1;stroke:#000000;stroke-width:8.93858242;stroke-linecap:butt;stroke-linejoin:round;stroke-miterlimit:4;stroke-dasharray:none;stroke-opacity:1;paint-order:normal"
       d="M 244.23531,809.57695 240.5,806.15391 240,678.32695 239.5,550.5 199.35372,550 c -38.35196,-0.47765 -40.24488,-0.58928 -42.35238,-2.49764 -3.72341,-3.37158 -5.27179,-7.41061 -4.71944,-12.311 0.50112,-4.44591 1.75137,-5.72393 178.88841,-182.86097 159.5301,-159.5301 178.77152,-178.44669 182.05244,-178.97911 2.01777,-0.32744 4.93061,-0.2894 6.47296,0.0845 1.94451,0.47143 30.91523,28.77082 94.49186,92.30221 l 91.68757,91.62233 0.31243,-19.2592 0.31243,-19.25921 3.73531,-3.42097 L 713.97063,312 H 748 782.02937 l 3.73532,3.42274 3.73531,3.42274 0.27018,61.32726 0.27019,61.32726 43.86754,44 c 48.34301,48.48897 47.78252,47.78515 44.62918,56.04205 -1.07928,2.82607 -2.84218,5.10142 -4.97261,6.4181 C 870.38965,549.9223 868.77339,550 831.13197,550 H 792 v 126.03212 c 0,138.74646 0.35761,130.95039 -6.18982,134.94225 -3.27414,1.99618 -4.69278,2.01819 -130.30253,2.02189 L 528.51531,813 553,788.5 577.48469,764 l 27.00766,0.008 27.00765,0.008 2.25102,3.94219 c 9.55967,16.74175 34.8651,15.4942 43.65875,-2.15236 6.27042,-12.5831 1.34899,-27.35138 -11.153,-33.46803 -11.60972,-5.68011 -25.09587,-2.30873 -31.75677,7.93882 l -3,4.61539 -30.44912,0.0543 L 570.60176,745 548.30088,767.22059 526,789.44117 v -28.76652 -28.76653 l 29.25,-28.91301 29.25,-28.91301 46.66844,-0.041 46.66844,-0.0411 2.01151,3.25 c 10.91016,17.62756 36.23037,16.66125 44.78474,-1.70913 7.82576,-16.80571 -4.38379,-35.54724 -23.13313,-35.50914 -9.40736,0.0191 -17.91037,5.0598 -22.05488,13.07439 L 677.94864,656 H 640.23153 602.51442 L 628.25721,630.24292 654,604.48585 v -25.50306 -25.50306 l 18.30734,-18.28728 18.30734,-18.28727 4.84514,1.08582 c 6.40548,1.43549 12.16733,0.46385 18.41764,-3.10585 18.91964,-10.80546 15.29447,-39.36776 -5.77933,-45.53461 -9.72726,-2.8465 -18.66418,-0.0586 -25.80033,8.04848 -5.7851,6.57222 -7.94577,16.1363 -5.24827,23.23125 1.006,2.646 0.54985,3.26015 -11,14.81 L 654,527.4898 v -40.21922 -40.21922 l 2.89963,-1.49946 c 4.08598,-2.11294 9.56862,-8.83372 10.93981,-13.41034 4.73058,-15.78927 -5.22623,-31.19917 -21.21704,-32.83709 -25.20508,-2.58172 -37.74824,29.68786 -17.3724,44.69367 l 4.75,3.49814 v 39.85317 39.85316 l -6.80678,-7.3513 c -3.74374,-4.04322 -8.71112,-9.4455 -11.03864,-12.00506 l -4.23185,-4.65374 1.16849,-4.64051 c 3.94855,-15.6811 -8.34116,-30.76513 -25.00097,-30.68545 -13.57845,0.065 -23.74519,9.73146 -24.8255,23.60404 -0.41977,5.39035 -0.11132,6.71835 2.9101,12.52941 2.77395,5.33509 4.34035,7.07518 8.7402,9.70939 6.35828,3.80673 12.65965,4.96296 18.97997,3.48261 l 4.60498,-1.07857 18.75,18.68341 18.75,18.68342 v 21.50221 21.50222 l -23.74219,23.75765 C 599.19961,633.30906 588.17461,644 587.75781,644 587.34102,644 587,635.68656 587,625.52568 v -18.47432 l 2.75,-1.44326 c 4.04628,-2.12357 9.92886,-8.57163 11.70117,-12.82598 0.85186,-2.04484 1.54443,-6.31984 1.53906,-9.5 -0.0291,-17.22591 -16.47283,-29.26832 -32.63516,-23.90005 -17.76065,5.89914 -23.37385,28.58702 -10.2561,41.45392 1.87057,1.8348 4.63853,3.98385 6.15103,4.77568 l 2.75,1.43969 v 28.30566 28.30566 L 547.5,684.41907 526,705.17546 V 574.66952 c 0,-71.77827 0.25269,-131.16444 0.56153,-131.96927 0.30884,-0.80482 8.80639,-9.37887 18.88343,-19.05344 l 18.32191,-17.59011 5.36656,1.12056 c 10.37466,2.16628 21.87215,-3.59491 27.15929,-13.60905 3.0006,-5.6833 3.0006,-16.45312 0,-22.13642 -4.89342,-9.2684 -16.26719,-15.44559 -25.57957,-13.89246 -5.21172,0.86921 -12.50723,4.4868 -15.3503,7.61168 -5.68786,6.25166 -8.05907,16.04281 -6.02944,24.89667 l 0.81326,3.54767 -16.93191,16.17037 -16.93191,16.17037 -16.77532,-16.32568 -16.77531,-16.32569 1.25047,-5.21256 c 3.46687,-14.45153 -6.11741,-27.94012 -21.69584,-30.534 -9.31411,-1.55084 -20.68667,4.62621 -25.57957,13.89363 -3.0006,5.6833 -3.0006,16.45312 0,22.13642 5.30671,10.0512 16.78014,15.77634 27.23944,13.59224 l 5.44672,-1.13738 9.02377,8.73847 c 4.96307,4.80615 13.42455,13.11028 18.80328,18.45362 l 9.77951,9.71515 -10e-4,43.28485 c -6.2e-4,23.80666 -0.29959,65.25818 -0.66438,92.11448 L 505.67125,627.15928 474.83562,596.33569 444,565.5121 444.0545,539.00605 444.109,512.5 l 4.58251,-3.01156 c 12.78447,-8.40178 14.4358,-27.39279 3.32093,-38.19208 -9.12458,-8.86551 -23.19073,-9.6013 -33.48241,-1.75146 -2.05991,1.57118 -4.81931,5.32862 -6.66187,9.07138 -2.76205,5.61053 -3.08093,7.10043 -2.61631,12.22433 0.80031,8.82593 6.26853,17.47543 12.74357,20.15748 l 3.0046,1.24455 v 17.62133 17.62132 L 399.5,522 374,496.51471 v -25.11235 -25.11234 l 4.49842,-2.84342 C 397.1915,431.63081 391.68349,402.94402 369.78373,398.05873 354.61318,394.67456 340,406.73828 340,422.64631 c 0,10.03897 3.55424,16.41618 12.25,21.97959 l 3.75,2.39919 v 29.80848 29.80849 l 27.25,27.169 27.25,27.16901 -16.68261,0.01 c -15.98564,0.01 -16.71001,-0.0763 -17.33824,-2.05574 -1.17574,-3.7044 -6.85698,-9.20109 -11.97187,-11.58298 -16.53803,-7.70137 -35.7537,4.4506 -35.81395,22.64869 -0.0607,18.32422 19.09143,30.43597 35.81395,22.64869 5.11489,-2.38189 10.79613,-7.87858 11.97187,-11.58298 C 377.11974,579.04738 377.73538,579 403.32226,579 h 26.18748 L 467.75487,617.25481 506,655.50962 v 66.48532 66.48532 L 487,769.5 l -19,-18.98026 0.008,-27.00987 0.008,-27.00987 3.94678,-2.25366 c 8.44186,-4.82041 13.69706,-17.47292 11.21372,-26.99837 -1.71008,-6.55946 -5.84211,-12.14692 -11.62841,-15.72431 C 467.15118,648.80563 465.83236,648.5 458.5,648.5 c -7.33718,0 -8.6514,0.30507 -13.07842,3.03591 -5.75978,3.55296 -10.99602,11.44343 -11.98921,18.06649 -1.39603,9.30941 3.66734,20.11022 11.53359,24.60258 l 4.01864,2.29502 0.008,16.98124 0.008,16.98124 -9.75,-9.57687 c -5.3625,-5.26728 -19.29744,-18.92905 -30.96654,-30.3595 -17.91409,-17.54771 -21.0661,-21.06373 -20.25,-22.58862 1.63375,-3.05269 1.09442,-14.05929 -0.90454,-18.45968 -4.16561,-9.16996 -12.60056,-14.43389 -23.12892,-14.43389 -14.28088,0 -24.92222,10.15654 -24.97804,23.84006 -0.03,7.34415 1.65669,12.3806 5.74604,17.15809 5.3985,6.30692 10.3265,8.433 19.232,8.29723 4.125,-0.0629 8.21364,-0.27747 9.08586,-0.47683 1.00195,-0.22901 12.90013,10.77556 32.31451,29.88753 L 436.12962,744 h -16.81637 -16.81637 l -3.49814,-4.71552 c -6.17761,-8.32747 -14.00303,-11.96512 -23.62054,-10.98001 -13.19435,1.35149 -22.33368,11.66193 -22.33368,25.19553 0,9.99919 5.45389,18.5496 14.43389,22.62892 4.88782,2.22039 15.17251,2.46185 19.94387,0.46825 4.20938,-1.75879 11.24141,-8.04498 13.16874,-11.77202 L 402.05136,762 h 26.61252 26.61252 l 25.6118,25.48334 25.6118,25.48334 -129.26469,0.0167 -129.26468,0.0167 -3.73532,-3.42305 z"
       id="path951"
       inkscape:connector-curvature="0" />
    <path
       style="fill:#000005;fill-opacity:1"
       d="m 372.11687,762.36931 c -1.28047,-0.89688 -2.96164,-3.14688 -3.73592,-5 -1.21039,-2.89685 -1.21039,-3.84177 0,-6.73862 2.67263,-6.3965 8.36896,-8.30022 14.19874,-4.74522 5.93077,3.61658 6.8131,10.81265 1.9251,15.70065 -2.89036,2.89036 -8.84228,3.26665 -12.38792,0.78319 z"
       id="path949"
       inkscape:connector-curvature="0" />
    <path
       style="fill:#000009;fill-opacity:1"
       d="m 651.5,763.09249 c -6.43309,-2.75474 -8.02381,-10.84876 -3.13496,-15.95162 3.36807,-3.51551 7.05365,-4.41081 11.1347,-2.70484 4.28989,1.79325 5.77299,4.02192 5.77299,8.67515 0,3.16257 -0.64773,4.72451 -2.88637,6.9602 -3.12174,3.11764 -7.6963,4.38714 -10.88636,3.02111 z"
       id="path947"
       inkscape:connector-curvature="0" />
    <path
       style="fill:#000005;fill-opacity:1"
       d="M 451.76578,681.08203 C 448.9611,678.57605 448.5,677.50489 448.5,673.49545 c 0,-3.87542 0.4767,-5.07866 2.80576,-7.08203 6.66299,-5.73126 16.62364,-0.8037 16.672,8.24769 0.0183,3.43321 -0.51597,4.61397 -3.05449,6.75 -4.24946,3.57569 -8.91798,3.45892 -13.15749,-0.32908 z"
       id="path945"
       inkscape:connector-curvature="0" />
    <path
       style="fill:#000009;fill-opacity:1"
       d="M 696.34543,672.06899 C 688.20147,667.10314 692.97693,654 702.9307,654 c 5.55375,0 9.07614,3.58281 9.04706,9.20225 -0.0457,8.83867 -8.14465,13.43243 -15.63233,8.86674 z"
       id="path943"
       inkscape:connector-curvature="0" />
    <path
       style="fill:#000005;fill-opacity:1"
       d="m 361,671.29629 c -0.825,-0.30019 -2.7375,-1.69886 -4.25,-3.10814 -3.98387,-3.712 -3.90531,-10.18669 0.17308,-14.26507 7.10551,-7.10551 18.24173,-1.2134 17.15556,9.07692 -0.60956,5.77492 -7.68075,10.26045 -13.07864,8.29629 z"
       id="path941"
       inkscape:connector-curvature="0" />
    <path
       style="fill:#000005;fill-opacity:1"
       d="m 569.90121,590.89424 c -3.77822,-4.04459 -3.97528,-9.53404 -0.48779,-13.58848 2.00337,-2.32906 3.20661,-2.80576 7.08203,-2.80576 4.00944,0 5.0806,0.4611 7.58658,3.26578 3.13965,3.51387 3.78215,7.74315 1.75463,11.54996 -1.8401,3.45491 -4.01193,4.61828 -8.68545,4.65246 -3.59733,0.0263 -4.85011,-0.50486 -7.25,-3.07396 z"
       id="path939"
       inkscape:connector-curvature="0" />
    <path
       style="fill:#000009;fill-opacity:1"
       d="m 348.76257,578.43461 c -3.72965,-2.02368 -6.09434,-6.85261 -5.33576,-10.89616 1.49725,-7.98104 10.97248,-10.6007 16.90061,-4.67257 2.57971,2.57971 3.11902,3.88529 3.02865,7.33181 -0.0882,3.36244 -0.73182,4.74885 -3.24879,6.99776 -3.50702,3.13352 -7.12507,3.52871 -11.34471,1.23916 z"
       id="path937"
       inkscape:connector-curvature="0" />
    <path
       style="fill:#000005;fill-opacity:1"
       d="m 581.78349,500.25 c -6.76772,-7.75866 -3.0008,-17.75 6.69209,-17.75 5.045,0 8.15675,2.3018 9.35308,6.9186 1.10557,4.2665 0.37936,7.10065 -2.57692,10.05694 -3.1546,3.15459 -10.99867,3.60565 -13.46825,0.77446 z"
       id="path935"
       inkscape:connector-curvature="0" />
    <path
       style="fill:#000009;fill-opacity:1"
       d="m 694.58889,498.92327 c -7.32204,-8.70175 2.18357,-20.71214 12.26608,-15.49827 5.72793,2.96203 6.8696,11.00427 2.22195,15.65192 -2.36236,2.36237 -3.78398,2.92308 -7.4111,2.92308 -3.78394,0 -4.89418,-0.48268 -7.07693,-3.07673 z"
       id="path933"
       inkscape:connector-curvature="0" />
    <path
       style="fill:#000009;fill-opacity:1"
       d="m 432,499.34793 c -5.69286,-1.87551 -9,-5.69488 -9,-10.39398 0,-3.24956 3.04784,-7.73113 6.12452,-9.00553 8.23128,-3.40951 18.12722,7.43985 13.38608,14.67575 -1.31859,2.01241 -7.36134,5.67946 -8.72848,5.29688 -0.15517,-0.0434 -0.95712,-0.30132 -1.78212,-0.57312 z"
       id="path931"
       inkscape:connector-curvature="0" />
    <path
       style="fill:#000009;fill-opacity:1"
       d="m 638.4,430.6 c -4.53226,-4.53226 -4.70375,-9.4501 -0.47692,-13.67692 C 644.3646,410.48155 655,414.88901 655,424 c 0,3.25776 -0.63058,4.78443 -2.92308,7.07692 -4.22682,4.22683 -9.14466,4.05534 -13.67692,-0.47692 z"
       id="path929"
       inkscape:connector-curvature="0" />
    <path
       style="fill:#000009;fill-opacity:1"
       d="m 358.11687,430.36931 c -3.00143,-2.10229 -5.07941,-7.11446 -4.40727,-10.63053 C 354.36582,416.30599 359.32727,412 362.62639,412 368.58087,412 374,417.54873 374,423.64562 374,428.01491 369.48533,432 364.53542,432 c -2.24973,0 -5.13807,-0.73381 -6.41855,-1.63069 z"
       id="path927"
       inkscape:connector-curvature="0" />
    <path
       style="fill:#000009;fill-opacity:1"
       d="M 453.74998,390.91989 C 451.4207,389.56321 449,384.73695 449,381.44966 449,377.46424 454.88511,372 459.17749,372 c 6.22804,0 11.28478,6.13096 10.11291,12.26122 -1.13388,5.93149 -10.1536,9.7962 -15.54042,6.65867 z"
       id="path925"
       inkscape:connector-curvature="0" />
    <path
       style="fill:#000009;fill-opacity:1"
       d="m 566.05085,389.33752 c -2.88132,-3.66302 -3.44664,-6.60823 -2.0694,-10.78131 C 565.46622,374.0573 568.39701,372 573.3213,372 c 3.04688,0 4.49704,0.66453 6.77749,3.10576 C 586.5029,381.96138 582.07651,392 572.6495,392 c -3.68686,0 -4.88443,-0.4832 -6.59865,-2.66248 z"
       id="path903"
       inkscape:connector-curvature="0" />
  </g>
</svg>
